SplineFontDB: 3.2
FontName: icomoon
FullName: icomoon
FamilyName: icomoon
Weight: Book
Copyright: 
Version: 1.0
ItalicAngle: 0
UnderlinePosition: 0
UnderlineWidth: 0
Ascent: 108
Descent: 20
InvalidEm: 0
sfntRevision: 0x00000000
LayerCount: 2
Layer: 0 1 "Back" 1
Layer: 1 1 "Fore" 0
XUID: [1021 637 -1511240969 31931]
StyleMap: 0x0040
FSType: 0
OS2Version: 3
OS2_WeightWidthSlopeOnly: 0
OS2_UseTypoMetrics: 0
CreationTime: 1489046521
ModificationTime: 1618853020
PfmFamily: 81
TTFWeight: 400
TTFWidth: 5
LineGap: 0
VLineGap: 0
Panose: 0 0 0 0 0 0 0 0 0 0
OS2TypoAscent: 102
OS2TypoAOffset: 0
OS2TypoDescent: -26
OS2TypoDOffset: 0
OS2TypoLinegap: 26
OS2WinAscent: 102
OS2WinAOffset: 0
OS2WinDescent: 26
OS2WinDOffset: 0
HheadAscent: 102
HheadAOffset: 0
HheadDescent: -26
HheadDOffset: 0
OS2SubXSize: 83
OS2SubYSize: 90
OS2SubXOff: 0
OS2SubYOff: 18
OS2SupXSize: 83
OS2SupYSize: 90
OS2SupXOff: 0
OS2SupYOff: 62
OS2StrikeYSize: 6
OS2StrikeYPos: 33
OS2CapHeight: 114
OS2XHeight: 110
OS2Vendor: 'PfEd'
OS2CodePages: 00000001.00000000
OS2UnicodeRanges: 00000001.10000000.00000000.00000000
MarkAttachClasses: 1
DEI: 91125
ShortTable: cvt  2
  34
  648
EndShort
ShortTable: maxp 16
  1
  0
  118
  1090
  44
  0
  0
  2
  0
  0
  0
  0
  0
  0
  0
  0
EndShort
LangName: 1033 "" "" "Regular" "icomoon" "" "Version 1.0" "" "" "" "" "Font generated by IcoMoon."
GaspTable: 1 65535 15 1
Encoding: UnicodeFull
UnicodeInterp: none
NameList: AGL For New Fonts
DisplaySize: -72
AntiAlias: 1
FitToEm: 0
WinInfo: 0 25 10
BeginPrivate: 0
EndPrivate
BeginChars: 1114115 181

StartChar: .notdef
Encoding: 1114112 -1 0
Width: 46
Flags: W
LayerCount: 2
Fore
SplineSet
4 0 m 1,0,-1
 4 85 l 1,1,-1
 38 85 l 1,2,-1
 38 0 l 1,3,-1
 4 0 l 1,0,-1
8 4 m 1,4,-1
 34 4 l 1,5,-1
 34 81 l 1,6,-1
 8 81 l 1,7,-1
 8 4 l 1,4,-1
EndSplineSet
EndChar

StartChar: glyph1
Encoding: 1114113 -1 1
Width: 276
Flags: W
LayerCount: 2
Fore
SplineSet
232 34 m 1,0,1
 230 36 230 36 226 36 c 128,-1,2
 222 36 222 36 219 30 c 1,3,4
 223 26 223 26 226 26 c 128,-1,5
 229 26 229 26 232 34 c 1,0,1
76 10 m 1,6,7
 76 9 76 9 77 7 c 0,8,9
 77 3 77 3 61 -2 c 0,10,11
 49 -6 49 -6 46.5 -6 c 128,-1,12
 44 -6 44 -6 44 -3.5 c 128,-1,13
 44 -1 44 -1 46 0 c 1,14,15
 54 2 54 2 74 10 c 1,16,-1
 76 10 l 1,6,7
91 68 m 1,17,18
 98 68 98 68 98 63 c 128,-1,19
 98 58 98 58 95 58 c 1,20,-1
 87 61 l 1,21,-1
 82 59 l 1,22,23
 74 59 74 59 74 63.5 c 128,-1,24
 74 68 74 68 78 68 c 1,25,-1
 85 66 l 1,26,-1
 91 68 l 1,17,18
140 46 m 1,27,-1
 179 36 l 1,28,-1
 179 32 l 1,29,30
 176 30 176 30 174 30 c 2,31,-1
 166 30 l 1,32,-1
 112 19 l 1,33,-1
 104 19 l 1,34,35
 94 20 94 20 90 27 c 128,-1,36
 86 34 86 34 83 34 c 0,37,38
 79 34 79 34 71.5 22.5 c 128,-1,39
 64 11 64 11 59 11 c 2,40,-1
 55 11 l 1,41,42
 49 13 49 13 47 28 c 0,43,-1
 45 44 l 2,44,-1
 42 56 l 1,45,46
 42 72 42 72 48 81 c 128,-1,47
 54 90 54 90 57 90 c 1,48,-1
 58 88 l 2,49,-1
 48 62 l 1,50,51
 48 53 48 53 51 53 c 128,-1,52
 54 53 54 53 58 55 c 0,53,54
 62 58 62 58 62 54 c 128,-1,55
 62 50 62 50 52 40 c 1,56,57
 52 36 52 36 51 34 c 0,58,59
 51 21 51 21 56.5 20.5 c 128,-1,60
 62 20 62 20 70 32 c 128,-1,61
 78 44 78 44 83 44 c 128,-1,62
 88 44 88 44 93 39 c 0,63,64
 103 29 103 29 112.5 29 c 128,-1,65
 122 29 122 29 132 34 c 1,66,67
 132 36 132 36 127 37 c 0,68,69
 111 39 111 39 111 43 c 0,70,71
 112 47 112 47 118 49 c 1,72,-1
 126 50 l 2,73,74
 136 52 136 52 146 61 c 128,-1,75
 156 70 156 70 162 70 c 128,-1,76
 168 70 168 70 168 61 c 128,-1,77
 168 52 168 52 164 52 c 1,78,-1
 158 59 l 1,79,-1
 140 46 l 1,27,-1
147 10 m 1,80,-1
 146 14 l 1,81,82
 168 24 168 24 171 24 c 128,-1,83
 174 24 174 24 176 21 c 1,84,85
 175 19 175 19 165 14.5 c 0,86,87
 156 10 156 10 152 10 c 2,88,-1
 147 10 l 1,80,-1
122 71 m 1,89,90
 127 67 127 67 126.5 64.5 c 128,-1,91
 126 62 126 62 121 62 c 128,-1,92
 116 62 116 62 116 66 c 0,93,94
 116 78 116 78 119 78 c 129,-1,95
 122 78 122 78 122 71 c 1,89,90
148 103 m 1,96,97
 146 100 146 100 124.5 94 c 128,-1,98
 103 88 103 88 102 83.5 c 128,-1,99
 101 79 101 79 98.5 79 c 128,-1,100
 96 79 96 79 96 84.5 c 128,-1,101
 96 90 96 90 117.5 98.5 c 128,-1,102
 139 107 139 107 142 107 c 128,-1,103
 145 107 145 107 148 105 c 1,104,-1
 148 103 l 1,96,97
163 89 m 1,105,106
 171 89 171 89 171 83 c 128,-1,107
 171 77 171 77 167.5 77 c 0,108,109
 164 76 164 76 158 82 c 1,110,111
 154 78 154 78 149 78 c 128,-1,112
 144 78 144 78 144 84 c 128,-1,113
 144 90 144 90 149 90 c 0,114,115
 153 90 153 90 157 86 c 1,116,-1
 163 89 l 1,105,106
208 44 m 1,117,118
 205 42 205 42 201 42 c 128,-1,119
 197 42 197 42 197 48.5 c 0,120,121
 196 54 196 54 200 60 c 1,122,-1
 203 60 l 2,123,-1
 203 55 l 0,124,125
 203 50 203 50 208 47 c 1,126,-1
 208 44 l 1,117,118
236 14 m 1,127,-1
 224 16 l 2,128,129
 222 16 222 16 214 13 c 0,130,131
 190 5 190 5 186 23 c 0,132,133
 183 39 183 39 182.5 55.5 c 128,-1,134
 182 72 182 72 181 86 c 2,135,-1
 180 98 l 1,136,137
 180 104 180 104 182 104 c 129,-1,138
 184 104 184 104 186 99 c 128,-1,139
 188 94 188 94 188.5 80.5 c 0,140,141
 189 68 189 68 190 58 c 2,142,-1
 192 39 l 2,143,144
 194 21 194 21 202.5 21 c 128,-1,145
 211 21 211 21 212 25 c 1,146,147
 212 27 212 27 213 31.5 c 128,-1,148
 214 36 214 36 219.5 41.5 c 128,-1,149
 225 47 225 47 231.5 47 c 128,-1,150
 238 47 238 47 238 37.5 c 128,-1,151
 238 28 238 28 237 25 c 0,152,-1
 242 24 l 0,153,154
 247 24 247 24 246 31 c 2,155,-1
 238 96 l 2,156,157
 237 105 237 105 240 105 c 0,158,159
 248 106 248 106 250 94 c 0,160,-1
 253 82 l 2,161,-1
 248 85 l 1,162,-1
 253 33 l 1,163,164
 253 14 253 14 236 14 c 1,127,-1
223 64 m 128,-1,166
 230 64 230 64 230 58.5 c 128,-1,167
 230 53 230 53 223 53 c 128,-1,168
 216 53 216 53 216 58.5 c 128,-1,165
 216 64 216 64 223 64 c 128,-1,166
214 85 m 2,169,-1
 230 90 l 2,170,171
 231 90 231 90 234 88 c 1,172,173
 234 85 234 85 217.5 77.5 c 0,174,175
 200 70 200 70 198 70 c 0,176,177
 194 70 194 70 196 75 c 1,178,-1
 204 80 l 1,179,180
 207 82 207 82 207 86.5 c 128,-1,181
 207 91 207 91 204.5 98 c 128,-1,182
 202 105 202 105 204 105 c 0,183,184
 212 105 212 105 212 95 c 128,-1,185
 212 85 212 85 214 85 c 2,169,-1
274 80 m 2,186,-1
 270 84 l 1,187,188
 266 83 266 83 270 60.5 c 128,-1,189
 274 38 274 38 274 34.5 c 128,-1,190
 274 31 274 31 273 24 c 128,-1,191
 272 17 272 17 270 14 c 1,192,-1
 268 14 l 1,193,-1
 260 95 l 1,194,195
 260 103 260 103 263.5 103 c 128,-1,196
 267 103 267 103 269 97 c 0,197,-1
 274 80 l 2,186,-1
EndSplineSet
EndChar

StartChar: zero
Encoding: 48 48 4
Width: 53
VWidth: 2048
Flags: W
LayerCount: 2
Fore
SplineSet
35.2001953125 36.0703125 m 5,0,-1
 29.3798828125 16.990234375 l 5,1,2
 24.400390625 21.3701171875 24.400390625 21.3701171875 14.7998046875 27.9697265625 c 5,3,4
 16.83984375 34.08984375 16.83984375 34.08984375 20.2001953125 48.009765625 c 5,5,6
 26.0205078125 42.7294921875 26.0205078125 42.7294921875 35.2001953125 36.0703125 c 5,0,-1
EndSplineSet
EndChar

StartChar: one
Encoding: 49 49 5
Width: 52
VWidth: 2048
Flags: W
LayerCount: 2
Fore
SplineSet
22.4697265625 71.1201171875 m 0,0,1
 36.9296875 50.2998046875 36.9296875 50.2998046875 36.9296875 26.2099609375 c 128,-1,2
 36.9296875 2.1201171875 36.9296875 2.1201171875 33.150390625 2.1201171875 c 0,3,4
 31.7099609375 2.1201171875 31.7099609375 2.1201171875 30.6298828125 12.740234375 c 0,5,6
 28.349609375 34.099609375 28.349609375 34.099609375 14.0703125 57.5595703125 c 1,7,8
 19.109375 73.8798828125 19.109375 73.8798828125 20.009765625 73.8798828125 c 0,9,10
 20.5498046875 73.8798828125 20.5498046875 73.8798828125 22.4697265625 71.1201171875 c 0,0,1
EndSplineSet
EndChar

StartChar: two
Encoding: 50 50 6
Width: 70
VWidth: 2048
Flags: W
LayerCount: 2
Fore
SplineSet
38.1904296875 42.3779296875 m 1,0,1
 42.5703125 27.677734375 42.5703125 27.677734375 42.5703125 14.1171875 c 128,-1,2
 42.5703125 0.5576171875 42.5703125 0.5576171875 40.0205078125 0.5576171875 c 128,-1,3
 37.4697265625 0.5576171875 37.4697265625 0.5576171875 35.91015625 10.4580078125 c 0,4,5
 31.830078125 37.037109375 31.830078125 37.037109375 15.150390625 60.017578125 c 1,6,7
 20.669921875 73.517578125 20.669921875 73.517578125 22.890625 71.1171875 c 0,8,9
 32.3095703125 60.677734375 32.3095703125 60.677734375 37.890625 60.677734375 c 0,10,11
 46.2294921875 60.677734375 46.2294921875 60.677734375 48.4501953125 65.927734375 c 128,-1,12
 50.669921875 71.177734375 50.669921875 71.177734375 52.169921875 71.177734375 c 128,-1,13
 53.669921875 71.177734375 53.669921875 71.177734375 53.759765625 69.8876953125 c 128,-1,14
 53.849609375 68.59765625 53.849609375 68.59765625 53.849609375 62.7177734375 c 0,15,16
 53.849609375 42.3779296875 53.849609375 42.3779296875 38.1904296875 42.3779296875 c 1,0,1
EndSplineSet
EndChar

StartChar: three
Encoding: 51 51 7
Width: 85
VWidth: 2048
Flags: W
LayerCount: 2
Fore
SplineSet
36.2900390625 41.0498046875 m 1,0,1
 39.890625 29.650390625 39.890625 29.650390625 39.890625 14.890625 c 128,-1,2
 39.890625 0.1298828125 39.890625 0.1298828125 37.1904296875 0.1298828125 c 128,-1,3
 34.490234375 0.1298828125 34.490234375 0.1298828125 34.25 2.349609375 c 0,4,5
 30.41015625 34.6904296875 30.41015625 34.6904296875 15.349609375 56.830078125 c 1,6,-1
 20.509765625 67.4501953125 l 2,7,8
 21.41015625 69.25 21.41015625 69.25 23.990234375 66.490234375 c 0,9,10
 33.109375 56.890625 33.109375 56.890625 37.33984375 56.890625 c 128,-1,11
 41.5703125 56.890625 41.5703125 56.890625 45.58984375 63.8798828125 c 128,-1,12
 49.609375 70.8701171875 49.609375 70.8701171875 51.2294921875 70.8701171875 c 128,-1,13
 52.849609375 70.8701171875 52.849609375 70.8701171875 52.4296875 66.7294921875 c 0,14,15
 51.650390625 59.890625 51.650390625 59.890625 60.41015625 59.890625 c 0,16,17
 63.650390625 59.890625 63.650390625 59.890625 65.509765625 64.0302734375 c 128,-1,18
 67.3701171875 68.169921875 67.3701171875 68.169921875 68.509765625 68.169921875 c 128,-1,19
 69.650390625 68.169921875 69.650390625 68.169921875 69.650390625 63.1298828125 c 0,20,21
 69.650390625 43.75 69.650390625 43.75 58.609375 43.75 c 0,22,23
 50.75 43.75 50.75 43.75 46.0703125 47.349609375 c 1,24,25
 42.41015625 41.9501953125 42.41015625 41.9501953125 36.2900390625 41.0498046875 c 1,0,1
EndSplineSet
EndChar

StartChar: four
Encoding: 52 52 8
Width: 81
VWidth: 2048
Flags: W
LayerCount: 2
Fore
SplineSet
53.90625 66.9697265625 m 1,0,1
 44.9658203125 66.9697265625 44.9658203125 66.9697265625 44.9658203125 62.169921875 c 128,-1,2
 44.9658203125 57.3701171875 44.9658203125 57.3701171875 50.3662109375 57.3701171875 c 128,-1,3
 55.7666015625 57.3701171875 55.7666015625 57.3701171875 59.63671875 60.3701171875 c 128,-1,4
 63.5068359375 63.3701171875 63.5068359375 63.3701171875 64.1962890625 63.3701171875 c 128,-1,5
 64.88671875 63.3701171875 64.88671875 63.3701171875 64.4365234375 59.349609375 c 128,-1,6
 63.986328125 55.330078125 63.986328125 55.330078125 57.5361328125 50.140625 c 128,-1,7
 51.0859375 44.9501953125 51.0859375 44.9501953125 45.056640625 44.9501953125 c 128,-1,8
 39.0263671875 44.9501953125 39.0263671875 44.9501953125 36.0859375 45.5498046875 c 1,9,10
 41.06640625 33.009765625 41.06640625 33.009765625 41.06640625 17.6201171875 c 128,-1,11
 41.06640625 2.2294921875 41.06640625 2.2294921875 38.0361328125 2.2294921875 c 128,-1,12
 35.0068359375 2.2294921875 35.0068359375 2.2294921875 35.15625 10 c 128,-1,13
 35.306640625 17.7705078125 35.306640625 17.7705078125 29.4267578125 33.8798828125 c 128,-1,14
 23.5458984375 49.990234375 23.5458984375 49.990234375 14.845703125 59.7705078125 c 1,15,-1
 20.306640625 70.8701171875 l 2,16,17
 21.38671875 73.0302734375 21.38671875 73.0302734375 23.486328125 69.9697265625 c 0,18,19
 30.326171875 60.1298828125 30.326171875 60.1298828125 38.0068359375 58.5703125 c 1,20,21
 37.5263671875 60.669921875 37.5263671875 60.669921875 37.5263671875 62.7099609375 c 0,22,23
 37.5263671875 74.7705078125 37.5263671875 74.7705078125 49.166015625 74.7705078125 c 0,24,25
 54.626953125 74.7705078125 54.626953125 74.7705078125 57.38671875 71.4404296875 c 128,-1,26
 60.146484375 68.109375 60.146484375 68.109375 60.146484375 67.2705078125 c 128,-1,27
 60.146484375 66.4296875 60.146484375 66.4296875 58.9462890625 66.4296875 c 2,28,-1
 53.90625 66.9697265625 l 1,0,1
EndSplineSet
EndChar

StartChar: five
Encoding: 53 53 9
Width: 79
VWidth: 2048
Flags: W
LayerCount: 2
Fore
SplineSet
28.259765625 2.294921875 m 0,0,1
 14.8798828125 2.294921875 14.8798828125 2.294921875 14.8798828125 18.6142578125 c 128,-1,2
 14.8798828125 34.9345703125 14.8798828125 34.9345703125 29.0400390625 55.5146484375 c 1,3,-1
 25.2001953125 57.734375 l 1,4,-1
 32.16015625 71.474609375 l 2,5,6
 32.7001953125 72.5546875 32.7001953125 72.5546875 41.8798828125 67.0341796875 c 0,7,8
 63.1201171875 54.1943359375 63.1201171875 54.1943359375 63.1201171875 28.4248046875 c 128,-1,9
 63.1201171875 2.654296875 63.1201171875 2.654296875 46.6201171875 2.654296875 c 0,10,11
 40.919921875 2.654296875 40.919921875 2.654296875 37.6796875 8.1142578125 c 1,12,13
 33.359375 2.294921875 33.359375 2.294921875 28.259765625 2.294921875 c 0,0,1
37.0205078125 52.2138671875 m 1,14,15
 20.099609375 35.654296875 20.099609375 35.654296875 20.099609375 25.7548828125 c 0,16,17
 20.099609375 18.0146484375 20.099609375 18.0146484375 30.1201171875 18.0146484375 c 0,18,19
 34.5 18.0146484375 34.5 18.0146484375 35.9404296875 21.583984375 c 128,-1,20
 37.3798828125 25.154296875 37.3798828125 25.154296875 38.1298828125 25.154296875 c 128,-1,21
 38.8798828125 25.154296875 38.8798828125 25.154296875 39.990234375 21.583984375 c 128,-1,22
 41.099609375 18.0146484375 41.099609375 18.0146484375 45.83984375 18.0146484375 c 0,23,24
 57.359375 18.0146484375 57.359375 18.0146484375 57.359375 26.474609375 c 0,25,26
 57.359375 42.07421875 57.359375 42.07421875 37.0205078125 52.2138671875 c 1,14,15
EndSplineSet
EndChar

StartChar: six
Encoding: 54 54 10
Width: 80
VWidth: 2048
Flags: W
LayerCount: 2
Fore
SplineSet
43.900390625 52.1796875 m 1,0,1
 62.0205078125 59.4404296875 62.0205078125 59.4404296875 63.490234375 59.4404296875 c 128,-1,2
 64.9599609375 59.4404296875 64.9599609375 59.4404296875 64.9599609375 58.5703125 c 128,-1,3
 64.9599609375 57.7001953125 64.9599609375 57.7001953125 64.599609375 56.3203125 c 2,4,-1
 62.5595703125 48.4599609375 l 2,5,6
 61.9599609375 46.1796875 61.9599609375 46.1796875 58.0595703125 45.0400390625 c 0,7,8
 34.7197265625 38.2001953125 34.7197265625 38.2001953125 18.580078125 6.33984375 c 0,9,10
 17.6796875 4.599609375 17.6796875 4.599609375 16.359375 4.599609375 c 128,-1,11
 15.0400390625 4.599609375 15.0400390625 4.599609375 15.0400390625 5.9794921875 c 0,12,13
 15.0400390625 23.6201171875 15.0400390625 23.6201171875 32.3798828125 42.8203125 c 1,14,15
 22.2998046875 47.859375 22.2998046875 47.859375 22.2998046875 52.6298828125 c 128,-1,16
 22.2998046875 57.400390625 22.2998046875 57.400390625 28.6298828125 66.400390625 c 128,-1,17
 34.9599609375 75.400390625 34.9599609375 75.400390625 42.3095703125 75.400390625 c 128,-1,18
 49.66015625 75.400390625 49.66015625 75.400390625 53.6796875 70.2998046875 c 128,-1,19
 57.7001953125 65.2001953125 57.7001953125 65.2001953125 57.7001953125 64.08984375 c 128,-1,20
 57.7001953125 62.9794921875 57.7001953125 62.9794921875 56.4404296875 62.9794921875 c 1,21,-1
 46.419921875 64.9599609375 l 1,22,23
 37.66015625 64.9599609375 37.66015625 64.9599609375 34.359375 58.2998046875 c 1,24,25
 35.0205078125 55.1201171875 35.0205078125 55.1201171875 43.900390625 52.1796875 c 1,0,1
EndSplineSet
EndChar

StartChar: seven
Encoding: 55 55 11
Width: 82
VWidth: 2048
Flags: W
LayerCount: 2
Fore
SplineSet
66.5595703125 55.7099609375 m 1,0,1
 51.6201171875 35.3095703125 51.6201171875 35.3095703125 46.9404296875 18.900390625 c 128,-1,2
 42.259765625 2.490234375 42.259765625 2.490234375 41.08984375 2.490234375 c 128,-1,3
 39.919921875 2.490234375 39.919921875 2.490234375 34.8203125 20.609375 c 128,-1,4
 29.7197265625 38.7294921875 29.7197265625 38.7294921875 15.4404296875 55.349609375 c 1,5,-1
 21.919921875 70.349609375 l 2,6,7
 22.759765625 72.330078125 22.759765625 72.330078125 23.1796875 72.330078125 c 0,8,9
 26.7197265625 72.330078125 26.7197265625 72.330078125 33.58984375 56.7001953125 c 128,-1,10
 40.4599609375 41.0703125 40.4599609375 41.0703125 42.080078125 35.4296875 c 128,-1,11
 43.7001953125 29.7900390625 43.7001953125 29.7900390625 44 29.7900390625 c 128,-1,12
 44.2998046875 29.9697265625 44.2998046875 29.9697265625 48.2001953125 44.009765625 c 128,-1,13
 52.099609375 58.0498046875 52.099609375 58.0498046875 58.25 64.9794921875 c 128,-1,14
 64.400390625 71.91015625 64.400390625 71.91015625 65.419921875 72.509765625 c 1,15,16
 66.080078125 72.509765625 66.080078125 72.509765625 66.140625 70.4697265625 c 2,17,-1
 66.5595703125 55.7099609375 l 1,0,1
EndSplineSet
EndChar

StartChar: eight
Encoding: 56 56 12
Width: 82
VWidth: 2048
Flags: W
LayerCount: 2
Fore
SplineSet
66.5595703125 19.650390625 m 1,0,-1
 60.080078125 4.650390625 l 2,1,2
 59.240234375 2.669921875 59.240234375 2.669921875 58.8203125 2.669921875 c 0,3,4
 55.2802734375 2.669921875 55.2802734375 2.669921875 48.41015625 18.2998046875 c 128,-1,5
 41.5400390625 33.9296875 41.5400390625 33.9296875 39.919921875 39.5703125 c 128,-1,6
 38.2998046875 45.2099609375 38.2998046875 45.2099609375 38 45.2099609375 c 128,-1,7
 37.7001953125 45.0302734375 37.7001953125 45.0302734375 33.7998046875 30.990234375 c 128,-1,8
 29.900390625 16.9501953125 29.900390625 16.9501953125 23.75 10.0205078125 c 128,-1,9
 17.599609375 3.08984375 17.599609375 3.08984375 16.580078125 2.490234375 c 1,10,11
 15.919921875 2.490234375 15.919921875 2.490234375 15.859375 4.5302734375 c 2,12,-1
 15.4404296875 19.2900390625 l 1,13,14
 30.3798828125 39.6904296875 30.3798828125 39.6904296875 35.0595703125 56.099609375 c 128,-1,15
 39.740234375 72.509765625 39.740234375 72.509765625 40.91015625 72.509765625 c 128,-1,16
 42.080078125 72.509765625 42.080078125 72.509765625 47.1796875 54.390625 c 128,-1,17
 52.2802734375 36.2705078125 52.2802734375 36.2705078125 66.5595703125 19.650390625 c 1,0,-1
EndSplineSet
EndChar

StartChar: nine
Encoding: 57 57 13
Width: 71
VWidth: 2048
Flags: W
LayerCount: 2
Fore
SplineSet
33.5498046875 32.6201171875 m 0,0,1
 15.1298828125 32.6201171875 15.1298828125 32.6201171875 15.1298828125 45.5205078125 c 0,2,3
 15.1298828125 52.7802734375 15.1298828125 52.7802734375 21.25 63.5205078125 c 128,-1,4
 27.3701171875 74.259765625 27.3701171875 74.259765625 33.0703125 74.259765625 c 0,5,6
 46.509765625 74.259765625 46.509765625 74.259765625 46.509765625 50.109375 c 128,-1,7
 46.509765625 25.9599609375 46.509765625 25.9599609375 55.8701171875 14.2001953125 c 1,8,-1
 51.1298828125 0.8798828125 l 2,9,10
 50.7099609375 -0.259765625 50.7099609375 -0.259765625 50.2294921875 -0.259765625 c 256,11,12
 49.75 -0.259765625 49.75 -0.259765625 46.6298828125 4.0595703125 c 0,13,14
 40.08984375 12.9404296875 40.08984375 12.9404296875 38.7705078125 33.0400390625 c 1,15,16
 36.1298828125 32.6201171875 36.1298828125 32.6201171875 33.5498046875 32.6201171875 c 0,0,1
36.9697265625 47.859375 m 1,17,18
 35.7705078125 59.4404296875 35.7705078125 59.4404296875 31 59.4404296875 c 128,-1,19
 26.2294921875 59.4404296875 26.2294921875 59.4404296875 24.25 52.66015625 c 1,20,21
 26.5302734375 47.140625 26.5302734375 47.140625 36.9697265625 47.859375 c 1,17,18
EndSplineSet
EndChar

StartChar: Agrave
Encoding: 192 192 16
Width: 201
VWidth: 1624
Flags: W
LayerCount: 2
Fore
SplineSet
120.515625 -47.994140625 m 5,0,1
 142.515625 -25.994140625 142.515625 -25.994140625 149.666015625 -27.64453125 c 132,-1,2
 156.815429688 -29.294921875 156.815429688 -29.294921875 156.815429688 -23.244140625 c 132,-1,3
 156.815429688 -17.1943359375 156.815429688 -17.1943359375 161.765625 -22.14453125 c 132,-1,4
 166.715820312 -27.0947265625 166.715820312 -27.0947265625 166.715820312 -22.6943359375 c 132,-1,5
 166.715820312 -18.294921875 166.715820312 -18.294921875 168.916015625 -17.1943359375 c 5,6,-1
 171.115234375 -22.6943359375 l 5,7,8
 171.115234375 -29.294921875 171.115234375 -29.294921875 161.215820312 -32.5947265625 c 132,-1,9
 151.315429688 -35.89453125 151.315429688 -35.89453125 146.916015625 -33.6943359375 c 4,10,11
 144.715820312 -33.6943359375 144.715820312 -33.6943359375 120.515625 -47.994140625 c 5,0,1
18.765625 -36.994140625 m 132,-1,13
 2.8154296875 -40.294921875 2.8154296875 -40.294921875 2.8154296875 -38.0947265625 c 4,14,15
 1.7158203125 -35.89453125 1.7158203125 -35.89453125 21.515625 -28.1943359375 c 4,16,17
 78.7158203125 -3.994140625 78.7158203125 -3.994140625 78.7158203125 5.9052734375 c 4,18,19
 78.7158203125 8.10546875 78.7158203125 8.10546875 69.365234375 23.505859375 c 132,-1,20
 60.015625 38.9052734375 60.015625 38.9052734375 66.0654296875 38.9052734375 c 132,-1,21
 72.115234375 38.9052734375 72.115234375 38.9052734375 73.2158203125 34.505859375 c 132,-1,22
 74.3154296875 30.10546875 74.3154296875 30.10546875 80.365234375 18.005859375 c 132,-1,23
 86.416015625 5.9052734375 86.416015625 5.9052734375 75.9658203125 -5.64453125 c 132,-1,24
 65.515625 -17.1943359375 65.515625 -17.1943359375 71.015625 -25.4443359375 c 132,-1,25
 76.515625 -33.6943359375 76.515625 -33.6943359375 88.0654296875 -30.39453125 c 132,-1,26
 99.615234375 -27.0947265625 99.615234375 -27.0947265625 111.715820312 -18.294921875 c 132,-1,27
 123.815429688 -9.494140625 123.815429688 -9.494140625 123.815429688 -8.39453125 c 132,-1,28
 123.815429688 -7.294921875 123.815429688 -7.294921875 112.815429688 -7.294921875 c 132,-1,29
 101.815429688 -7.294921875 101.815429688 -7.294921875 99.0654296875 0.4052734375 c 132,-1,30
 96.3154296875 8.10546875 96.3154296875 8.10546875 105.115234375 12.505859375 c 132,-1,31
 113.916015625 16.9052734375 113.916015625 16.9052734375 120.515625 10.3056640625 c 5,32,-1
 127.115234375 1.505859375 l 5,33,34
 138.115234375 -2.89453125 138.115234375 -2.89453125 138.115234375 10.3056640625 c 5,35,36
 140.315429688 14.705078125 140.315429688 14.705078125 142.515625 14.705078125 c 132,-1,37
 144.715820312 14.705078125 144.715820312 14.705078125 143.615234375 9.755859375 c 132,-1,38
 142.515625 4.8056640625 142.515625 4.8056640625 148.565429688 4.8056640625 c 132,-1,39
 154.615234375 4.8056640625 154.615234375 4.8056640625 159.015625 11.955078125 c 132,-1,40
 163.416015625 19.10546875 163.416015625 19.10546875 164.515625 14.705078125 c 132,-1,41
 165.615234375 10.3056640625 165.615234375 10.3056640625 169.465820312 10.3056640625 c 132,-1,42
 173.315429688 10.3056640625 173.315429688 10.3056640625 173.865234375 14.705078125 c 4,43,44
 175.515625 19.10546875 175.515625 19.10546875 177.715820312 19.10546875 c 4,45,46
 186.515625 19.10546875 186.515625 19.10546875 180.465820312 9.205078125 c 132,-1,47
 174.416015625 -0.6943359375 174.416015625 -0.6943359375 165.615234375 0.4052734375 c 132,-1,48
 156.815429688 1.505859375 156.815429688 1.505859375 154.065429688 -1.794921875 c 132,-1,49
 151.315429688 -5.0947265625 151.315429688 -5.0947265625 139.215820312 -4.544921875 c 132,-1,50
 127.115234375 -3.994140625 127.115234375 -3.994140625 127.115234375 -7.294921875 c 4,51,52
 127.115234375 -19.39453125 127.115234375 -19.39453125 107.315429688 -30.39453125 c 132,-1,53
 87.515625 -41.39453125 87.515625 -41.39453125 76.515625 -38.0947265625 c 4,54,55
 54.515625 -31.494140625 54.515625 -31.494140625 69.916015625 -9.494140625 c 5,56,-1
 50.115234375 -24.89453125 l 5,57,12
 34.7158203125 -33.6943359375 34.7158203125 -33.6943359375 18.765625 -36.994140625 c 132,-1,13
115.015625 1.505859375 m 132,-1,59
 120.515625 1.505859375 120.515625 1.505859375 117.215820312 3.705078125 c 132,-1,60
 113.916015625 5.9052734375 113.916015625 5.9052734375 109.515625 5.9052734375 c 132,-1,61
 105.115234375 5.9052734375 105.115234375 5.9052734375 107.315429688 3.705078125 c 132,-1,58
 109.515625 1.505859375 109.515625 1.505859375 115.015625 1.505859375 c 132,-1,59
39.115234375 26.8056640625 m 5,62,63
 54.515625 7.005859375 54.515625 7.005859375 41.3154296875 -1.794921875 c 132,-1,64
 28.115234375 -10.5947265625 28.115234375 -10.5947265625 25.916015625 -3.4443359375 c 132,-1,65
 23.7158203125 3.705078125 23.7158203125 3.705078125 29.2158203125 21.3056640625 c 5,66,67
 27.015625 23.505859375 27.015625 23.505859375 20.9658203125 24.0556640625 c 132,-1,68
 14.916015625 24.60546875 14.916015625 24.60546875 13.8154296875 25.705078125 c 5,69,70
 12.7158203125 30.10546875 12.7158203125 30.10546875 14.916015625 34.505859375 c 5,71,72
 23.7158203125 36.705078125 23.7158203125 36.705078125 34.7158203125 30.10546875 c 5,73,74
 36.916015625 34.505859375 36.916015625 34.505859375 40.765625 41.10546875 c 132,-1,75
 44.615234375 47.705078125 44.615234375 47.705078125 44.615234375 43.3056640625 c 4,76,77
 44.615234375 37.8056640625 44.615234375 37.8056640625 39.115234375 26.8056640625 c 5,62,63
29.765625 5.9052734375 m 132,-1,79
 32.515625 3.705078125 32.515625 3.705078125 38.015625 5.9052734375 c 132,-1,80
 43.515625 8.10546875 43.515625 8.10546875 42.9658203125 11.4052734375 c 132,-1,81
 42.416015625 14.705078125 42.416015625 14.705078125 37.4658203125 15.8056640625 c 132,-1,82
 32.515625 16.9052734375 32.515625 16.9052734375 29.765625 12.505859375 c 132,-1,78
 27.015625 8.10546875 27.015625 8.10546875 29.765625 5.9052734375 c 132,-1,79
140.315429688 68.60546875 m 5,83,84
 124.916015625 77.4052734375 124.916015625 77.4052734375 125.465820312 81.255859375 c 132,-1,85
 126.015625 85.10546875 126.015625 85.10546875 132.615234375 92.8056640625 c 132,-1,86
 139.215820312 100.505859375 139.215820312 100.505859375 142.515625 100.505859375 c 132,-1,87
 145.815429688 100.505859375 145.815429688 100.505859375 148.565429688 93.9052734375 c 132,-1,88
 151.315429688 87.3056640625 151.315429688 87.3056640625 150.215820312 81.8056640625 c 132,-1,89
 149.115234375 76.3056640625 149.115234375 76.3056640625 149.115234375 75.755859375 c 132,-1,90
 149.115234375 75.205078125 149.115234375 75.205078125 150.215820312 74.6552734375 c 132,-1,91
 151.315429688 74.10546875 151.315429688 74.10546875 152.416015625 73.5556640625 c 132,-1,92
 153.515625 73.005859375 153.515625 73.005859375 151.315429688 68.0556640625 c 132,-1,93
 149.115234375 63.10546875 149.115234375 63.10546875 146.916015625 64.205078125 c 6,94,-1
 144.715820312 65.3056640625 l 5,95,96
 135.916015625 54.3056640625 135.916015625 54.3056640625 116.666015625 43.3056640625 c 132,-1,97
 97.416015625 32.3056640625 97.416015625 32.3056640625 97.416015625 33.955078125 c 132,-1,98
 97.416015625 35.60546875 97.416015625 35.60546875 113.365234375 46.60546875 c 132,-1,99
 129.315429688 57.60546875 129.315429688 57.60546875 140.315429688 68.60546875 c 5,83,84
144.715820312 85.6552734375 m 132,-1,101
 144.715820312 95.005859375 144.715820312 95.005859375 138.666015625 90.0556640625 c 132,-1,102
 132.615234375 85.10546875 132.615234375 85.10546875 138.666015625 80.705078125 c 132,-1,100
 144.715820312 76.3056640625 144.715820312 76.3056640625 144.715820312 85.6552734375 c 132,-1,101
159.015625 33.4052734375 m 4,103,104
 152.416015625 33.4052734375 152.416015625 33.4052734375 151.865234375 42.755859375 c 132,-1,105
 151.315429688 52.10546875 151.315429688 52.10546875 154.615234375 54.3056640625 c 5,106,-1
 155.715820312 49.9052734375 l 5,107,108
 154.615234375 45.505859375 154.615234375 45.505859375 156.815429688 42.755859375 c 132,-1,109
 159.015625 40.005859375 159.015625 40.005859375 162.865234375 42.755859375 c 132,-1,110
 166.715820312 45.505859375 166.715820312 45.505859375 166.715820312 42.205078125 c 4,111,112
 166.715820312 33.4052734375 166.715820312 33.4052734375 159.015625 33.4052734375 c 4,103,104
94.115234375 46.60546875 m 5,113,114
 87.515625 57.60546875 87.515625 57.60546875 82.015625 59.8056640625 c 132,-1,115
 76.515625 62.005859375 76.515625 62.005859375 77.615234375 66.4052734375 c 132,-1,116
 78.7158203125 70.8056640625 78.7158203125 70.8056640625 86.416015625 64.755859375 c 132,-1,117
 94.115234375 58.705078125 94.115234375 58.705078125 94.115234375 51.005859375 c 5,118,-1
 94.115234375 46.60546875 l 5,113,114
28.666015625 57.60546875 m 132,-1,120
 27.015625 58.705078125 27.015625 58.705078125 26.4658203125 58.705078125 c 132,-1,121
 25.916015625 58.705078125 25.916015625 58.705078125 22.615234375 53.205078125 c 132,-1,122
 19.3154296875 47.705078125 19.3154296875 47.705078125 14.916015625 53.205078125 c 132,-1,123
 10.515625 58.705078125 10.515625 58.705078125 13.8154296875 63.10546875 c 132,-1,124
 17.115234375 67.505859375 17.115234375 67.505859375 20.416015625 64.205078125 c 132,-1,125
 23.7158203125 60.9052734375 23.7158203125 60.9052734375 27.015625 65.3056640625 c 132,-1,126
 30.3154296875 69.705078125 30.3154296875 69.705078125 35.8154296875 66.4052734375 c 132,-1,127
 41.3154296875 63.10546875 41.3154296875 63.10546875 38.015625 58.705078125 c 132,-1,128
 34.7158203125 54.3056640625 34.7158203125 54.3056640625 32.515625 55.4052734375 c 132,-1,119
 30.3154296875 56.505859375 30.3154296875 56.505859375 28.666015625 57.60546875 c 132,-1,120
2.8154296875 63.10546875 m 5,129,-1
 30.3154296875 87.3056640625 l 5,130,-1
 29.2158203125 89.505859375 l 4,131,132
 16.015625 100.505859375 16.015625 100.505859375 27.5654296875 104.905273438 c 132,-1,133
 39.115234375 109.305664062 39.115234375 109.305664062 39.115234375 93.9052734375 c 4,134,-1
 38.015625 92.255859375 l 4,135,136
 36.916015625 89.505859375 36.916015625 89.505859375 39.115234375 89.505859375 c 4,137,138
 41.3154296875 88.4052734375 41.3154296875 88.4052734375 38.015625 84.005859375 c 5,139,-1
 33.615234375 85.10546875 l 5,140,141
 16.015625 67.505859375 16.015625 67.505859375 2.8154296875 63.10546875 c 5,129,-1
29.765625 100.505859375 m 132,-1,143
 25.916015625 100.505859375 25.916015625 100.505859375 28.115234375 97.205078125 c 132,-1,144
 30.3154296875 93.9052734375 30.3154296875 93.9052734375 31.9658203125 93.9052734375 c 132,-1,145
 33.615234375 93.9052734375 33.615234375 93.9052734375 33.615234375 97.205078125 c 132,-1,142
 33.615234375 100.505859375 33.615234375 100.505859375 29.765625 100.505859375 c 132,-1,143
95.2158203125 66.4052734375 m 4,146,147
 95.2158203125 75.205078125 95.2158203125 75.205078125 102.916015625 73.005859375 c 5,148,149
 108.416015625 67.505859375 108.416015625 67.505859375 101.815429688 65.85546875 c 132,-1,150
 95.2158203125 64.205078125 95.2158203125 64.205078125 95.2158203125 66.4052734375 c 4,146,147
53.416015625 71.9052734375 m 5,151,152
 55.615234375 77.4052734375 55.615234375 77.4052734375 74.865234375 87.3056640625 c 132,-1,153
 94.115234375 97.205078125 94.115234375 97.205078125 95.765625 97.205078125 c 132,-1,154
 97.416015625 97.205078125 97.416015625 97.205078125 97.416015625 95.5556640625 c 132,-1,155
 97.416015625 93.9052734375 97.416015625 93.9052734375 76.515625 82.9052734375 c 132,-1,156
 55.615234375 71.9052734375 55.615234375 71.9052734375 53.416015625 71.9052734375 c 5,151,152
EndSplineSet
EndChar

StartChar: Aacute
Encoding: 193 193 17
Width: 152
VWidth: 1624
Flags: W
LayerCount: 2
Fore
SplineSet
39 85 m 1,0,-1
 42 80 l 1,1,2
 42 78 42 78 40 79 c 128,-1,3
 38 80 38 80 32 74 c 128,-1,4
 26 68 26 68 20 65 c 0,5,6
 16 63 16 63 17.5 64.5 c 128,-1,7
 19 66 19 66 26.5 73 c 0,8,-1
 34 80 l 0,9,-1
 32 82 l 0,10,11
 22 86 22 86 31.5 92 c 0,12,13
 39 96 39 96 39 85 c 1,0,-1
52 79 m 128,-1,15
 46 78 46 78 46 82 c 128,-1,16
 46 86 46 86 48 89 c 128,-1,17
 50 92 50 92 54 86 c 128,-1,14
 58 80 58 80 52 79 c 128,-1,15
80 85 m 1,18,-1
 82 80 l 1,19,20
 82 78 82 78 80 79.5 c 128,-1,21
 78 81 78 81 71 74.5 c 0,22,23
 61 65 61 65 58 64 c 0,24,25
 53 62 53 62 55.5 64 c 128,-1,26
 58 66 58 66 66 74 c 0,27,-1
 74 82 l 0,28,-1
 72 84 l 0,29,30
 61 88 61 88 73 95 c 0,31,32
 81 100 81 100 80 85 c 1,18,-1
79 48 m 1,33,34
 76 52 76 52 77 60 c 128,-1,35
 78 68 78 68 80 68 c 128,-1,36
 82 68 82 68 82 58 c 1,37,-1
 79 48 l 1,33,34
112 48 m 0,38,39
 110 50 110 50 110 54.5 c 128,-1,40
 110 59 110 59 112 60 c 1,41,-1
 114 54 l 1,42,-1
 112 48 l 0,38,39
33 51 m 0,43,44
 33 37 33 37 26.5 46 c 128,-1,45
 20 55 20 55 21 56.5 c 128,-1,46
 22 58 22 58 25.5 53.5 c 128,-1,47
 29 49 29 49 32 56.5 c 128,-1,48
 35 64 35 64 38.5 61 c 128,-1,49
 42 58 42 58 37.5 56.5 c 128,-1,50
 33 55 33 55 33 51 c 0,43,44
62 43.5 m 128,-1,52
 66 40 66 40 64 36.5 c 128,-1,53
 62 33 62 33 58.5 37 c 128,-1,54
 55 41 55 41 56.5 44 c 128,-1,51
 58 47 58 47 62 43.5 c 128,-1,52
52 2 m 1,55,56
 46 7 46 7 52 16 c 1,57,-1
 54 14 l 1,58,59
 52 9 52 9 53 6.5 c 128,-1,60
 54 4 54 4 52 2 c 1,55,56
125 -26 m 1,61,-1
 121 -16 l 0,62,63
 121 -13 121 -13 124 -11 c 1,64,65
 128 -17 128 -17 125 -26 c 1,61,-1
101 -21 m 0,66,67
 98 -17 98 -17 101 -14.5 c 128,-1,68
 104 -12 104 -12 106 -16 c 128,-1,69
 108 -20 108 -20 106 -22 c 128,-1,70
 104 -24 104 -24 101 -21 c 0,66,67
77 -28 m 1,71,72
 67 -32 67 -32 66.5 -22 c 128,-1,73
 66 -12 66 -12 72 -12 c 128,-1,74
 78 -12 78 -12 74 -18 c 128,-1,75
 70 -24 70 -24 70 -25 c 128,-1,76
 70 -26 70 -26 74 -24 c 1,77,-1
 77 -28 l 1,71,72
130 -8 m 1,78,-1
 128 9 l 1,79,80
 75 8 75 8 43 -24 c 0,81,82
 32 -35 32 -35 22 -29 c 0,83,84
 10 -20 10 -20 27 11 c 1,85,86
 17 9 17 9 16.5 15.5 c 128,-1,87
 16 22 16 22 24 28 c 128,-1,88
 32 34 32 34 34 29 c 128,-1,89
 36 24 36 24 34 22 c 128,-1,90
 32 20 32 20 30 22 c 0,91,92
 22 28 22 28 22 20 c 0,93,94
 22 18 22 18 31 18 c 128,-1,95
 40 18 40 18 40.5 16 c 128,-1,96
 41 14 41 14 31 10 c 128,-1,97
 21 6 21 6 20.5 -9 c 128,-1,98
 20 -24 20 -24 26 -24.5 c 128,-1,99
 32 -25 32 -25 48.5 -10.5 c 0,100,101
 64 4 64 4 104 14 c 1,102,-1
 72 20 l 1,103,-1
 75 25 l 1,104,-1
 98 33 l 1,105,-1
 96 84 l 1,106,-1
 97 94 l 1,107,108
 99 94 99 94 102 86 c 0,109,110
 104 78 104 78 102 77 c 1,111,-1
 100 74 l 1,112,-1
 103 26 l 1,113,-1
 94 24 l 1,114,-1
 128 20 l 1,115,-1
 124 72 l 1,116,-1
 123 90 l 1,117,118
 124 101 124 101 129 89 c 0,119,120
 134 78 134 78 130 74 c 1,121,-1
 134 20 l 1,122,-1
 141 19 l 1,123,124
 142 13 142 13 140 11 c 1,125,-1
 134 10 l 1,126,127
 133 -8 133 -8 130 -8 c 1,78,-1
EndSplineSet
EndChar

StartChar: Acircumflex
Encoding: 194 194 18
Width: 371
Flags: W
LayerCount: 2
Fore
SplineSet
182.74609375 -178.938476562 m 5,0,1
 186.646484375 -173.73828125 186.646484375 -173.73828125 199.646484375 -171.138671875 c 4,2,3
 241.24609375 -155.538085938 241.24609375 -155.538085938 254.24609375 -145.138671875 c 5,4,5
 256.845703125 -137.338867188 256.845703125 -137.338867188 263.345703125 -130.838867188 c 132,-1,6
 269.845703125 -124.338867188 269.845703125 -124.338867188 276.345703125 -132.138671875 c 4,7,8
 281.545898438 -138.638671875 281.545898438 -138.638671875 278.295898438 -145.138671875 c 132,-1,9
 275.045898438 -151.638671875 275.045898438 -151.638671875 267.24609375 -146.438476562 c 5,10,11
 260.74609375 -143.838867188 260.74609375 -143.838867188 252.295898438 -153.588867188 c 132,-1,12
 243.845703125 -163.338867188 243.845703125 -163.338867188 238.646484375 -163.338867188 c 5,13,14
 220.446289062 -172.438476562 220.446289062 -172.438476562 195.74609375 -177.638671875 c 4,15,16
 194.446289062 -177.638671875 194.446289062 -177.638671875 191.196289062 -178.938476562 c 4,17,18
 189.24609375 -180.23828125 189.24609375 -180.23828125 186.646484375 -180.23828125 c 6,19,-1
 182.74609375 -178.938476562 l 5,0,1
152.845703125 -176.338867188 m 5,20,21
 155.446289062 -168.538085938 155.446289062 -168.538085938 159.345703125 -165.938476562 c 4,22,23
 176.24609375 -155.538085938 176.24609375 -155.538085938 256.845703125 -123.038085938 c 5,24,25
 254.24609375 -132.138671875 254.24609375 -132.138671875 238.646484375 -137.338867188 c 5,26,-1
 152.845703125 -177.638671875 l 5,27,-1
 152.845703125 -176.338867188 l 5,20,21
124.24609375 -171.138671875 m 6,28,29
 119.045898438 -171.138671875 119.045898438 -171.138671875 107.345703125 -158.138671875 c 4,30,31
 104.74609375 -155.538085938 104.74609375 -155.538085938 107.345703125 -134.73828125 c 4,32,33
 107.345703125 -130.838867188 107.345703125 -130.838867188 111.24609375 -124.338867188 c 5,34,35
 113.845703125 -119.138671875 113.845703125 -119.138671875 117.74609375 -113.938476562 c 132,-1,36
 121.646484375 -108.73828125 121.646484375 -108.73828125 122.946289062 -110.038085938 c 5,37,38
 106.045898438 -145.138671875 106.045898438 -145.138671875 111.24609375 -152.938476562 c 5,39,40
 119.045898438 -171.138671875 119.045898438 -171.138671875 142.446289062 -147.73828125 c 4,41,42
 145.045898438 -145.138671875 145.045898438 -145.138671875 158.045898438 -134.73828125 c 4,43,44
 194.446289062 -103.538085938 194.446289062 -103.538085938 210.045898438 -98.3388671875 c 4,45,46
 220.446289062 -95.73828125 220.446289062 -95.73828125 230.845703125 -93.138671875 c 5,47,48
 220.446289062 -69.73828125 220.446289062 -69.73828125 243.845703125 -42.4384765625 c 4,49,50
 250.345703125 -33.3388671875 250.345703125 -33.3388671875 256.845703125 -38.5380859375 c 5,51,52
 264.646484375 -41.138671875 264.646484375 -41.138671875 268.545898438 -55.4384765625 c 132,-1,53
 272.446289062 -69.73828125 272.446289062 -69.73828125 282.845703125 -65.8388671875 c 5,54,-1
 267.24609375 26.4619140625 l 5,55,56
 269.845703125 42.0615234375 269.845703125 42.0615234375 273.74609375 36.861328125 c 5,57,58
 289.345703125 5.6611328125 289.345703125 5.6611328125 290.646484375 -2.138671875 c 5,59,60
 290.646484375 0.4619140625 290.646484375 0.4619140625 280.24609375 4.361328125 c 5,61,62
 288.045898438 -59.3388671875 288.045898438 -59.3388671875 289.345703125 -59.3388671875 c 4,63,64
 293.24609375 -61.9384765625 293.24609375 -61.9384765625 306.24609375 -47.638671875 c 5,65,66
 314.045898438 -35.9384765625 314.045898438 -35.9384765625 319.24609375 -35.9384765625 c 5,67,68
 311.446289062 -46.3388671875 311.446289062 -46.3388671875 321.845703125 -54.138671875 c 133,-1,69
 332.24609375 -61.9384765625 332.24609375 -61.9384765625 340.045898438 -54.138671875 c 4,70,71
 342.646484375 -51.5380859375 342.646484375 -51.5380859375 345.896484375 -46.3388671875 c 132,-1,72
 349.146484375 -41.138671875 349.146484375 -41.138671875 351.74609375 -37.23828125 c 5,73,74
 355.646484375 -33.3388671875 355.646484375 -33.3388671875 355.646484375 -35.9384765625 c 5,75,76
 353.045898438 -46.3388671875 353.045898438 -46.3388671875 363.446289062 -51.5380859375 c 4,77,78
 376.446289062 -59.3388671875 376.446289062 -59.3388671875 381.646484375 -51.5380859375 c 4,79,80
 384.24609375 -48.9384765625 384.24609375 -48.9384765625 376.446289062 -28.138671875 c 5,81,82
 353.045898438 17.361328125 353.045898438 17.361328125 369.946289062 34.26171875 c 5,83,84
 373.845703125 26.4619140625 373.845703125 26.4619140625 382.946289062 13.4619140625 c 4,85,86
 392.045898438 -2.138671875 392.045898438 -2.138671875 394.646484375 -4.73828125 c 5,87,88
 397.24609375 -9.9384765625 397.24609375 -9.9384765625 388.146484375 -3.4384765625 c 4,89,90
 377.74609375 3.0615234375 377.74609375 3.0615234375 382.946289062 -6.0380859375 c 5,91,92
 395.946289062 -43.73828125 395.946289062 -43.73828125 385.545898438 -60.638671875 c 5,93,94
 380.345703125 -71.0380859375 380.345703125 -71.0380859375 366.045898438 -69.73828125 c 5,95,96
 356.946289062 -67.138671875 356.946289062 -67.138671875 350.446289062 -54.138671875 c 4,97,98
 349.146484375 -51.5380859375 349.146484375 -51.5380859375 345.24609375 -58.0380859375 c 4,99,100
 337.446289062 -72.3388671875 337.446289062 -72.3388671875 333.545898438 -72.3388671875 c 5,101,102
 317.946289062 -80.138671875 317.946289062 -80.138671875 311.446289062 -56.73828125 c 5,103,104
 308.845703125 -60.638671875 308.845703125 -60.638671875 302.345703125 -65.8388671875 c 5,105,106
 294.545898438 -69.73828125 294.545898438 -69.73828125 294.545898438 -74.9384765625 c 4,107,108
 294.545898438 -77.5380859375 294.545898438 -77.5380859375 295.845703125 -87.9384765625 c 4,109,110
 298.446289062 -139.938476562 298.446289062 -139.938476562 288.045898438 -152.938476562 c 4,111,112
 284.146484375 -155.538085938 284.146484375 -155.538085938 286.74609375 -150.338867188 c 4,113,114
 290.646484375 -134.73828125 290.646484375 -134.73828125 289.345703125 -133.438476562 c 5,115,116
 289.345703125 -124.338867188 289.345703125 -124.338867188 284.146484375 -77.5380859375 c 5,117,118
 277.646484375 -77.5380859375 277.646484375 -77.5380859375 272.446289062 -77.5380859375 c 4,119,120
 267.24609375 -74.9384765625 267.24609375 -74.9384765625 260.74609375 -64.5380859375 c 4,121,-1
 254.24609375 -54.138671875 l 4,122,123
 243.845703125 -55.4384765625 243.845703125 -55.4384765625 238.646484375 -64.5380859375 c 5,124,125
 233.446289062 -69.73828125 233.446289062 -69.73828125 238.646484375 -82.73828125 c 4,126,127
 241.24609375 -87.9384765625 241.24609375 -87.9384765625 254.24609375 -93.138671875 c 4,128,129
 264.646484375 -95.73828125 264.646484375 -95.73828125 264.646484375 -106.138671875 c 132,-1,130
 264.646484375 -116.538085938 264.646484375 -116.538085938 250.345703125 -111.338867188 c 4,131,132
 243.845703125 -108.73828125 243.845703125 -108.73828125 241.24609375 -107.438476562 c 132,-1,133
 238.646484375 -106.138671875 238.646484375 -106.138671875 233.446289062 -107.438476562 c 5,134,135
 202.24609375 -107.438476562 202.24609375 -107.438476562 161.946289062 -149.038085938 c 4,136,137
 147.646484375 -164.638671875 147.646484375 -164.638671875 137.24609375 -169.838867188 c 4,138,139
 134.646484375 -171.138671875 134.646484375 -171.138671875 125.545898438 -171.138671875 c 5,140,-1
 124.24609375 -171.138671875 l 6,28,29
51.4462890625 -132.138671875 m 4,141,142
 48.845703125 -129.538085938 48.845703125 -129.538085938 46.24609375 -112.638671875 c 5,143,144
 46.24609375 -104.838867188 46.24609375 -104.838867188 52.74609375 -90.5380859375 c 4,145,-1
 59.24609375 -74.9384765625 l 5,146,147
 17.646484375 -90.5380859375 17.646484375 -90.5380859375 -5.75390625 -69.73828125 c 5,148,149
 -18.75390625 -58.0380859375 -18.75390625 -58.0380859375 -14.853515625 -4.73828125 c 4,150,151
 -13.5537109375 5.6611328125 -13.5537109375 5.6611328125 -8.353515625 6.9619140625 c 4,152,153
 -8.353515625 6.9619140625 -8.353515625 6.9619140625 -10.9541015625 1.76171875 c 4,154,155
 -26.5537109375 -33.3388671875 -26.5537109375 -33.3388671875 -0.5537109375 -54.138671875 c 133,-1,156
 25.4462890625 -74.9384765625 25.4462890625 -74.9384765625 69.646484375 -56.73828125 c 4,157,158
 124.24609375 -32.0380859375 124.24609375 -32.0380859375 121.646484375 -25.5380859375 c 4,159,160
 115.146484375 -4.73828125 115.146484375 -4.73828125 113.845703125 14.76171875 c 4,161,162
 113.845703125 25.1611328125 113.845703125 25.1611328125 119.045898438 27.76171875 c 4,163,164
 121.646484375 29.0615234375 121.646484375 29.0615234375 121.646484375 26.4619140625 c 132,-1,165
 121.646484375 23.861328125 121.646484375 23.861328125 124.24609375 21.26171875 c 5,166,167
 139.845703125 -2.138671875 139.845703125 -2.138671875 155.446289062 27.76171875 c 4,168,169
 161.946289062 39.4619140625 161.946289062 39.4619140625 176.24609375 30.361328125 c 4,170,171
 181.446289062 23.861328125 181.446289062 23.861328125 194.446289062 29.0615234375 c 5,172,-1
 191.845703125 60.26171875 l 5,173,-1
 178.845703125 55.0615234375 l 5,174,-1
 189.24609375 70.6611328125 l 5,175,-1
 174.946289062 159.061523438 l 6,176,177
 172.345703125 169.461914062 172.345703125 169.461914062 182.74609375 168.161132812 c 5,178,-1
 191.845703125 153.861328125 l 5,179,180
 199.646484375 138.26171875 199.646484375 138.26171875 197.045898438 134.361328125 c 4,181,182
 197.045898438 133.061523438 197.045898438 133.061523438 193.146484375 138.26171875 c 5,183,184
 189.24609375 140.861328125 189.24609375 140.861328125 190.545898438 133.061523438 c 4,185,186
 197.045898438 96.6611328125 197.045898438 96.6611328125 197.045898438 97.9619140625 c 132,-1,187
 197.045898438 99.26171875 197.045898438 99.26171875 204.845703125 101.861328125 c 4,188,189
 211.345703125 104.461914062 211.345703125 104.461914062 207.446289062 117.461914062 c 5,190,191
 204.845703125 133.061523438 204.845703125 133.061523438 207.446289062 135.661132812 c 5,192,193
 207.446289062 146.061523438 207.446289062 146.061523438 210.045898438 148.661132812 c 5,194,-1
 210.045898438 140.861328125 l 6,195,196
 212.646484375 109.661132812 212.646484375 109.661132812 215.24609375 110.961914062 c 5,197,198
 223.045898438 114.861328125 223.045898438 114.861328125 221.74609375 125.26171875 c 5,199,200
 221.74609375 140.861328125 221.74609375 140.861328125 224.345703125 139.561523438 c 5,201,202
 238.646484375 146.061523438 238.646484375 146.061523438 241.24609375 127.861328125 c 4,203,204
 241.24609375 120.061523438 241.24609375 120.061523438 233.446289062 117.461914062 c 5,205,206
 225.646484375 117.461914062 225.646484375 117.461914062 216.545898438 101.861328125 c 5,207,208
 219.146484375 90.1611328125 219.146484375 90.1611328125 232.146484375 91.4619140625 c 4,209,210
 243.845703125 92.76171875 243.845703125 92.76171875 245.146484375 104.461914062 c 4,211,212
 246.446289062 108.361328125 246.446289062 108.361328125 247.74609375 122.661132812 c 5,213,214
 250.345703125 135.661132812 250.345703125 135.661132812 250.345703125 142.161132812 c 5,215,216
 251.646484375 148.661132812 251.646484375 148.661132812 255.545898438 157.76171875 c 5,217,218
 262.045898438 172.061523438 262.045898438 172.061523438 264.646484375 174.661132812 c 4,219,220
 272.446289062 177.26171875 272.446289062 177.26171875 272.446289062 166.861328125 c 5,221,-1
 269.845703125 148.661132812 l 5,222,223
 262.045898438 99.26171875 262.045898438 99.26171875 284.146484375 96.6611328125 c 5,224,-1
 295.845703125 99.26171875 l 5,225,-1
 285.446289062 179.861328125 l 5,226,227
 282.845703125 208.461914062 282.845703125 208.461914062 285.446289062 208.461914062 c 132,-1,228
 288.045898438 208.461914062 288.045898438 208.461914062 290.646484375 204.561523438 c 5,229,230
 291.946289062 198.061523438 291.946289062 198.061523438 295.845703125 192.861328125 c 5,231,232
 298.446289062 185.061523438 298.446289062 185.061523438 299.74609375 185.061523438 c 5,233,-1
 303.646484375 169.461914062 l 5,234,235
 303.646484375 172.061523438 303.646484375 172.061523438 299.74609375 174.661132812 c 5,236,237
 297.146484375 177.26171875 297.146484375 177.26171875 306.24609375 101.861328125 c 5,238,239
 319.24609375 108.361328125 319.24609375 108.361328125 319.24609375 148.661132812 c 4,240,241
 319.24609375 155.161132812 319.24609375 155.161132812 316.646484375 165.561523438 c 132,-1,242
 314.045898438 175.961914062 314.045898438 175.961914062 312.74609375 181.161132812 c 5,243,244
 316.646484375 205.861328125 316.646484375 205.861328125 321.845703125 190.26171875 c 5,245,246
 327.045898438 177.26171875 327.045898438 177.26171875 329.646484375 156.461914062 c 4,247,248
 332.24609375 133.061523438 332.24609375 133.061523438 334.845703125 122.661132812 c 4,249,250
 340.045898438 109.661132812 340.045898438 109.661132812 351.74609375 105.76171875 c 5,251,252
 371.24609375 99.26171875 371.24609375 99.26171875 376.446289062 108.361328125 c 4,253,254
 379.045898438 112.26171875 379.045898438 112.26171875 375.146484375 125.26171875 c 6,255,-1
 362.146484375 161.661132812 l 6,256,257
 355.646484375 181.161132812 355.646484375 181.161132812 355.646484375 183.76171875 c 4,258,259
 355.646484375 190.26171875 355.646484375 190.26171875 362.146484375 198.061523438 c 4,260,261
 363.446289062 198.061523438 363.446289062 198.061523438 368.646484375 191.561523438 c 4,262,-1
 379.045898438 169.461914062 l 4,263,264
 371.24609375 175.961914062 371.24609375 175.961914062 371.24609375 173.361328125 c 4,265,266
 371.24609375 172.061523438 371.24609375 172.061523438 372.545898438 166.861328125 c 5,267,-1
 385.545898438 131.76171875 l 6,268,269
 385.545898438 129.161132812 385.545898438 129.161132812 384.24609375 112.26171875 c 4,270,271
 384.24609375 100.561523438 384.24609375 100.561523438 373.845703125 91.4619140625 c 5,272,273
 367.345703125 83.6611328125 367.345703125 83.6611328125 354.345703125 86.26171875 c 4,274,275
 329.646484375 88.861328125 329.646484375 88.861328125 325.74609375 122.661132812 c 5,276,277
 325.74609375 96.6611328125 325.74609375 96.6611328125 312.74609375 86.26171875 c 5,278,-1
 314.045898438 60.26171875 l 5,279,280
 314.045898438 57.6611328125 314.045898438 57.6611328125 320.545898438 58.9619140625 c 132,-1,281
 327.045898438 60.26171875 327.045898438 60.26171875 329.646484375 57.6611328125 c 5,282,283
 336.146484375 44.6611328125 336.146484375 44.6611328125 323.146484375 45.9619140625 c 4,284,285
 317.946289062 45.9619140625 317.946289062 45.9619140625 316.646484375 44.6611328125 c 4,286,287
 321.845703125 -17.73828125 321.845703125 -17.73828125 314.045898438 -28.138671875 c 133,-1,288
 306.24609375 -38.5380859375 306.24609375 -38.5380859375 308.845703125 -38.5380859375 c 5,289,290
 308.845703125 -33.3388671875 308.845703125 -33.3388671875 308.845703125 -30.73828125 c 4,291,292
 308.845703125 31.6611328125 308.845703125 31.6611328125 301.045898438 45.9619140625 c 5,293,294
 246.446289062 35.5615234375 246.446289062 35.5615234375 220.446289062 23.861328125 c 6,295,-1
 210.045898438 18.6611328125 l 5,296,297
 225.646484375 -43.73828125 225.646484375 -43.73828125 199.646484375 -63.23828125 c 4,298,299
 190.545898438 -69.73828125 190.545898438 -69.73828125 165.845703125 -77.5380859375 c 4,300,301
 142.446289062 -82.73828125 142.446289062 -82.73828125 130.74609375 -93.138671875 c 4,302,303
 121.646484375 -100.938476562 121.646484375 -100.938476562 107.345703125 -116.538085938 c 4,304,305
 85.24609375 -139.938476562 85.24609375 -139.938476562 73.5458984375 -142.538085938 c 5,306,307
 61.845703125 -147.73828125 61.845703125 -147.73828125 51.4462890625 -132.138671875 c 4,141,142
111.24609375 -91.8388671875 m 4,308,309
 132.045898438 -69.73828125 132.045898438 -69.73828125 163.24609375 -63.23828125 c 5,310,311
 199.646484375 -48.9384765625 199.646484375 -48.9384765625 204.845703125 -43.73828125 c 5,312,313
 203.545898438 -21.638671875 203.545898438 -21.638671875 197.045898438 14.76171875 c 5,314,315
 194.446289062 14.76171875 194.446289062 14.76171875 191.845703125 13.4619140625 c 4,316,317
 181.446289062 10.861328125 181.446289062 10.861328125 185.345703125 3.0615234375 c 5,318,319
 186.646484375 -4.73828125 186.646484375 -4.73828125 181.446289062 -8.638671875 c 4,320,321
 168.446289062 -22.9384765625 168.446289062 -22.9384765625 160.646484375 8.26171875 c 4,322,323
 158.045898438 21.26171875 158.045898438 21.26171875 158.045898438 22.5615234375 c 5,324,325
 142.446289062 0.4619140625 142.446289062 0.4619140625 126.845703125 3.0615234375 c 5,326,327
 129.446289062 -19.0380859375 129.446289062 -19.0380859375 119.045898438 -35.9384765625 c 5,328,329
 98.24609375 -56.73828125 98.24609375 -56.73828125 67.0458984375 -69.73828125 c 5,330,331
 48.845703125 -98.3388671875 48.845703125 -98.3388671875 51.4462890625 -119.138671875 c 4,332,333
 56.646484375 -146.438476562 56.646484375 -146.438476562 111.24609375 -91.8388671875 c 4,308,309
63.146484375 -98.3388671875 m 5,334,335
 65.74609375 -93.138671875 65.74609375 -93.138671875 70.9462890625 -89.23828125 c 132,-1,336
 76.146484375 -85.3388671875 76.146484375 -85.3388671875 85.24609375 -81.4384765625 c 132,-1,337
 94.345703125 -77.5380859375 94.345703125 -77.5380859375 98.24609375 -74.9384765625 c 4,338,339
 119.045898438 -64.5380859375 119.045898438 -64.5380859375 137.24609375 -59.3388671875 c 5,340,341
 135.946289062 -64.5380859375 135.946289062 -64.5380859375 130.095703125 -68.4384765625 c 132,-1,342
 124.24609375 -72.3388671875 124.24609375 -72.3388671875 116.446289062 -73.638671875 c 132,-1,343
 108.646484375 -74.9384765625 108.646484375 -74.9384765625 106.045898438 -77.5380859375 c 5,344,345
 98.24609375 -80.138671875 98.24609375 -80.138671875 83.2958984375 -87.9384765625 c 132,-1,346
 68.345703125 -95.73828125 68.345703125 -95.73828125 63.146484375 -98.3388671875 c 5,334,335
142.446289062 -63.23828125 m 6,347,-1
 138.545898438 -26.8388671875 l 4,348,349
 137.24609375 -22.9384765625 137.24609375 -22.9384765625 142.446289062 -15.138671875 c 4,350,351
 145.045898438 -12.5380859375 145.045898438 -12.5380859375 145.045898438 -11.23828125 c 4,352,353
 143.74609375 -9.9384765625 143.74609375 -9.9384765625 138.545898438 -12.5380859375 c 5,354,355
 138.545898438 3.0615234375 138.545898438 3.0615234375 152.845703125 -7.3388671875 c 4,356,357
 163.24609375 -15.138671875 163.24609375 -15.138671875 151.545898438 -17.73828125 c 5,358,359
 143.74609375 -17.73828125 143.74609375 -17.73828125 142.446289062 -22.9384765625 c 132,-1,360
 141.146484375 -28.138671875 141.146484375 -28.138671875 143.74609375 -37.23828125 c 132,-1,361
 146.345703125 -46.3388671875 146.345703125 -46.3388671875 145.045898438 -51.5380859375 c 4,362,363
 143.74609375 -64.5380859375 143.74609375 -64.5380859375 142.446289062 -64.5380859375 c 5,364,-1
 142.446289062 -63.23828125 l 6,347,-1
164.545898438 -51.5380859375 m 5,365,366
 159.345703125 -48.9384765625 159.345703125 -48.9384765625 158.696289062 -38.5380859375 c 4,367,-1
 158.045898438 -28.138671875 l 5,368,369
 163.24609375 -20.3388671875 163.24609375 -20.3388671875 163.24609375 -26.8388671875 c 4,370,371
 164.545898438 -43.73828125 164.545898438 -43.73828125 167.146484375 -43.73828125 c 260,372,373
 171.045898438 -45.0380859375 171.045898438 -45.0380859375 173.646484375 -42.4384765625 c 133,-1,374
 176.24609375 -39.8388671875 176.24609375 -39.8388671875 174.946289062 -33.98828125 c 132,-1,375
 173.646484375 -28.138671875 173.646484375 -28.138671875 172.99609375 -24.23828125 c 4,376,377
 173.646484375 -20.3388671875 173.646484375 -20.3388671875 176.24609375 -20.3388671875 c 5,378,379
 184.045898438 -41.138671875 184.045898438 -41.138671875 182.74609375 -41.138671875 c 4,380,381
 184.045898438 -41.138671875 184.045898438 -41.138671875 186.646484375 -37.23828125 c 5,382,383
 181.446289062 -33.3388671875 181.446289062 -33.3388671875 183.396484375 -22.2880859375 c 132,-1,384
 185.345703125 -11.23828125 185.345703125 -11.23828125 187.946289062 -25.5380859375 c 5,385,386
 195.74609375 -35.9384765625 195.74609375 -35.9384765625 189.24609375 -46.3388671875 c 4,387,388
 186.646484375 -51.5380859375 186.646484375 -51.5380859375 178.845703125 -47.638671875 c 5,389,390
 176.24609375 -42.4384765625 176.24609375 -42.4384765625 172.345703125 -48.9384765625 c 4,391,392
 168.446289062 -54.138671875 168.446289062 -54.138671875 164.545898438 -51.5380859375 c 5,365,366
204.845703125 32.9619140625 m 5,393,394
 220.446289062 39.4619140625 220.446289062 39.4619140625 239.946289062 49.861328125 c 5,395,-1
 200.946289062 62.861328125 l 5,396,-1
 204.845703125 32.9619140625 l 5,393,394
301.045898438 60.26171875 m 5,397,398
 301.045898438 70.6611328125 301.045898438 70.6611328125 298.446289062 81.0615234375 c 5,399,-1
 290.646484375 78.4619140625 l 5,400,401
 273.74609375 78.4619140625 273.74609375 78.4619140625 265.946289062 88.861328125 c 132,-1,402
 258.146484375 99.26171875 258.146484375 99.26171875 258.146484375 112.26171875 c 4,403,404
 258.146484375 122.661132812 258.146484375 122.661132812 259.446289062 135.661132812 c 4,405,406
 262.045898438 148.661132812 262.045898438 148.661132812 262.045898438 153.861328125 c 5,407,408
 255.545898438 148.661132812 255.545898438 148.661132812 250.345703125 117.461914062 c 5,409,410
 246.446289062 83.6611328125 246.446289062 83.6611328125 236.045898438 78.4619140625 c 4,411,412
 230.845703125 75.861328125 230.845703125 75.861328125 223.045898438 81.0615234375 c 4,413,414
 217.845703125 86.26171875 217.845703125 86.26171875 215.24609375 91.4619140625 c 5,415,-1
 210.045898438 100.561523438 l 5,416,417
 206.146484375 96.6611328125 206.146484375 96.6611328125 197.045898438 92.76171875 c 5,418,419
 199.646484375 77.1611328125 199.646484375 77.1611328125 200.946289062 74.5615234375 c 5,420,421
 267.24609375 48.5615234375 267.24609375 48.5615234375 298.446289062 58.9619140625 c 6,422,-1
 301.045898438 60.26171875 l 5,397,398
147.646484375 -128.23828125 m 4,423,424
 150.24609375 -117.838867188 150.24609375 -117.838867188 132.045898438 -107.438476562 c 5,425,426
 134.646484375 -87.9384765625 134.646484375 -87.9384765625 147.646484375 -106.138671875 c 4,427,428
 151.545898438 -111.338867188 151.545898438 -111.338867188 151.545898438 -116.538085938 c 5,429,430
 151.545898438 -106.138671875 151.545898438 -106.138671875 156.74609375 -97.6884765625 c 4,431,432
 161.946289062 -90.5380859375 161.946289062 -90.5380859375 169.74609375 -98.3388671875 c 5,433,434
 169.74609375 -103.538085938 169.74609375 -103.538085938 166.49609375 -104.838867188 c 132,-1,435
 163.24609375 -106.138671875 163.24609375 -106.138671875 160.646484375 -102.23828125 c 5,436,437
 158.045898438 -106.138671875 158.045898438 -106.138671875 155.446289062 -119.138671875 c 132,-1,438
 152.845703125 -132.138671875 152.845703125 -132.138671875 147.646484375 -132.138671875 c 5,439,440
 147.646484375 -129.538085938 147.646484375 -129.538085938 147.646484375 -128.23828125 c 4,423,424
319.24609375 -128.23828125 m 5,441,442
 317.946289062 -126.938476562 317.946289062 -126.938476562 309.49609375 -121.73828125 c 132,-1,443
 301.045898438 -116.538085938 301.045898438 -116.538085938 301.696289062 -114.588867188 c 132,-1,444
 302.345703125 -112.638671875 302.345703125 -112.638671875 306.24609375 -106.138671875 c 5,445,446
 311.446289062 -100.938476562 311.446289062 -100.938476562 314.045898438 -100.938476562 c 132,-1,447
 316.646484375 -100.938476562 316.646484375 -100.938476562 322.49609375 -106.138671875 c 132,-1,448
 328.345703125 -111.338867188 328.345703125 -111.338867188 330.946289062 -112.638671875 c 5,449,450
 330.946289062 -115.23828125 330.946289062 -115.23828125 327.696289062 -121.73828125 c 132,-1,451
 324.446289062 -128.23828125 324.446289062 -128.23828125 319.24609375 -128.23828125 c 5,441,442
328.345703125 -106.138671875 m 5,452,453
 330.946289062 -100.938476562 330.946289062 -100.938476562 335.49609375 -97.0380859375 c 132,-1,454
 340.045898438 -93.138671875 340.045898438 -93.138671875 347.845703125 -90.5380859375 c 132,-1,455
 355.646484375 -87.9384765625 355.646484375 -87.9384765625 358.24609375 -85.3388671875 c 4,456,457
 369.946289062 -74.9384765625 369.946289062 -74.9384765625 369.946289062 -82.73828125 c 4,458,459
 369.946289062 -85.3388671875 369.946289062 -85.3388671875 366.045898438 -87.9384765625 c 5,460,461
 363.446289062 -89.23828125 363.446289062 -89.23828125 327.045898438 -106.138671875 c 5,462,-1
 328.345703125 -106.138671875 l 5,452,453
180.146484375 -103.538085938 m 5,463,464
 181.446289062 -100.938476562 181.446289062 -100.938476562 186.646484375 -98.3388671875 c 4,465,466
 207.446289062 -85.3388671875 207.446289062 -85.3388671875 197.045898438 -80.138671875 c 5,467,468
 191.845703125 -80.138671875 191.845703125 -80.138671875 191.845703125 -78.8388671875 c 4,469,470
 193.146484375 -72.3388671875 193.146484375 -72.3388671875 204.845703125 -72.3388671875 c 4,471,472
 210.045898438 -72.3388671875 210.045898438 -72.3388671875 210.045898438 -77.5380859375 c 4,473,474
 207.446289062 -98.3388671875 207.446289062 -98.3388671875 180.146484375 -103.538085938 c 5,463,464
13.74609375 -100.938476562 m 5,475,476
 16.345703125 -95.73828125 16.345703125 -95.73828125 22.1962890625 -92.48828125 c 132,-1,477
 28.0458984375 -89.23828125 28.0458984375 -89.23828125 36.49609375 -85.98828125 c 4,478,479
 46.24609375 -82.73828125 46.24609375 -82.73828125 48.845703125 -81.4384765625 c 5,480,481
 46.24609375 -87.9384765625 46.24609375 -87.9384765625 33.896484375 -92.48828125 c 4,482,483
 22.845703125 -95.73828125 22.845703125 -95.73828125 20.24609375 -98.3388671875 c 4,484,-1
 18.2958984375 -99.638671875 l 4,485,-1
 13.74609375 -100.938476562 l 5,475,476
4.646484375 -56.73828125 m 5,486,-1
 35.845703125 -32.0380859375 l 5,487,488
 61.845703125 -12.5380859375 61.845703125 -12.5380859375 59.24609375 10.861328125 c 4,489,490
 54.0458984375 47.26171875 54.0458984375 47.26171875 54.0458984375 48.5615234375 c 5,491,492
 48.845703125 43.361328125 48.845703125 43.361328125 33.24609375 27.76171875 c 4,493,494
 12.4462890625 5.6611328125 12.4462890625 5.6611328125 7.24609375 5.6611328125 c 5,495,496
 -4.4541015625 3.0615234375 -4.4541015625 3.0615234375 -13.5537109375 13.4619140625 c 5,497,498
 -23.9541015625 21.26171875 -23.9541015625 21.26171875 -21.353515625 34.26171875 c 5,499,500
 -21.353515625 49.861328125 -21.353515625 49.861328125 5.9462890625 88.861328125 c 4,501,502
 11.146484375 96.6611328125 11.146484375 96.6611328125 42.345703125 109.661132812 c 5,503,504
 38.4462890625 101.861328125 38.4462890625 101.861328125 24.146484375 96.6611328125 c 4,505,506
 9.845703125 90.1611328125 9.845703125 90.1611328125 5.9462890625 87.5615234375 c 5,507,508
 -16.154296875 47.26171875 -16.154296875 47.26171875 -16.154296875 30.361328125 c 4,509,510
 -16.154296875 21.26171875 -16.154296875 21.26171875 -3.154296875 18.6611328125 c 4,511,512
 7.24609375 18.6611328125 7.24609375 18.6611328125 15.0458984375 25.1611328125 c 5,513,514
 22.845703125 30.361328125 22.845703125 30.361328125 34.5458984375 44.6611328125 c 5,515,516
 46.24609375 57.6611328125 46.24609375 57.6611328125 54.0458984375 64.1611328125 c 5,517,-1
 46.24609375 130.461914062 l 5,518,519
 38.4462890625 125.26171875 38.4462890625 125.26171875 22.845703125 110.961914062 c 5,520,521
 0.74609375 92.76171875 0.74609375 92.76171875 -4.4541015625 90.1611328125 c 5,522,523
 -17.4541015625 86.26171875 -17.4541015625 86.26171875 -26.5537109375 96.6611328125 c 4,524,525
 -34.353515625 107.061523438 -34.353515625 107.061523438 -31.75390625 120.061523438 c 4,526,527
 -26.5537109375 143.461914062 -26.5537109375 143.461914062 -14.853515625 148.661132812 c 5,528,529
 -29.154296875 117.461914062 -29.154296875 117.461914062 -26.5537109375 107.061523438 c 5,530,531
 -18.75390625 91.4619140625 -18.75390625 91.4619140625 7.24609375 113.561523438 c 6,532,-1
 43.646484375 143.461914062 l 5,533,-1
 34.5458984375 211.061523438 l 6,534,535
 33.24609375 222.76171875 33.24609375 222.76171875 41.0458984375 227.961914062 c 4,536,537
 43.646484375 229.26171875 43.646484375 229.26171875 43.646484375 226.661132812 c 6,538,-1
 59.24609375 177.26171875 l 5,539,540
 56.646484375 178.561523438 56.646484375 178.561523438 52.74609375 183.76171875 c 5,541,-1
 51.4462890625 179.861328125 l 5,542,-1
 56.646484375 149.961914062 l 5,543,-1
 87.845703125 164.26171875 l 5,544,545
 82.646484375 174.661132812 82.646484375 174.661132812 87.845703125 190.26171875 c 5,546,547
 93.0458984375 203.26171875 93.0458984375 203.26171875 106.045898438 211.061523438 c 4,548,549
 111.24609375 213.661132812 111.24609375 213.661132812 116.446289062 201.961914062 c 132,-1,550
 121.646484375 190.26171875 121.646484375 190.26171875 125.545898438 192.861328125 c 5,551,-1
 116.446289062 255.26171875 l 5,552,553
 113.845703125 263.061523438 113.845703125 263.061523438 121.646484375 269.561523438 c 4,554,555
 124.24609375 272.161132812 124.24609375 272.161132812 126.845703125 263.061523438 c 4,556,-1
 138.545898438 226.661132812 l 5,557,558
 133.345703125 230.561523438 133.345703125 230.561523438 131.396484375 231.861328125 c 132,-1,559
 129.446289062 233.161132812 129.446289062 233.161132812 132.045898438 225.361328125 c 4,560,561
 137.24609375 190.26171875 137.24609375 190.26171875 137.24609375 187.661132812 c 5,562,563
 171.045898438 182.461914062 171.045898438 182.461914062 210.045898438 198.061523438 c 5,564,565
 233.446289062 208.461914062 233.446289062 208.461914062 251.646484375 216.26171875 c 5,566,567
 210.045898438 231.861328125 210.045898438 231.861328125 184.045898438 222.76171875 c 5,568,569
 184.045898438 243.561523438 184.045898438 243.561523438 191.845703125 244.861328125 c 4,570,571
 199.646484375 247.461914062 199.646484375 247.461914062 217.845703125 240.961914062 c 4,572,573
 264.646484375 222.76171875 264.646484375 222.76171875 327.045898438 226.661132812 c 4,574,575
 329.646484375 226.661132812 329.646484375 226.661132812 327.045898438 218.861328125 c 4,576,577
 324.446289062 213.661132812 324.446289062 213.661132812 319.24609375 209.76171875 c 4,578,579
 319.24609375 208.461914062 319.24609375 208.461914062 308.845703125 209.76171875 c 4,580,581
 267.24609375 216.26171875 267.24609375 216.26171875 243.845703125 200.661132812 c 5,582,583
 189.24609375 172.061523438 189.24609375 172.061523438 138.545898438 175.961914062 c 5,584,585
 148.946289062 109.661132812 148.946289062 109.661132812 139.845703125 96.6611328125 c 5,586,587
 132.045898438 83.6611328125 132.045898438 83.6611328125 93.0458984375 65.4619140625 c 5,588,-1
 64.4462890625 55.0615234375 l 5,589,590
 69.646484375 -9.9384765625 69.646484375 -9.9384765625 46.24609375 -38.5380859375 c 5,591,592
 35.845703125 -51.5380859375 35.845703125 -51.5380859375 7.24609375 -59.3388671875 c 6,593,-1
 4.646484375 -59.3388671875 l 5,594,-1
 2.0458984375 -59.3388671875 l 5,595,-1
 4.646484375 -56.73828125 l 5,486,-1
91.74609375 81.0615234375 m 6,596,597
 139.845703125 99.26171875 139.845703125 99.26171875 137.24609375 114.861328125 c 6,598,-1
 126.845703125 178.561523438 l 5,599,600
 121.646484375 179.861328125 121.646484375 179.861328125 113.845703125 190.26171875 c 5,601,602
 103.446289062 200.661132812 103.446289062 200.661132812 96.9462890625 195.461914062 c 5,603,604
 85.24609375 187.661132812 85.24609375 187.661132812 93.0458984375 179.861328125 c 4,605,606
 100.845703125 166.861328125 100.845703125 166.861328125 108.646484375 166.861328125 c 4,607,608
 119.045898438 166.861328125 119.045898438 166.861328125 120.345703125 159.061523438 c 5,609,610
 121.646484375 143.461914062 121.646484375 143.461914062 116.446289062 146.061523438 c 4,611,612
 80.0458984375 156.461914062 80.0458984375 156.461914062 60.5458984375 140.861328125 c 4,613,614
 57.9462890625 138.26171875 57.9462890625 138.26171875 57.9462890625 135.661132812 c 4,615,616
 60.5458984375 91.4619140625 60.5458984375 91.4619140625 63.146484375 70.6611328125 c 5,617,-1
 91.74609375 81.0615234375 l 6,596,597
108.646484375 104.461914062 m 5,618,-1
 94.345703125 116.161132812 l 5,619,620
 87.845703125 97.9619140625 87.845703125 97.9619140625 77.4462890625 107.061523438 c 6,621,-1
 67.0458984375 117.461914062 l 5,622,623
 77.4462890625 143.461914062 77.4462890625 143.461914062 89.146484375 125.26171875 c 5,624,625
 94.345703125 117.461914062 94.345703125 117.461914062 100.845703125 126.561523438 c 4,626,627
 106.045898438 133.061523438 106.045898438 133.061523438 113.845703125 127.861328125 c 5,628,629
 124.24609375 118.76171875 124.24609375 118.76171875 117.74609375 105.76171875 c 4,630,631
 113.845703125 101.861328125 113.845703125 101.861328125 111.24609375 103.161132812 c 6,632,-1
 108.646484375 104.461914062 l 5,618,-1
59.24609375 -48.9384765625 m 5,633,634
 72.24609375 -25.5380859375 72.24609375 -25.5380859375 67.0458984375 -22.9384765625 c 5,635,636
 64.4462890625 -22.9384765625 64.4462890625 -22.9384765625 64.4462890625 -20.3388671875 c 4,637,638
 64.4462890625 -12.5380859375 64.4462890625 -12.5380859375 73.5458984375 -9.9384765625 c 4,639,640
 80.0458984375 -9.9384765625 80.0458984375 -9.9384765625 80.0458984375 -16.4384765625 c 4,641,642
 82.646484375 -35.9384765625 82.646484375 -35.9384765625 59.24609375 -48.9384765625 c 5,633,634
223.045898438 -35.9384765625 m 5,643,644
 225.646484375 -33.3388671875 225.646484375 -33.3388671875 233.446289062 -28.138671875 c 4,645,646
 243.845703125 -24.23828125 243.845703125 -24.23828125 243.845703125 -21.638671875 c 5,647,648
 238.646484375 -20.3388671875 238.646484375 -20.3388671875 219.146484375 -26.8388671875 c 5,649,650
 226.946289062 -4.73828125 226.946289062 -4.73828125 251.646484375 -9.9384765625 c 5,651,652
 256.845703125 -15.138671875 256.845703125 -15.138671875 248.396484375 -23.5888671875 c 4,653,654
 239.946289062 -30.73828125 239.946289062 -30.73828125 232.146484375 -33.3388671875 c 4,655,-1
 228.24609375 -35.2880859375 l 4,656,657
 224.345703125 -37.23828125 224.345703125 -37.23828125 223.045898438 -35.9384765625 c 5,643,644
16.345703125 -33.3388671875 m 5,658,659
 16.345703125 -25.5380859375 16.345703125 -25.5380859375 13.095703125 -18.388671875 c 132,-1,660
 9.845703125 -11.23828125 9.845703125 -11.23828125 2.0458984375 -12.5380859375 c 5,661,662
 -8.353515625 -8.638671875 -8.353515625 -8.638671875 2.0458984375 -0.8388671875 c 4,663,664
 7.24609375 3.0615234375 7.24609375 3.0615234375 12.4462890625 -3.4384765625 c 5,665,666
 20.24609375 -11.23828125 20.24609375 -11.23828125 20.24609375 -13.8388671875 c 5,667,668
 20.24609375 -12.5380859375 20.24609375 -12.5380859375 20.24609375 -7.3388671875 c 5,669,670
 17.646484375 4.361328125 17.646484375 4.361328125 30.646484375 5.6611328125 c 4,671,672
 37.146484375 5.6611328125 37.146484375 5.6611328125 35.845703125 -0.8388671875 c 4,673,674
 35.845703125 -4.73828125 35.845703125 -4.73828125 30.646484375 -3.4384765625 c 4,675,676
 24.146484375 0.4619140625 24.146484375 0.4619140625 24.146484375 -7.3388671875 c 4,677,678
 24.146484375 -9.9384765625 24.146484375 -9.9384765625 23.49609375 -16.4384765625 c 132,-1,679
 22.845703125 -22.9384765625 22.845703125 -22.9384765625 21.5458984375 -27.48828125 c 132,-1,680
 20.24609375 -32.0380859375 20.24609375 -32.0380859375 16.345703125 -32.0380859375 c 5,681,-1
 16.345703125 -33.3388671875 l 5,658,659
337.446289062 -20.3388671875 m 5,682,683
 332.24609375 -17.73828125 332.24609375 -17.73828125 332.24609375 -13.8388671875 c 132,-1,684
 332.24609375 -9.9384765625 332.24609375 -9.9384765625 334.196289062 -4.73828125 c 132,-1,685
 336.146484375 0.4619140625 336.146484375 0.4619140625 336.146484375 3.0615234375 c 5,686,687
 338.74609375 16.0615234375 338.74609375 16.0615234375 320.545898438 23.861328125 c 5,688,689
 319.24609375 39.4619140625 319.24609375 39.4619140625 332.24609375 29.0615234375 c 4,690,691
 340.045898438 22.5615234375 340.045898438 22.5615234375 340.045898438 17.361328125 c 5,692,693
 337.446289062 32.9619140625 337.446289062 32.9619140625 347.845703125 38.1611328125 c 4,694,695
 353.045898438 40.76171875 353.045898438 40.76171875 358.24609375 34.26171875 c 5,696,697
 358.24609375 25.1611328125 358.24609375 25.1611328125 347.845703125 30.361328125 c 5,698,699
 345.24609375 25.1611328125 345.24609375 25.1611328125 342.646484375 12.8115234375 c 132,-1,700
 340.045898438 0.4619140625 340.045898438 0.4619140625 336.146484375 -7.3388671875 c 4,701,702
 333.545898438 -11.23828125 333.545898438 -11.23828125 334.845703125 -12.5380859375 c 4,703,704
 334.845703125 -15.138671875 334.845703125 -15.138671875 340.045898438 -15.138671875 c 5,705,-1
 345.24609375 -12.5380859375 l 5,706,707
 345.24609375 -12.5380859375 345.24609375 -12.5380859375 340.045898438 -9.9384765625 c 4,708,709
 337.446289062 -9.9384765625 337.446289062 -9.9384765625 337.446289062 -8.638671875 c 4,710,711
 332.24609375 -7.3388671875 332.24609375 -7.3388671875 342.646484375 -4.73828125 c 5,712,713
 350.446289062 -7.3388671875 350.446289062 -7.3388671875 350.446289062 -11.23828125 c 5,714,715
 347.845703125 -22.9384765625 347.845703125 -22.9384765625 337.446289062 -20.3388671875 c 5,682,683
89.146484375 -11.23828125 m 5,716,717
 87.845703125 -9.9384765625 87.845703125 -9.9384765625 83.9462890625 -7.3388671875 c 4,718,719
 64.4462890625 4.361328125 64.4462890625 4.361328125 77.4462890625 13.4619140625 c 5,720,721
 82.646484375 18.6611328125 82.646484375 18.6611328125 90.4462890625 13.4619140625 c 132,-1,722
 98.24609375 8.26171875 98.24609375 8.26171875 100.845703125 3.0615234375 c 5,723,724
 99.5458984375 1.76171875 99.5458984375 1.76171875 97.595703125 -2.138671875 c 132,-1,725
 95.646484375 -6.0380859375 95.646484375 -6.0380859375 93.6962890625 -8.638671875 c 132,-1,726
 91.74609375 -11.23828125 91.74609375 -11.23828125 89.146484375 -11.23828125 c 5,716,717
-33.0537109375 -7.3388671875 m 5,727,728
 -44.75390625 3.0615234375 -44.75390625 3.0615234375 -34.353515625 29.0615234375 c 5,729,-1
 -27.853515625 44.6611328125 l 5,730,731
 -27.853515625 43.361328125 -27.853515625 43.361328125 -29.154296875 39.4619140625 c 4,732,733
 -39.5537109375 9.5615234375 -39.5537109375 9.5615234375 -34.353515625 0.4619140625 c 4,734,735
 -31.75390625 -2.138671875 -31.75390625 -2.138671875 -25.25390625 3.0615234375 c 5,736,737
 -23.9541015625 3.0615234375 -23.9541015625 3.0615234375 -23.9541015625 -2.138671875 c 4,738,739
 -26.5537109375 -12.5380859375 -26.5537109375 -12.5380859375 -33.0537109375 -7.3388671875 c 5,727,728
225.646484375 -3.4384765625 m 5,740,741
 217.845703125 3.0615234375 217.845703125 3.0615234375 220.446289062 8.26171875 c 4,742,743
 225.646484375 13.4619140625 225.646484375 13.4619140625 233.446289062 18.6611328125 c 5,744,745
 230.845703125 19.9619140625 230.845703125 19.9619140625 225.646484375 18.6611328125 c 4,746,747
 223.045898438 17.361328125 223.045898438 17.361328125 223.045898438 18.6611328125 c 4,748,-1
 225.646484375 23.861328125 l 5,749,750
 236.045898438 31.6611328125 236.045898438 31.6611328125 237.345703125 21.26171875 c 4,751,752
 237.345703125 16.0615234375 237.345703125 16.0615234375 232.146484375 13.4619140625 c 4,753,754
 216.545898438 5.6611328125 216.545898438 5.6611328125 225.646484375 3.0615234375 c 4,755,756
 228.24609375 3.0615234375 228.24609375 3.0615234375 230.845703125 3.0615234375 c 4,757,758
 243.845703125 3.0615234375 243.845703125 3.0615234375 262.045898438 17.361328125 c 5,759,760
 249.045898438 -6.0380859375 249.045898438 -6.0380859375 225.646484375 -3.4384765625 c 5,740,741
392.045898438 14.111328125 m 132,-1,762
 381.646484375 21.26171875 381.646484375 21.26171875 393.345703125 49.861328125 c 5,763,764
 406.345703125 81.0615234375 406.345703125 81.0615234375 395.946289062 103.161132812 c 4,765,766
 384.24609375 127.861328125 384.24609375 127.861328125 393.345703125 130.461914062 c 5,767,768
 412.845703125 99.26171875 412.845703125 99.26171875 402.446289062 69.361328125 c 4,769,770
 402.446289062 68.0615234375 402.446289062 68.0615234375 399.845703125 60.26171875 c 132,-1,771
 397.24609375 52.4619140625 397.24609375 52.4619140625 397.896484375 49.861328125 c 4,772,773
 397.24609375 47.26171875 397.24609375 47.26171875 405.045898438 44.6611328125 c 5,774,775
 415.446289062 38.1611328125 415.446289062 38.1611328125 408.946289062 23.861328125 c 4,776,761
 402.446289062 6.9619140625 402.446289062 6.9619140625 392.045898438 14.111328125 c 132,-1,762
397.24609375 23.861328125 m 5,777,778
 410.24609375 25.1611328125 410.24609375 25.1611328125 405.045898438 32.9619140625 c 4,779,780
 402.446289062 38.1611328125 402.446289062 38.1611328125 397.24609375 39.4619140625 c 5,781,782
 389.446289062 44.6611328125 389.446289062 44.6611328125 389.446289062 34.26171875 c 5,783,784
 392.045898438 26.4619140625 392.045898438 26.4619140625 397.24609375 23.861328125 c 5,777,778
-39.5537109375 31.6611328125 m 5,785,786
 -39.5537109375 38.1611328125 -39.5537109375 38.1611328125 -41.50390625 52.4619140625 c 4,787,788
 -42.154296875 66.76171875 -42.154296875 66.76171875 -42.154296875 75.861328125 c 4,789,790
 -42.154296875 78.4619140625 -42.154296875 78.4619140625 -38.25390625 83.6611328125 c 5,791,-1
 -42.154296875 84.9619140625 l 5,792,793
 -47.353515625 90.1611328125 -47.353515625 90.1611328125 -35.654296875 94.0615234375 c 4,794,795
 -30.4541015625 95.361328125 -30.4541015625 95.361328125 -26.5537109375 90.1611328125 c 5,796,797
 -20.0537109375 82.361328125 -20.0537109375 82.361328125 -31.103515625 79.111328125 c 132,-1,798
 -42.154296875 75.861328125 -42.154296875 75.861328125 -39.5537109375 70.6611328125 c 5,799,800
 -34.353515625 47.26171875 -34.353515625 47.26171875 -36.9541015625 34.26171875 c 5,801,-1
 -36.9541015625 31.6611328125 l 5,802,-1
 -39.5537109375 31.6611328125 l 5,785,786
70.9462890625 31.6611328125 m 5,803,804
 72.24609375 38.1611328125 72.24609375 38.1611328125 77.4462890625 40.76171875 c 4,805,806
 103.446289062 58.9619140625 103.446289062 58.9619140625 155.446289062 73.26171875 c 5,807,808
 154.146484375 66.76171875 154.146484375 66.76171875 148.946289062 63.51171875 c 132,-1,809
 143.74609375 60.26171875 143.74609375 60.26171875 134.646484375 57.6611328125 c 5,810,-1
 70.9462890625 31.6611328125 l 5,803,804
142.446289062 36.861328125 m 5,811,812
 143.74609375 39.4619140625 143.74609375 39.4619140625 153.49609375 49.2119140625 c 132,-1,813
 163.24609375 58.9619140625 163.24609375 58.9619140625 163.24609375 66.76171875 c 4,814,815
 165.845703125 77.1611328125 165.845703125 77.1611328125 158.696289062 95.361328125 c 132,-1,816
 151.545898438 113.561523438 151.545898438 113.561523438 150.24609375 117.461914062 c 4,817,818
 148.946289062 122.661132812 148.946289062 122.661132812 152.845703125 131.76171875 c 4,819,820
 155.446289062 140.861328125 155.446289062 140.861328125 159.345703125 140.861328125 c 5,821,822
 156.74609375 130.461914062 156.74609375 130.461914062 164.545898438 114.861328125 c 132,-1,823
 172.345703125 99.26171875 172.345703125 99.26171875 172.345703125 92.76171875 c 4,824,825
 174.946289062 57.6611328125 174.946289062 57.6611328125 150.24609375 39.4619140625 c 4,826,-1
 147.646484375 38.1611328125 l 4,827,828
 143.74609375 34.26171875 143.74609375 34.26171875 142.446289062 34.26171875 c 5,829,-1
 142.446289062 36.861328125 l 5,811,812
373.845703125 39.4619140625 m 5,830,831
 363.446289062 47.26171875 363.446289062 47.26171875 371.24609375 75.861328125 c 5,832,833
 380.345703125 94.0615234375 380.345703125 94.0615234375 382.946289062 95.361328125 c 5,834,835
 369.946289062 60.26171875 369.946289062 60.26171875 371.24609375 52.4619140625 c 4,836,837
 371.24609375 45.9619140625 371.24609375 45.9619140625 376.446289062 46.611328125 c 132,-1,838
 381.646484375 47.26171875 381.646484375 47.26171875 382.946289062 52.4619140625 c 5,839,840
 384.24609375 47.26171875 384.24609375 47.26171875 380.99609375 42.0615234375 c 4,841,842
 379.045898438 36.861328125 379.045898438 36.861328125 373.845703125 38.1611328125 c 5,843,-1
 373.845703125 39.4619140625 l 5,830,831
328.345703125 39.4619140625 m 5,844,845
 329.646484375 42.0615234375 329.646484375 42.0615234375 336.146484375 49.2119140625 c 132,-1,846
 342.646484375 56.361328125 342.646484375 56.361328125 343.946289062 59.611328125 c 132,-1,847
 345.24609375 62.861328125 345.24609375 62.861328125 340.045898438 68.0615234375 c 5,848,849
 332.24609375 65.4619140625 332.24609375 65.4619140625 334.845703125 68.0615234375 c 4,850,851
 336.146484375 79.76171875 336.146484375 79.76171875 346.545898438 79.76171875 c 4,852,853
 351.74609375 79.76171875 351.74609375 79.76171875 351.74609375 71.9619140625 c 5,854,855
 351.74609375 52.4619140625 351.74609375 52.4619140625 329.646484375 36.861328125 c 5,856,-1
 328.345703125 39.4619140625 l 5,844,845
12.4462890625 49.861328125 m 4,857,858
 7.24609375 49.861328125 7.24609375 49.861328125 7.24609375 66.76171875 c 4,859,860
 7.24609375 73.26171875 7.24609375 73.26171875 3.345703125 70.6611328125 c 5,861,-1
 -3.154296875 57.6611328125 l 5,862,863
 -4.4541015625 57.6611328125 -4.4541015625 57.6611328125 -3.154296875 62.861328125 c 5,864,865
 -3.154296875 71.9619140625 -3.154296875 71.9619140625 4.646484375 78.4619140625 c 4,866,867
 9.845703125 82.361328125 9.845703125 82.361328125 11.146484375 73.26171875 c 5,868,869
 5.9462890625 65.4619140625 5.9462890625 65.4619140625 13.74609375 60.26171875 c 4,870,871
 17.646484375 57.6611328125 17.646484375 57.6611328125 20.24609375 65.4619140625 c 5,872,873
 20.24609375 78.4619140625 20.24609375 78.4619140625 22.845703125 81.0615234375 c 5,874,875
 26.74609375 70.6611328125 26.74609375 70.6611328125 31.9462890625 65.4619140625 c 5,876,877
 25.4462890625 73.26171875 25.4462890625 73.26171875 31.9462890625 84.9619140625 c 5,878,-1
 33.24609375 81.0615234375 l 4,879,880
 37.146484375 73.26171875 37.146484375 73.26171875 36.49609375 64.1611328125 c 132,-1,881
 35.845703125 55.0615234375 35.845703125 55.0615234375 25.4462890625 57.6611328125 c 5,882,883
 22.845703125 62.861328125 22.845703125 62.861328125 20.24609375 55.0615234375 c 4,884,885
 17.646484375 48.5615234375 17.646484375 48.5615234375 12.4462890625 49.861328125 c 4,857,858
-10.9541015625 135.661132812 m 5,886,887
 -0.5537109375 143.461914062 -0.5537109375 143.461914062 3.345703125 148.661132812 c 5,888,889
 9.845703125 151.26171875 9.845703125 151.26171875 2.0458984375 153.861328125 c 4,890,891
 -3.154296875 156.461914062 -3.154296875 156.461914062 -0.5537109375 162.961914062 c 4,892,893
 4.646484375 172.061523438 4.646484375 172.061523438 13.74609375 153.861328125 c 4,894,895
 12.4462890625 151.26171875 12.4462890625 151.26171875 15.0458984375 153.861328125 c 4,896,897
 15.0458984375 155.161132812 15.0458984375 155.161132812 16.345703125 159.061523438 c 4,898,899
 16.345703125 169.461914062 16.345703125 169.461914062 22.845703125 166.861328125 c 5,900,901
 28.0458984375 162.961914062 28.0458984375 162.961914062 26.74609375 157.76171875 c 5,902,903
 20.24609375 164.26171875 20.24609375 164.26171875 17.646484375 151.26171875 c 5,904,905
 16.345703125 135.661132812 16.345703125 135.661132812 13.74609375 135.661132812 c 4,906,907
 12.4462890625 135.661132812 12.4462890625 135.661132812 9.845703125 142.161132812 c 5,908,909
 9.845703125 151.26171875 9.845703125 151.26171875 5.9462890625 144.76171875 c 4,910,911
 -0.5537109375 133.061523438 -0.5537109375 133.061523438 -9.654296875 131.76171875 c 132,-1,912
 -18.75390625 130.461914062 -18.75390625 130.461914062 -22.654296875 122.661132812 c 5,913,914
 -20.0537109375 130.461914062 -20.0537109375 130.461914062 -10.9541015625 135.661132812 c 5,886,887
332.24609375 181.161132812 m 4,915,916
 324.446289062 190.26171875 324.446289062 190.26171875 324.446289062 192.861328125 c 4,917,918
 324.446289062 198.061523438 324.446289062 198.061523438 324.446289062 205.861328125 c 4,919,920
 325.74609375 213.661132812 325.74609375 213.661132812 338.74609375 194.161132812 c 4,921,922
 341.345703125 190.26171875 341.345703125 190.26171875 342.646484375 188.961914062 c 5,923,924
 356.946289062 157.76171875 356.946289062 157.76171875 337.446289062 127.861328125 c 4,925,-1
 337.446289062 127.861328125 l 5,926,927
 345.24609375 169.461914062 345.24609375 169.461914062 332.24609375 181.161132812 c 4,915,916
210.045898438 157.76171875 m 4,928,929
 210.045898438 165.561523438 210.045898438 165.561523438 210.045898438 169.461914062 c 4,930,931
 210.045898438 174.661132812 210.045898438 174.661132812 202.24609375 169.461914062 c 4,932,933
 202.24609375 168.161132812 202.24609375 168.161132812 199.646484375 164.26171875 c 5,934,-1
 197.045898438 164.26171875 l 5,935,936
 199.646484375 177.26171875 199.646484375 177.26171875 210.045898438 177.26171875 c 4,937,938
 215.24609375 177.26171875 215.24609375 177.26171875 212.646484375 168.161132812 c 5,939,940
 207.446289062 161.661132812 207.446289062 161.661132812 216.545898438 156.461914062 c 4,941,942
 224.345703125 151.26171875 224.345703125 151.26171875 225.646484375 161.661132812 c 4,943,944
 225.646484375 164.26171875 225.646484375 164.26171875 224.345703125 169.461914062 c 132,-1,945
 223.045898438 174.661132812 223.045898438 174.661132812 222.396484375 177.26171875 c 132,-1,946
 221.74609375 179.861328125 221.74609375 179.861328125 225.646484375 181.161132812 c 5,947,948
 226.946289062 178.561523438 226.946289062 178.561523438 228.896484375 171.411132812 c 132,-1,949
 230.845703125 164.26171875 230.845703125 164.26171875 232.795898438 161.661132812 c 132,-1,950
 234.74609375 159.061523438 234.74609375 159.061523438 239.946289062 161.661132812 c 5,951,952
 233.446289062 172.061523438 233.446289062 172.061523438 238.646484375 182.461914062 c 5,953,954
 251.646484375 148.661132812 251.646484375 148.661132812 232.146484375 151.26171875 c 5,955,956
 230.845703125 157.76171875 230.845703125 157.76171875 225.646484375 152.561523438 c 5,957,958
 212.646484375 143.461914062 212.646484375 143.461914062 210.045898438 157.76171875 c 4,928,929
2.0458984375 168.161132812 m 5,959,960
 12.4462890625 191.561523438 12.4462890625 191.561523438 9.845703125 192.861328125 c 5,961,-1
 7.24609375 192.861328125 l 4,962,963
 4.646484375 195.461914062 4.646484375 195.461914062 9.845703125 200.661132812 c 4,964,965
 18.9462890625 208.461914062 18.9462890625 208.461914062 21.5458984375 198.061523438 c 5,966,967
 22.845703125 179.861328125 22.845703125 179.861328125 2.0458984375 168.161132812 c 5,959,960
68.345703125 172.061523438 m 5,968,969
 59.24609375 179.861328125 59.24609375 179.861328125 69.646484375 211.061523438 c 5,970,-1
 73.5458984375 213.661132812 l 5,971,972
 64.4462890625 192.861328125 64.4462890625 192.861328125 67.0458984375 183.76171875 c 4,973,974
 69.646484375 173.361328125 69.646484375 173.361328125 76.146484375 178.561523438 c 5,975,976
 74.845703125 169.461914062 74.845703125 169.461914062 68.345703125 172.061523438 c 5,968,969
176.24609375 200.661132812 m 5,977,978
 176.24609375 201.961914062 176.24609375 201.961914062 176.24609375 204.561523438 c 5,979,980
 204.845703125 220.161132812 204.845703125 220.161132812 208.74609375 221.461914062 c 4,981,982
 219.146484375 222.76171875 219.146484375 222.76171875 210.045898438 217.561523438 c 6,983,-1
 184.045898438 204.561523438 l 6,984,985
 178.845703125 201.961914062 178.845703125 201.961914062 176.24609375 200.661132812 c 5,977,978
155.446289062 200.661132812 m 5,986,987
 145.045898438 208.461914062 145.045898438 208.461914062 158.045898438 237.061523438 c 5,988,989
 158.045898438 252.661132812 158.045898438 252.661132812 152.845703125 257.861328125 c 5,990,991
 147.646484375 256.561523438 147.646484375 256.561523438 144.396484375 260.461914062 c 132,-1,992
 141.146484375 264.361328125 141.146484375 264.361328125 142.446289062 269.561523438 c 4,993,994
 143.74609375 276.061523438 143.74609375 276.061523438 148.946289062 276.061523438 c 5,995,996
 152.845703125 276.061523438 152.845703125 276.061523438 155.446289062 270.861328125 c 132,-1,997
 158.045898438 265.661132812 158.045898438 265.661132812 160.646484375 261.76171875 c 4,998,-1
 163.24609375 257.861328125 l 5,999,1000
 160.646484375 270.861328125 160.646484375 270.861328125 171.045898438 278.661132812 c 4,1001,1002
 178.845703125 283.861328125 178.845703125 283.861328125 184.045898438 274.76171875 c 5,1003,1004
 184.045898438 266.961914062 184.045898438 266.961914062 176.24609375 269.561523438 c 4,1005,1006
 173.646484375 270.861328125 173.646484375 270.861328125 171.045898438 270.861328125 c 5,1007,1008
 168.446289062 265.661132812 168.446289062 265.661132812 165.845703125 252.661132812 c 4,1009,1010
 163.24609375 238.361328125 163.24609375 238.361328125 158.045898438 231.861328125 c 5,1011,1012
 148.946289062 221.461914062 148.946289062 221.461914062 158.045898438 213.661132812 c 4,1013,1014
 161.946289062 208.461914062 161.946289062 208.461914062 165.845703125 216.26171875 c 5,1015,1016
 165.845703125 211.061523438 165.845703125 211.061523438 163.24609375 205.211914062 c 132,-1,1017
 160.646484375 199.361328125 160.646484375 199.361328125 155.446289062 200.661132812 c 5,1018,-1
 155.446289062 200.661132812 l 5,986,987
61.845703125 224.061523438 m 5,1019,1020
 64.4462890625 229.26171875 64.4462890625 229.26171875 76.146484375 233.161132812 c 4,1021,1022
 86.5458984375 237.061523438 86.5458984375 237.061523438 89.146484375 240.961914062 c 5,1023,1024
 74.845703125 243.561523438 74.845703125 243.561523438 59.24609375 233.161132812 c 5,1025,1026
 59.24609375 234.461914062 59.24609375 234.461914062 63.146484375 241.611328125 c 133,-1,1027
 67.0458984375 248.76171875 67.0458984375 248.76171875 72.24609375 252.661132812 c 4,1028,1029
 80.0458984375 259.161132812 80.0458984375 259.161132812 98.24609375 255.26171875 c 5,1030,1031
 106.045898438 252.661132812 106.045898438 252.661132812 100.845703125 242.26171875 c 4,1032,1033
 90.4462890625 224.061523438 90.4462890625 224.061523438 68.345703125 224.061523438 c 4,1034,1035
 61.845703125 224.061523438 61.845703125 224.061523438 61.845703125 224.061523438 c 5,1019,1020
269.845703125 242.26171875 m 5,1036,1037
 258.146484375 247.461914062 258.146484375 247.461914062 271.146484375 265.661132812 c 5,1038,1039
 269.845703125 263.061523438 269.845703125 263.061523438 277.646484375 259.161132812 c 132,-1,1040
 285.446289062 255.26171875 285.446289062 255.26171875 280.24609375 248.76171875 c 5,1041,1042
 277.646484375 242.26171875 277.646484375 242.26171875 269.845703125 242.26171875 c 5,1036,1037
275.045898438 247.461914062 m 6,1043,1044
 276.345703125 247.461914062 276.345703125 247.461914062 276.345703125 248.76171875 c 4,1045,1046
 281.545898438 250.061523438 281.545898438 250.061523438 276.345703125 252.661132812 c 4,1047,1048
 268.545898438 257.861328125 268.545898438 257.861328125 267.24609375 252.661132812 c 4,1049,1050
 265.946289062 250.061523438 265.946289062 250.061523438 269.845703125 247.461914062 c 5,1051,-1
 272.446289062 247.461914062 l 5,1052,-1
 275.045898438 247.461914062 l 6,1043,1044
219.146484375 252.661132812 m 5,1053,1054
 208.74609375 251.361328125 208.74609375 251.361328125 208.74609375 259.161132812 c 4,1055,1056
 208.74609375 269.561523438 208.74609375 269.561523438 220.446289062 270.861328125 c 5,1057,1058
 226.946289062 273.461914062 226.946289062 273.461914062 218.49609375 274.111328125 c 132,-1,1059
 210.045898438 274.76171875 210.045898438 274.76171875 217.845703125 278.661132812 c 4,1060,1061
 228.24609375 285.161132812 228.24609375 285.161132812 228.24609375 274.76171875 c 4,1062,1063
 228.24609375 270.861328125 228.24609375 270.861328125 223.045898438 268.26171875 c 133,-1,1064
 217.845703125 265.661132812 217.845703125 265.661132812 213.946289062 263.061523438 c 4,1065,1066
 211.345703125 257.861328125 211.345703125 257.861328125 216.545898438 257.861328125 c 4,1067,1068
 226.946289062 255.26171875 226.946289062 255.26171875 243.845703125 265.661132812 c 4,1069,1070
 249.045898438 268.26171875 249.045898438 268.26171875 250.345703125 268.26171875 c 5,1071,1072
 238.646484375 252.661132812 238.646484375 252.661132812 219.146484375 252.661132812 c 5,1053,1054
EndSplineSet
EndChar

StartChar: Atilde
Encoding: 195 195 19
Width: 1347
Flags: W
LayerCount: 2
Fore
SplineSet
1266.25878906 -25.6640625 m 1,0,-1
 1298.11132812 -12.8837890625 l 1,1,2
 1298.11132812 -17.29296875 1298.11132812 -17.29296875 1276.08398438 -25.0634765625 c 2,3,-1
 1266.25878906 -25.6640625 l 1,0,-1
606.776367188 -20.0693359375 m 1,4,5
 609.78515625 -16.44140625 609.78515625 -16.44140625 623.452148438 -11.4814453125 c 128,-1,6
 637.119140625 -6.51953125 637.119140625 -6.51953125 638.981445312 -8.3759765625 c 1,7,-1
 609.95703125 -22.333984375 l 1,8,-1
 606.776367188 -20.0693359375 l 1,4,5
184.571289062 -19.01171875 m 0,9,10
 126.564453125 -12.8740234375 126.564453125 -12.8740234375 92.5986328125 16.201171875 c 0,11,12
 72.0390625 33.7978515625 72.0390625 33.7978515625 66.75390625 25.23828125 c 0,13,14
 64.84765625 22.150390625 64.84765625 22.150390625 56.8466796875 23.9111328125 c 128,-1,15
 48.84375 25.66015625 48.84375 25.66015625 41.8388671875 18.6455078125 c 128,-1,16
 34.82421875 11.6298828125 34.82421875 11.6298828125 25.03125 11.693359375 c 2,17,-1
 15.236328125 11.7685546875 l 1,18,-1
 28.1064453125 18.9306640625 l 2,19,20
 40.9765625 26.087890625 40.9765625 26.087890625 40.9765625 34.6953125 c 128,-1,21
 40.9765625 43.30859375 40.9765625 43.30859375 46.2939453125 48.12109375 c 128,-1,22
 51.6162109375 52.9287109375 51.6162109375 52.9287109375 59.9658203125 45.9013671875 c 128,-1,23
 68.2958984375 38.876953125 68.2958984375 38.876953125 79.70703125 35.7763671875 c 0,24,25
 112.797851562 26.7880859375 112.797851562 26.7880859375 137.793945312 39.7138671875 c 0,26,27
 145.83984375 43.873046875 145.83984375 43.873046875 148.744140625 40.9580078125 c 0,28,29
 151.26953125 38.431640625 151.26953125 38.431640625 160.928710938 39.83984375 c 128,-1,30
 170.587890625 41.2470703125 170.587890625 41.2470703125 172.556640625 44.4306640625 c 1,31,-1
 157.89453125 52.951171875 l 2,32,33
 143.928710938 56.2646484375 143.928710938 56.2646484375 143.928710938 58.2685546875 c 128,-1,34
 143.928710938 60.2705078125 143.928710938 60.2705078125 150.4765625 64.568359375 c 128,-1,35
 157.014648438 68.8515625 157.014648438 68.8515625 170.119140625 62.236328125 c 128,-1,36
 183.217773438 55.625 183.217773438 55.625 198.94140625 52.3662109375 c 2,37,-1
 211.481445312 45.2783203125 l 1,38,39
 208.30078125 41.4384765625 208.30078125 41.4384765625 196.653320312 41.4384765625 c 128,-1,40
 185.037109375 41.4384765625 185.037109375 41.4384765625 173.284179688 36.4287109375 c 128,-1,41
 161.545898438 31.4111328125 161.545898438 31.4111328125 143.928710938 29.54296875 c 128,-1,42
 126.235351562 27.65234375 126.235351562 27.65234375 110.06640625 25.7265625 c 2,43,-1
 93.806640625 23.791015625 l 1,44,-1
 104.64453125 16.7783203125 l 2,45,46
 152.9375 -14.44140625 152.9375 -14.44140625 215.53125 -8.7509765625 c 0,47,48
 266.4140625 -5.994140625 266.4140625 -5.994140625 301.256835938 11.73828125 c 0,49,50
 319.129882812 20.8369140625 319.129882812 20.8369140625 315.8359375 32.595703125 c 0,51,52
 312.28515625 45.2626953125 312.28515625 45.2626953125 316.2109375 49.3203125 c 0,53,54
 317.298828125 50.4345703125 317.298828125 50.4345703125 322.534179688 45.69140625 c 0,55,56
 333.099609375 36.12890625 333.099609375 36.12890625 342.671875 52.328125 c 0,57,58
 347.5078125 60.5234375 347.5078125 60.5234375 359.463867188 63.720703125 c 0,59,60
 386.561523438 66.263671875 386.561523438 66.263671875 386.561523438 66.263671875 c 1,61,62
 360.076171875 74.626953125 360.076171875 74.626953125 354.8359375 75.4287109375 c 0,63,64
 351.8984375 75.439453125 351.8984375 75.439453125 347.879882812 73.7470703125 c 0,65,66
 343.75 75.5869140625 343.75 75.5869140625 348.918945312 80.7685546875 c 0,67,68
 353.418945312 85.2685546875 353.418945312 85.2685546875 363.146484375 83.970703125 c 0,69,70
 373.203125 82.62109375 373.203125 82.62109375 395.330078125 73.4345703125 c 128,-1,71
 417.45703125 64.248046875 417.45703125 64.248046875 416.659179688 61.755859375 c 2,72,-1
 364.668945312 55.79296875 l 1,73,-1
 361.946289062 53.3408203125 l 1,74,-1
 362.875976562 46.6513671875 l 2,75,76
 364.192382812 37.2109375 364.192382812 37.2109375 359.92578125 33.37890625 c 128,-1,77
 355.66015625 29.546875 355.66015625 29.546875 348.0859375 32.9931640625 c 0,78,79
 325.458984375 43.3271484375 325.458984375 43.3271484375 325.458984375 25.4111328125 c 0,80,81
 325.458984375 21.5400390625 325.458984375 21.5400390625 313.89453125 10.4931640625 c 0,82,83
 273.208007812 -28.3935546875 273.208007812 -28.3935546875 184.571289062 -19.01171875 c 0,9,10
55.87890625 38.7236328125 m 1,84,-1
 47.7490234375 38.7236328125 l 1,85,86
 49.421875 36.015625 49.421875 36.015625 53.486328125 36.015625 c 2,87,-1
 55.87890625 38.7236328125 l 1,84,-1
355.256835938 46.853515625 m 1,88,-1
 348.484375 46.853515625 l 1,89,90
 350.157226562 44.1455078125 350.157226562 44.1455078125 352.713867188 44.1455078125 c 2,91,-1
 355.256835938 46.853515625 l 1,88,-1
298.361328125 -18.3818359375 m 0,92,93
 298.361328125 -16.6279296875 298.361328125 -16.6279296875 315.297851562 -7.916015625 c 128,-1,94
 332.234375 0.7958984375 332.234375 0.7958984375 335.64453125 0.7958984375 c 1,95,-1
 320.215820312 -12.6064453125 l 2,96,97
 298.361328125 -23.62890625 298.361328125 -23.62890625 298.361328125 -18.3818359375 c 0,92,93
798.236328125 -12.80859375 m 0,98,99
 701.76171875 -8.1875 701.76171875 -8.1875 647.696289062 7.8681640625 c 0,100,101
 633.55078125 12.0634765625 633.55078125 12.0634765625 631.50390625 8.73828125 c 128,-1,102
 629.434570312 5.4140625 629.434570312 5.4140625 619.721679688 6.9912109375 c 128,-1,103
 610.005859375 8.5703125 610.005859375 8.5703125 602.05078125 0.6162109375 c 128,-1,104
 594.1015625 -7.333984375 594.1015625 -7.333984375 583.053710938 -7.333984375 c 128,-1,105
 572.006835938 -7.333984375 572.006835938 -7.333984375 572.006835938 -6.298828125 c 128,-1,106
 572.006835938 -5.2578125 572.006835938 -5.2578125 587.140625 2.1455078125 c 128,-1,107
 602.275390625 9.55078125 602.275390625 9.55078125 600.866210938 14.94921875 c 0,108,109
 597.212890625 28.9228515625 597.212890625 28.9228515625 609.048828125 37.9208984375 c 0,110,111
 613.333984375 41.18359375 613.333984375 41.18359375 622.053710938 34.53125 c 0,112,113
 693.629882812 -20.0546875 693.629882812 -20.0546875 996.01953125 2.09375 c 0,114,115
 1164.33398438 14.42578125 1164.33398438 14.42578125 1208.890625 37.470703125 c 0,116,117
 1216.15332031 41.2236328125 1216.15332031 41.2236328125 1217.52734375 41.1142578125 c 128,-1,118
 1218.90234375 41.00390625 1218.90234375 41.00390625 1218.55859375 36.69140625 c 1,119,-1
 1243.765625 35.8583984375 l 2,120,121
 1251.37402344 43.4658203125 1251.37402344 43.4658203125 1252.55664062 35.3408203125 c 1,122,-1
 1260.87402344 37.0888671875 l 1,123,-1
 1268.30664062 40.79296875 l 1,124,125
 1268.30664062 36.9921875 1268.30664062 36.9921875 1274.20605469 35.21484375 c 128,-1,126
 1280.10546875 33.439453125 1280.10546875 33.439453125 1283.46386719 36.2265625 c 0,127,128
 1291.31445312 42.7421875 1291.31445312 42.7421875 1274.24609375 59.318359375 c 0,129,130
 1264.69140625 68.595703125 1264.69140625 68.595703125 1264.69140625 76.6884765625 c 0,131,132
 1264.69140625 93.6220703125 1264.69140625 93.6220703125 1277.60644531 78.7578125 c 0,133,134
 1303.1015625 49.3876953125 1303.1015625 49.3876953125 1288.24902344 28.1708984375 c 0,135,136
 1283.80371094 21.8349609375 1283.80371094 21.8349609375 1272.109375 23.4384765625 c 128,-1,137
 1260.41503906 25.0439453125 1260.41503906 25.0439453125 1258.75097656 22.3515625 c 128,-1,138
 1257.08691406 19.650390625 1257.08691406 19.650390625 1247.11914062 19.8681640625 c 128,-1,139
 1237.08789062 20.07421875 1237.08789062 20.07421875 1228.65332031 18.30078125 c 128,-1,140
 1220.15332031 16.5244140625 1220.15332031 16.5244140625 1214.53125 19.5390625 c 128,-1,141
 1208.90625 22.5439453125 1208.90625 22.5439453125 1189.15917969 17.033203125 c 128,-1,142
 1169.46289062 11.5234375 1169.46289062 11.5234375 1131.0859375 4.8759765625 c 0,143,144
 1086.71484375 -2.8046875 1086.71484375 -2.8046875 1002.79101562 -10.146484375 c 0,145,146
 910.663085938 -18.1953125 910.663085938 -18.1953125 798.236328125 -12.80859375 c 0,98,99
616.51953125 25.388671875 m 0,147,148
 609.27734375 24.548828125 609.27734375 24.548828125 612.994140625 22.193359375 c 0,149,150
 618.0625 18.98046875 618.0625 18.98046875 619.23046875 20.0390625 c 128,-1,151
 620.3984375 21.0966796875 620.3984375 21.0966796875 616.51953125 25.388671875 c 0,147,148
465.994140625 -9.1416015625 m 1,152,153
 469.71875 -4.6259765625 469.71875 -4.6259765625 472.765625 -4.5439453125 c 128,-1,154
 475.826171875 -4.44921875 475.826171875 -4.44921875 488.80859375 1.90625 c 2,155,-1
 500.80078125 5.2138671875 l 1,156,157
 497.518554688 -4.96484375 497.518554688 -4.96484375 465.994140625 -9.1416015625 c 1,152,153
380.99609375 -7.986328125 m 0,158,159
 360.362304688 -3.0830078125 360.362304688 -3.0830078125 360.888671875 8.4306640625 c 1,160,161
 363.876953125 6.0908203125 363.876953125 6.0908203125 371.928710938 1.9365234375 c 0,162,163
 388.088867188 -6.4189453125 388.088867188 -6.4189453125 405.124023438 11.35546875 c 0,164,165
 412.529296875 19.09765625 412.529296875 19.09765625 410.7109375 28.7783203125 c 2,166,-1
 408.888671875 38.4765625 l 1,167,-1
 418.6015625 36.9013671875 l 2,168,169
 428.912109375 35.2236328125 428.912109375 35.2236328125 430.126953125 42.0625 c 128,-1,170
 431.341796875 48.90234375 431.341796875 48.90234375 425.958984375 78.3388671875 c 0,171,172
 419.880859375 111.637695312 419.880859375 111.637695312 422.606445312 116.499023438 c 128,-1,173
 425.337890625 121.358398438 425.337890625 121.358398438 427.286132812 115.943359375 c 128,-1,174
 429.237304688 110.512695312 429.237304688 110.512695312 433.263671875 105.833007812 c 128,-1,175
 437.288085938 101.138671875 437.288085938 101.138671875 434.26171875 97.5009765625 c 128,-1,176
 431.244140625 93.85546875 431.244140625 93.85546875 435.484375 71.36328125 c 0,177,178
 442.5546875 33.83984375 442.5546875 33.83984375 428.673828125 26.6640625 c 0,179,180
 421.047851562 22.720703125 421.047851562 22.720703125 417.76171875 14.783203125 c 0,181,182
 405.868164062 -13.90234375 405.868164062 -13.90234375 380.99609375 -7.986328125 c 0,158,159
1273.83398438 -3.404296875 m 128,-1,184
 1270.35546875 0.791015625 1270.35546875 0.791015625 1273.83398438 4.99609375 c 128,-1,185
 1277.3203125 9.1953125 1277.3203125 9.1953125 1281.52148438 4.99609375 c 128,-1,186
 1285.72167969 0.7958984375 1285.72167969 0.7958984375 1281.52148438 -3.404296875 c 128,-1,183
 1277.3203125 -7.60546875 1277.3203125 -7.60546875 1273.83398438 -3.404296875 c 128,-1,184
45.5361328125 1.0205078125 m 1,187,-1
 76.1962890625 14.2578125 l 1,188,189
 76.1962890625 11.7216796875 76.1962890625 11.7216796875 62.7412109375 4.90625 c 2,190,-1
 45.5361328125 1.0205078125 l 1,187,-1
189.994140625 9.5556640625 m 1,191,-1
 195.409179688 14.2509765625 l 2,192,193
 217.18359375 24.353515625 217.18359375 24.353515625 222.09375 35.3408203125 c 0,194,195
 219.233398438 38.201171875 219.233398438 38.201171875 222.138671875 43.201171875 c 0,196,197
 225.204101562 41.77734375 225.204101562 41.77734375 231.76171875 41.509765625 c 128,-1,198
 238.3203125 41.2412109375 238.3203125 41.2412109375 240.153320312 44.2060546875 c 128,-1,199
 241.861328125 46.9765625 241.861328125 46.9765625 237.18359375 75.48828125 c 128,-1,200
 232.5078125 104 232.5078125 104 235.631835938 107.124023438 c 2,201,-1
 238.758789062 106.186523438 l 2,202,203
 238.758789062 102.133789062 238.758789062 102.133789062 241.713867188 99.166015625 c 128,-1,204
 244.711914062 96.16796875 244.711914062 96.16796875 245.743164062 69.87109375 c 128,-1,205
 246.774414062 43.5751953125 246.774414062 43.5751953125 244.090820312 38.55859375 c 0,206,207
 241.282226562 33.30859375 241.282226562 33.30859375 237.37890625 33.30859375 c 128,-1,208
 233.48046875 33.30859375 233.48046875 33.30859375 229.3984375 25.41796875 c 0,209,210
 215.381835938 -1.6943359375 215.381835938 -1.6943359375 189.994140625 9.5556640625 c 1,191,-1
144.0859375 11.5361328125 m 1,211,-1
 153.74609375 21.11328125 l 2,212,213
 164.25390625 21.11328125 164.25390625 21.11328125 164.25390625 17.048828125 c 128,-1,214
 164.25390625 12.9833984375 164.25390625 12.9833984375 158.83203125 12.9833984375 c 128,-1,215
 153.40625 12.9833984375 153.40625 12.9833984375 150.57421875 11.130859375 c 128,-1,216
 147.74609375 9.2822265625 147.74609375 9.2822265625 144.0859375 11.5361328125 c 1,211,-1
512.944335938 17.5888671875 m 0,217,218
 509.688476562 20.84375 509.688476562 20.84375 509.688476562 24.3681640625 c 1,219,-1
 500.366210938 23.73828125 l 2,220,221
 495.168945312 19.8046875 495.168945312 19.8046875 487.41015625 19.8681640625 c 128,-1,222
 479.651367188 19.93359375 479.651367188 19.93359375 478.12109375 23.92578125 c 0,223,224
 475.01171875 32.017578125 475.01171875 32.017578125 496.811523438 45.87890625 c 0,225,226
 506.96484375 52.32421875 506.96484375 52.32421875 506.651367188 54.3310546875 c 0,227,228
 505.29296875 63.10546875 505.29296875 63.10546875 509.359375 63.10546875 c 0,229,230
 511.733398438 63.10546875 511.733398438 63.10546875 512.973632812 48.11328125 c 0,231,232
 514.053710938 35.0908203125 514.053710938 35.0908203125 516.9453125 31.109375 c 128,-1,233
 519.8359375 27.12890625 519.8359375 27.12890625 526.923828125 28.90625 c 0,234,235
 538.525390625 31.81640625 538.525390625 31.81640625 534.19921875 50.57421875 c 0,236,237
 531.78515625 61.0595703125 531.78515625 61.0595703125 533.944335938 66.826171875 c 1,238,239
 542.172851562 50.8994140625 542.172851562 50.8994140625 542.186523438 47.7236328125 c 128,-1,240
 542.197265625 44.640625 542.197265625 44.640625 549.309570312 39.01953125 c 128,-1,241
 556.421875 33.3984375 556.421875 33.3984375 558.603515625 34.7490234375 c 128,-1,242
 560.828125 36.125 560.828125 36.125 554.284179688 50.9033203125 c 128,-1,243
 547.74609375 65.6845703125 547.74609375 65.6845703125 549.963867188 71.6787109375 c 1,244,-1
 559.383789062 61.9365234375 l 2,245,246
 571.453125 35.580078125 571.453125 35.580078125 562.78125 23.7158203125 c 0,247,248
 558.975585938 18.5126953125 558.975585938 18.5126953125 549.813476562 22.8759765625 c 128,-1,249
 540.64453125 27.24609375 540.64453125 27.24609375 533.1484375 20.791015625 c 0,250,251
 520.563476562 9.9677734375 520.563476562 9.9677734375 512.944335938 17.5888671875 c 0,217,218
500.883789062 32.3037109375 m 0,252,253
 506.981445312 33.9404296875 506.981445312 33.9404296875 506.981445312 37.6884765625 c 1,254,-1
 500.883789062 32.3037109375 l 0,252,253
176.44140625 19.3134765625 m 1,255,256
 176.44140625 21.583984375 176.44140625 21.583984375 192.95703125 28.703125 c 1,257,-1
 176.44140625 19.3134765625 l 1,255,256
459.57421875 40.15625 m 2,258,259
 457.694335938 51.3056640625 457.694335938 51.3056640625 454.13671875 71.236328125 c 0,260,261
 447.860351562 106.456054688 447.860351562 106.456054688 455.42578125 106.456054688 c 0,262,263
 458.266601562 106.456054688 458.266601562 106.456054688 462.424804688 72.5634765625 c 128,-1,264
 466.58203125 38.6708984375 466.58203125 38.6708984375 464.25390625 34.5078125 c 1,265,-1
 459.57421875 40.15625 l 2,258,259
576.37890625 61.07421875 m 128,-1,267
 571.619140625 91.5537109375 571.619140625 91.5537109375 574.159179688 98.326171875 c 2,268,-1
 576.694335938 105.10546875 l 1,269,-1
 578.418945312 96.9765625 l 2,270,271
 592.500976562 30.59375 592.500976562 30.59375 583.159179688 30.59375 c 0,272,266
 581.125 30.59375 581.125 30.59375 576.37890625 61.07421875 c 128,-1,267
259.856445312 58.9365234375 m 0,273,274
 255.427734375 84.5771484375 255.427734375 84.5771484375 257.696289062 92.1240234375 c 1,275,276
 268.385742188 64.91015625 268.385742188 64.91015625 268.51171875 43.4638671875 c 0,277,-1
 265.72265625 34.9052734375 l 1,278,279
 263.103515625 40.1455078125 263.103515625 40.1455078125 259.856445312 58.9365234375 c 0,273,274
68.2841796875 71.19921875 m 2,280,281
 72.5693359375 77.6650390625 72.5693359375 77.6650390625 123.828125 96.9912109375 c 0,282,283
 153.064453125 108.015625 153.064453125 108.015625 169.525390625 114.09375 c 128,-1,284
 185.986328125 120.171875 185.986328125 120.171875 197.145507812 124.02734375 c 128,-1,285
 208.305664062 127.880859375 208.305664062 127.880859375 210.744140625 128.172851562 c 0,286,287
 214.375976562 121.958007812 214.375976562 121.958007812 120.903320312 86.603515625 c 0,288,289
 74.9833984375 69.23046875 74.9833984375 69.23046875 69.423828125 66.953125 c 1,290,-1
 68.2841796875 71.19921875 l 2,280,281
295.750976562 72.4736328125 m 0,291,292
 293.405273438 75.302734375 293.405273438 75.302734375 294.1484375 78.69921875 c 128,-1,293
 294.891601562 82.0947265625 294.891601562 82.0947265625 297.84375 82.0283203125 c 0,294,295
 308.291015625 81.802734375 308.291015625 81.802734375 304.938476562 73.05078125 c 0,296,297
 301.880859375 65.087890625 301.880859375 65.087890625 295.750976562 72.4736328125 c 0,291,292
327.491210938 79.4560546875 m 2,298,299
 320.203125 98.326171875 320.203125 98.326171875 325.526367188 98.326171875 c 0,300,301
 335.267578125 98.326171875 335.267578125 98.326171875 333.041015625 75.451171875 c 1,302,-1
 327.491210938 79.4560546875 l 2,298,299
198.116210938 77.92578125 m 0,303,304
 206.24609375 78.7890625 206.24609375 78.7890625 206.24609375 83.6787109375 c 2,305,-1
 209.494140625 85.328125 l 2,306,307
 215.875 78.947265625 215.875 78.947265625 217.923828125 86.8134765625 c 1,308,309
 219.79296875 77.330078125 219.79296875 77.330078125 211.32421875 75.638671875 c 0,310,311
 198.116210938 72.9921875 198.116210938 72.9921875 198.116210938 77.92578125 c 0,303,304
517.008789062 83.783203125 m 128,-1,313
 515.1171875 85.6884765625 515.1171875 85.6884765625 515.321289062 91.328125 c 2,314,-1
 516.903320312 93.5859375 l 1,315,316
 518.450195312 89.759765625 518.450195312 89.759765625 522.204101562 90.3173828125 c 128,-1,317
 525.958007812 90.876953125 525.958007812 90.876953125 526.03125 94.943359375 c 1,318,319
 536.786132812 85.625 536.786132812 85.625 536.786132812 97.1328125 c 2,320,-1
 539.494140625 102.390625 l 1,321,322
 542.33984375 100.634765625 542.33984375 100.634765625 542.1015625 95.611328125 c 128,-1,323
 541.86328125 90.5859375 541.86328125 90.5859375 538.819335938 88.1328125 c 0,324,325
 535.34765625 85.3369140625 535.34765625 85.3369140625 527.055664062 83.6826171875 c 128,-1,312
 518.764648438 82.0283203125 518.764648438 82.0283203125 517.008789062 83.783203125 c 128,-1,313
1222.24902344 95.6181640625 m 1,326,-1
 1224.95703125 98.326171875 l 1,327,-1
 1227.6640625 101.041015625 l 2,328,329
 1227.6640625 103.749023438 1227.6640625 103.749023438 1220.890625 103.749023438 c 0,330,331
 1214.78808594 103.749023438 1214.78808594 103.749023438 1214.31738281 106.23046875 c 128,-1,332
 1213.84765625 108.71484375 1213.84765625 108.71484375 1219.6015625 110.54296875 c 0,333,334
 1224.1015625 111.97265625 1224.1015625 111.97265625 1232.66113281 110.534179688 c 128,-1,335
 1241.22265625 109.09765625 1241.22265625 109.09765625 1241.171875 106.920898438 c 0,336,337
 1241.03515625 101.182617188 1241.03515625 101.182617188 1231.2265625 96.0234375 c 2,338,-1
 1222.24902344 95.6181640625 l 1,326,-1
381.311523438 99.8408203125 m 0,339,340
 382.475585938 107.014648438 382.475585938 107.014648438 386.125976562 103.98828125 c 0,341,342
 390.024414062 100.756835938 390.024414062 100.756835938 391.931640625 106.755859375 c 128,-1,343
 393.834960938 112.750976562 393.834960938 112.750976562 396.38671875 108.1953125 c 0,344,345
 398.743164062 103.98828125 398.743164062 103.98828125 401.299804688 105.227539062 c 128,-1,346
 403.856445312 106.467773438 403.856445312 106.467773438 402.124023438 110.978515625 c 1,347,348
 398.9140625 104.091796875 398.9140625 104.091796875 392.890625 96.916015625 c 0,349,350
 383.107421875 95.158203125 383.107421875 95.158203125 381.311523438 99.8408203125 c 0,339,340
507.078125 110.318359375 m 1,351,-1
 541.5859375 124.9140625 l 1,352,353
 535.58984375 106.922851562 535.58984375 106.922851562 507.078125 106.515625 c 1,354,-1
 507.078125 110.318359375 l 1,351,-1
253.840820312 114.87890625 m 1,355,356
 255.328125 117.29296875 255.328125 117.29296875 259.48828125 117.29296875 c 128,-1,357
 263.641601562 117.29296875 263.641601562 117.29296875 270.625976562 122.791015625 c 128,-1,358
 277.6171875 128.288085938 277.6171875 128.288085938 280.481445312 125.423828125 c 1,359,360
 270.021484375 116.853515625 270.021484375 116.853515625 264.903320312 112.845703125 c 2,361,-1
 253.840820312 114.87890625 l 1,355,356
276.686523438 120.000976562 m 1,362,-1
 275.494140625 122.715820312 l 1,363,-1
 272.62109375 120.000976562 l 1,364,-1
 276.686523438 120.000976562 l 1,362,-1
312.00390625 115.63671875 m 1,365,-1
 341.7109375 128.026367188 l 1,366,367
 341.7109375 125.51171875 341.7109375 125.51171875 328.256835938 118.6953125 c 2,368,-1
 312.00390625 115.63671875 l 1,365,-1
565.931640625 126.1953125 m 1,369,370
 570.307617188 131.03515625 570.307617188 131.03515625 573.611328125 129.765625 c 128,-1,371
 576.91796875 128.495117188 576.91796875 128.495117188 581.651367188 133.733398438 c 0,372,373
 591.6328125 144.750976562 591.6328125 144.750976562 595.451171875 134.805664062 c 0,374,375
 597.762695312 128.76953125 597.762695312 128.76953125 591.495117188 124.55859375 c 128,-1,376
 585.2265625 120.34765625 585.2265625 120.34765625 574.6015625 120.803710938 c 2,377,-1
 565.931640625 126.1953125 l 1,369,370
590.973632812 129.32421875 m 0,378,379
 590.973632812 131.471679688 590.973632812 131.471679688 588.178710938 132.1171875 c 128,-1,380
 585.3828125 132.76171875 585.3828125 132.76171875 584.223632812 130.8828125 c 1,381,-1
 590.973632812 129.32421875 l 0,378,379
376.931640625 126.353515625 m 1,382,-1
 412.159179688 141.69140625 l 1,383,384
 412.159179688 133.711914062 412.159179688 133.711914062 379.646484375 124.125976562 c 2,385,-1
 376.931640625 126.353515625 l 1,382,-1
441.95703125 124.786132812 m 1,386,387
 441.95703125 133.553710938 441.95703125 133.553710938 453.798828125 133.553710938 c 0,388,389
 459.1484375 133.553710938 459.1484375 133.553710938 463.999023438 137.94140625 c 0,390,391
 468.375 141.90625 468.375 141.90625 472.999023438 140.560546875 c 128,-1,392
 477.622070312 139.21484375 477.622070312 139.21484375 476.666015625 134.2578125 c 0,393,394
 473.08203125 115.637695312 473.08203125 115.637695312 456.265625 125.048828125 c 0,395,396
 451.573242188 127.671875 451.573242188 127.671875 441.95703125 124.786132812 c 1,386,387
470.403320312 133.553710938 m 0,397,398
 466.670898438 136.26171875 466.670898438 136.26171875 464.98828125 133.553710938 c 0,399,400
 468.739257812 130.838867188 468.739257812 130.838867188 470.403320312 133.553710938 c 0,397,398
354.58203125 133.786132812 m 1,401,402
 358.609375 138.015625 358.609375 138.015625 357.66015625 140.041015625 c 128,-1,403
 356.7109375 142.067382812 356.7109375 142.067382812 351.19921875 141.015625 c 128,-1,404
 345.658203125 139.95703125 345.658203125 139.95703125 344.767578125 141.357421875 c 128,-1,405
 343.876953125 142.755859375 343.876953125 142.755859375 347.673828125 146.55859375 c 0,406,407
 355.791015625 154.67578125 355.791015625 154.67578125 367.609375 145.90625 c 0,408,409
 372.8671875 142.0078125 372.8671875 142.0078125 368.80859375 138.068359375 c 128,-1,410
 364.75390625 134.13671875 364.75390625 134.13671875 357.971679688 132.180664062 c 2,411,-1
 354.58203125 133.786132812 l 1,401,402
EndSplineSet
EndChar

StartChar: Igrave
Encoding: 204 204 28
Width: 302
VWidth: 134
Flags: W
LayerCount: 2
Fore
SplineSet
279.7890625 78.138671875 m 2,0,-1
 272.416015625 82.74609375 l 1,1,2
 278.8671875 11.783203125 l 1,3,4
 278.8671875 7.17578125 278.8671875 7.17578125 275.181640625 2.5673828125 c 1,5,-1
 272.416015625 2.5673828125 l 1,6,-1
 263.200195312 94.7275390625 l 1,7,8
 264.12109375 105.786132812 264.12109375 105.786132812 266.88671875 103.943359375 c 0,9,10
 273.336914062 95.6494140625 273.336914062 95.6494140625 277.024414062 87.3544921875 c 256,11,12
 279.7890625 78.138671875 l 2,0,-1
210.668945312 83.66796875 m 2,13,-1
 229.1015625 89.197265625 l 2,14,15
 230.022460938 89.197265625 230.022460938 89.197265625 233.708984375 87.3544921875 c 1,16,17
 233.708984375 83.66796875 233.708984375 83.66796875 215.27734375 75.3740234375 c 0,18,19
 195.922851562 67.0791015625 195.922851562 67.0791015625 194.080078125 67.0791015625 c 0,20,21
 189.47265625 67.0791015625 189.47265625 67.0791015625 191.315429688 72.609375 c 1,22,-1
 199.609375 78.138671875 l 1,23,24
 203.295898438 79.9814453125 203.295898438 79.9814453125 203.295898438 85.05078125 c 128,-1,25
 203.295898438 90.119140625 203.295898438 90.119140625 200.53125 97.9521484375 c 128,-1,26
 197.766601562 105.786132812 197.766601562 105.786132812 199.609375 105.786132812 c 0,27,28
 208.826171875 105.786132812 208.826171875 105.786132812 208.826171875 94.7275390625 c 128,-1,29
 208.826171875 83.66796875 208.826171875 83.66796875 210.668945312 83.66796875 c 2,13,-1
221.267578125 59.7060546875 m 128,-1,31
 229.1015625 59.7060546875 229.1015625 59.7060546875 229.1015625 53.7158203125 c 128,-1,32
 229.1015625 47.7255859375 229.1015625 47.7255859375 221.267578125 47.7255859375 c 128,-1,33
 213.43359375 47.7255859375 213.43359375 47.7255859375 213.43359375 53.7158203125 c 128,-1,30
 213.43359375 59.7060546875 213.43359375 59.7060546875 221.267578125 59.7060546875 c 128,-1,31
236.473632812 2.5673828125 m 1,34,-1
 222.649414062 5.33203125 l 2,35,36
 220.806640625 5.33203125 220.806640625 5.33203125 210.668945312 1.6455078125 c 0,37,38
 183.021484375 -6.6494140625 183.021484375 -6.6494140625 180.255859375 12.705078125 c 0,39,40
 176.569335938 31.13671875 176.569335938 31.13671875 176.569335938 50.490234375 c 0,41,42
 176.569335938 68.9228515625 176.569335938 68.9228515625 175.647460938 85.5107421875 c 2,43,-1
 172.8828125 97.4921875 l 1,44,45
 172.8828125 103.943359375 172.8828125 103.943359375 175.1875 104.404296875 c 129,-1,46
 177.491210938 104.864257812 177.491210938 104.864257812 180.255859375 97.4921875 c 0,47,48
 182.098632812 91.962890625 182.098632812 91.962890625 183.021484375 78.138671875 c 0,49,50
 183.021484375 64.314453125 183.021484375 64.314453125 184.864257812 53.2548828125 c 2,51,-1
 186.70703125 31.13671875 l 2,52,53
 188.55078125 9.0185546875 188.55078125 9.0185546875 198.227539062 9.478515625 c 128,-1,54
 207.904296875 9.9404296875 207.904296875 9.9404296875 208.826171875 14.5478515625 c 1,55,56
 208.826171875 16.390625 208.826171875 16.390625 209.747070312 20.9990234375 c 128,-1,57
 210.668945312 25.607421875 210.668945312 25.607421875 217.120117188 32.05859375 c 0,58,59
 224.4921875 38.509765625 224.4921875 38.509765625 231.866210938 39.4306640625 c 0,60,61
 240.16015625 39.4306640625 240.16015625 39.4306640625 238.31640625 29.2939453125 c 0,62,63
 237.395507812 15.4697265625 237.395507812 15.4697265625 237.395507812 14.5478515625 c 0,64,-1
 242.924804688 14.5478515625 l 0,65,66
 248.454101562 14.5478515625 248.454101562 14.5478515625 247.532226562 20.9990234375 c 2,67,-1
 238.31640625 95.6494140625 l 1,68,69
 238.31640625 108.55078125 238.31640625 108.55078125 241.08203125 105.786132812 c 0,70,71
 250.296875 96.5703125 250.296875 96.5703125 252.141601562 89.197265625 c 0,72,-1
 254.90625 80.9033203125 l 2,73,-1
 248.454101562 83.66796875 l 1,74,-1
 254.90625 24.685546875 l 1,75,76
 254.90625 2.5673828125 254.90625 2.5673828125 236.473632812 2.5673828125 c 1,34,-1
204.216796875 36.666015625 m 1,77,78
 200.53125 34.8232421875 200.53125 34.8232421875 196.384765625 34.8232421875 c 128,-1,79
 192.237304688 34.8232421875 192.237304688 34.8232421875 192.237304688 42.1953125 c 0,80,81
 191.315429688 48.6474609375 191.315429688 48.6474609375 195.001953125 55.0986328125 c 1,82,-1
 198.6875 55.0986328125 l 2,83,-1
 198.6875 49.5693359375 l 0,84,85
 198.6875 44.0390625 198.6875 44.0390625 204.216796875 40.3525390625 c 1,86,-1
 204.216796875 36.666015625 l 1,77,78
153.529296875 88.275390625 m 1,87,88
 162.74609375 88.275390625 162.74609375 88.275390625 162.74609375 81.3642578125 c 128,-1,89
 162.74609375 74.4521484375 162.74609375 74.4521484375 159.05859375 74.4521484375 c 0,90,91
 155.372070312 73.5302734375 155.372070312 73.5302734375 148 80.9033203125 c 1,92,93
 143.392578125 76.294921875 143.392578125 76.294921875 137.86328125 76.294921875 c 128,-1,94
 132.33203125 76.294921875 132.33203125 76.294921875 132.33203125 82.74609375 c 128,-1,95
 132.33203125 89.197265625 132.33203125 89.197265625 137.86328125 89.197265625 c 0,96,97
 142.470703125 89.197265625 142.470703125 89.197265625 147.078125 85.5107421875 c 1,98,-1
 153.529296875 88.275390625 l 1,87,88
136.94140625 103.943359375 m 1,99,100
 135.09765625 100.256835938 135.09765625 100.256835938 110.67578125 93.8056640625 c 128,-1,101
 86.2529296875 87.3544921875 86.2529296875 87.3544921875 84.87109375 82.2861328125 c 128,-1,102
 83.48828125 77.216796875 83.48828125 77.216796875 80.72265625 77.216796875 c 128,-1,103
 77.9580078125 77.216796875 77.9580078125 77.216796875 77.9580078125 83.20703125 c 128,-1,104
 77.9580078125 89.197265625 77.9580078125 89.197265625 101.919921875 98.8740234375 c 128,-1,105
 125.881835938 108.55078125 125.881835938 108.55078125 129.567382812 108.55078125 c 128,-1,106
 133.25390625 108.55078125 133.25390625 108.55078125 136.94140625 105.786132812 c 1,107,-1
 136.94140625 103.943359375 l 1,99,100
106.52734375 68.0009765625 m 1,108,109
 112.057617188 63.392578125 112.057617188 63.392578125 111.596679688 60.6279296875 c 128,-1,110
 111.135742188 57.86328125 111.135742188 57.86328125 106.067382812 57.86328125 c 128,-1,111
 100.998046875 57.86328125 100.998046875 57.86328125 100.998046875 62.470703125 c 0,112,113
 100.998046875 76.294921875 100.998046875 76.294921875 103.762695312 76.294921875 c 129,-1,114
 106.52734375 76.294921875 106.52734375 76.294921875 106.52734375 68.0009765625 c 1,108,109
135.09765625 -1.119140625 m 1,115,-1
 134.17578125 2.5673828125 l 1,116,117
 159.05859375 13.6259765625 159.05859375 13.6259765625 162.74609375 14.087890625 c 128,-1,118
 166.432617188 14.5478515625 166.432617188 14.5478515625 168.275390625 10.861328125 c 1,119,120
 167.353515625 9.0185546875 167.353515625 9.0185546875 156.293945312 3.4892578125 c 0,121,122
 146.157226562 -2.041015625 146.157226562 -2.041015625 141.548828125 -1.119140625 c 2,123,-1
 135.09765625 -1.119140625 l 1,115,-1
118.508789062 39.4306640625 m 1,124,-1
 171.961914062 28.3720703125 l 1,125,-1
 171.961914062 23.7646484375 l 1,126,127
 168.275390625 21.9208984375 168.275390625 21.9208984375 166.432617188 20.9990234375 c 2,128,-1
 148.921875 21.9208984375 l 1,129,130
 77.037109375 -2.041015625 77.037109375 -2.041015625 72.4287109375 16.390625 c 0,131,132
 70.5859375 25.607421875 70.5859375 25.607421875 63.212890625 25.607421875 c 0,133,134
 58.6044921875 25.607421875 58.6044921875 25.607421875 49.849609375 12.705078125 c 128,-1,135
 41.09375 -0.197265625 41.09375 -0.197265625 35.564453125 -0.197265625 c 2,136,-1
 30.95703125 -0.197265625 l 1,137,138
 22.6630859375 3.4892578125 22.6630859375 3.4892578125 21.7412109375 19.1552734375 c 0,139,-1
 19.8974609375 36.666015625 l 2,140,-1
 16.2109375 50.490234375 l 1,141,142
 16.2109375 68.9228515625 16.2109375 68.9228515625 24.505859375 78.5986328125 c 128,-1,143
 32.7998046875 88.275390625 32.7998046875 88.275390625 34.6435546875 88.275390625 c 1,144,-1
 34.6435546875 87.3544921875 l 1,145,-1
 25.427734375 67.0791015625 l 1,146,147
 23.583984375 57.86328125 23.583984375 57.86328125 25.427734375 50.490234375 c 0,148,149
 27.2705078125 45.8828125 27.2705078125 45.8828125 30.95703125 48.6474609375 c 0,150,151
 37.408203125 53.2548828125 37.408203125 53.2548828125 38.3291015625 48.6474609375 c 128,-1,152
 39.2509765625 44.0390625 39.2509765625 44.0390625 28.1923828125 32.05859375 c 1,153,154
 28.1923828125 27.4501953125 28.1923828125 27.4501953125 26.3486328125 25.607421875 c 0,155,156
 25.427734375 10.861328125 25.427734375 10.861328125 32.7998046875 10.861328125 c 0,157,158
 39.2509765625 9.9404296875 39.2509765625 9.9404296875 48.4677734375 23.7646484375 c 256,159,160
 57.68359375 37.587890625 57.68359375 37.587890625 64.1337890625 36.666015625 c 256,161,162
 70.5859375 38.509765625 70.5859375 38.509765625 74.2724609375 31.13671875 c 0,163,164
 79.8017578125 17.3125 79.8017578125 17.3125 101.919921875 19.1552734375 c 0,165,166
 124.959960938 20.9990234375 124.959960938 20.9990234375 136.94140625 26.529296875 c 1,167,168
 114.823242188 30.21484375 114.823242188 30.21484375 113.901367188 30.21484375 c 0,169,170
 95.46875 32.05859375 95.46875 32.05859375 95.46875 36.666015625 c 0,171,172
 96.390625 40.3525390625 96.390625 40.3525390625 101.919921875 43.1171875 c 1,173,-1
 111.135742188 44.0390625 l 2,174,175
 124.038085938 45.8828125 124.038085938 45.8828125 134.17578125 56.94140625 c 0,176,177
 145.235351562 67.0791015625 145.235351562 67.0791015625 152.147460938 67.0791015625 c 128,-1,178
 159.05859375 67.0791015625 159.05859375 67.0791015625 159.05859375 56.4814453125 c 128,-1,179
 159.05859375 45.8828125 159.05859375 45.8828125 154.451171875 45.8828125 c 1,180,-1
 148 54.1767578125 l 1,181,-1
 118.508789062 39.4306640625 l 1,124,-1
72.4287109375 64.314453125 m 1,182,183
 80.72265625 64.314453125 80.72265625 64.314453125 80.72265625 58.78515625 c 128,-1,184
 80.72265625 53.2548828125 80.72265625 53.2548828125 77.037109375 53.2548828125 c 1,185,-1
 67.8212890625 56.94140625 l 1,186,-1
 62.291015625 54.1767578125 l 1,187,188
 53.0751953125 54.1767578125 53.0751953125 54.1767578125 53.0751953125 59.24609375 c 128,-1,189
 53.0751953125 64.314453125 53.0751953125 64.314453125 57.68359375 64.314453125 c 1,190,-1
 65.0556640625 62.470703125 l 1,191,-1
 72.4287109375 64.314453125 l 1,182,183
54.91796875 -1.119140625 m 1,192,193
 54.91796875 -2.041015625 54.91796875 -2.041015625 56.76171875 -3.884765625 c 0,194,195
 56.76171875 -8.4921875 56.76171875 -8.4921875 38.3291015625 -14.943359375 c 0,196,197
 24.505859375 -19.55078125 24.505859375 -19.55078125 21.7412109375 -19.55078125 c 128,-1,198
 18.9755859375 -19.55078125 18.9755859375 -19.55078125 18.9755859375 -16.7861328125 c 256,199,200
 18.9755859375 -14.943359375 18.9755859375 -14.943359375 20.818359375 -12.1787109375 c 1,201,202
 30.03515625 -10.3349609375 30.03515625 -10.3349609375 53.0751953125 -1.119140625 c 1,203,-1
 54.91796875 -1.119140625 l 1,192,193
231.866210938 24.685546875 m 1,204,205
 230.022460938 26.529296875 230.022460938 26.529296875 224.954101562 26.529296875 c 128,-1,206
 219.884765625 26.529296875 219.884765625 26.529296875 217.120117188 20.0771484375 c 1,207,208
 221.727539062 15.4697265625 221.727539062 15.4697265625 224.954101562 15.4697265625 c 128,-1,209
 228.178710938 15.4697265625 228.178710938 15.4697265625 231.866210938 24.685546875 c 1,204,205
EndSplineSet
EndChar

StartChar: Iacute
Encoding: 205 205 29
Width: 204
VWidth: 134
Flags: W
LayerCount: 2
Fore
SplineSet
34.60546875 101.135742188 m 5,0,1
 43.8212890625 92.8408203125 43.8212890625 92.8408203125 43.8212890625 90.5380859375 c 132,-1,2
 43.8212890625 88.2333984375 43.8212890625 88.2333984375 36.44921875 85.46875 c 5,3,-1
 29.0751953125 91.919921875 l 5,4,-1
 19.8603515625 86.390625 l 5,5,6
 13.4091796875 90.076171875 13.4091796875 90.076171875 12.4873046875 93.7626953125 c 4,7,8
 12.4873046875 95.6064453125 12.4873046875 95.6064453125 19.8603515625 100.21484375 c 5,9,-1
 26.310546875 94.6845703125 l 5,10,-1
 34.60546875 101.135742188 l 5,0,1
189.43359375 23.720703125 m 5,11,-1
 189.43359375 17.2705078125 l 5,12,13
 189.43359375 4.3681640625 189.43359375 4.3681640625 184.826171875 0.681640625 c 5,14,15
 182.983398438 0.681640625 182.983398438 0.681640625 180.21875 19.11328125 c 4,16,17
 179.296875 37.5458984375 179.296875 37.5458984375 175.610351562 68.8798828125 c 6,18,-1
 172.845703125 90.998046875 l 5,19,20
 172.845703125 99.29296875 172.845703125 99.29296875 176.532226562 99.7529296875 c 132,-1,21
 180.21875 100.21484375 180.21875 100.21484375 184.826171875 91.458984375 c 132,-1,22
 189.43359375 82.7041015625 189.43359375 82.7041015625 189.43359375 80.3994140625 c 132,-1,23
 189.43359375 78.095703125 189.43359375 78.095703125 184.826171875 76.2529296875 c 5,24,-1
 183.904296875 71.64453125 l 5,25,26
 183.904296875 73.48828125 183.904296875 73.48828125 186.668945312 51.830078125 c 132,-1,27
 189.43359375 30.1728515625 189.43359375 30.1728515625 189.43359375 23.720703125 c 5,11,-1
130.452148438 83.6259765625 m 5,28,-1
 137.82421875 76.2529296875 l 5,29,30
 137.82421875 69.80078125 137.82421875 69.80078125 130.452148438 69.3408203125 c 132,-1,31
 123.079101562 68.8798828125 123.079101562 68.8798828125 123.079101562 80.861328125 c 4,32,33
 122.157226562 91.919921875 122.157226562 91.919921875 128.609375 93.7626953125 c 5,34,35
 132.294921875 92.8408203125 132.294921875 92.8408203125 132.294921875 89.1552734375 c 6,36,-1
 130.452148438 83.6259765625 l 5,28,-1
115.706054688 49.5263671875 m 5,37,38
 133.216796875 60.5859375 133.216796875 60.5859375 141.97265625 62.4287109375 c 132,-1,39
 150.727539062 64.271484375 150.727539062 64.271484375 150.727539062 59.6640625 c 132,-1,40
 150.727539062 55.056640625 150.727539062 55.056640625 134.598632812 49.5263671875 c 132,-1,41
 118.470703125 43.99609375 118.470703125 43.99609375 115.706054688 45.83984375 c 5,42,-1
 115.706054688 49.5263671875 l 5,37,38
62.25390625 61.5068359375 m 5,43,44
 62.25390625 56.8994140625 62.25390625 56.8994140625 58.1064453125 55.9775390625 c 132,-1,45
 53.958984375 55.056640625 53.958984375 55.056640625 53.958984375 61.5068359375 c 4,46,47
 53.958984375 75.3310546875 53.958984375 75.3310546875 82.0673828125 87.7734375 c 132,-1,48
 110.176757812 100.21484375 110.176757812 100.21484375 114.78515625 100.21484375 c 132,-1,49
 119.392578125 100.21484375 119.392578125 100.21484375 119.392578125 97.4501953125 c 132,-1,50
 119.392578125 94.6845703125 119.392578125 94.6845703125 109.254882812 90.998046875 c 4,51,52
 76.0771484375 79.939453125 76.0771484375 79.939453125 61.33203125 67.9580078125 c 5,53,-1
 62.25390625 61.5068359375 l 5,43,44
101.8828125 76.2529296875 m 5,54,55
 111.098632812 67.9580078125 111.098632812 67.9580078125 111.098632812 65.193359375 c 132,-1,56
 111.098632812 62.4287109375 111.098632812 62.4287109375 104.647460938 58.7421875 c 5,57,-1
 96.3525390625 67.0361328125 l 5,58,-1
 87.13671875 59.6640625 l 5,59,60
 80.685546875 64.271484375 80.685546875 64.271484375 80.685546875 68.8798828125 c 4,61,62
 80.685546875 70.72265625 80.685546875 70.72265625 87.13671875 74.41015625 c 5,63,-1
 94.509765625 68.8798828125 l 5,64,-1
 101.8828125 76.2529296875 l 5,54,55
148.884765625 90.998046875 m 6,65,66
 148.884765625 91.919921875 148.884765625 91.919921875 148.884765625 96.0673828125 c 132,-1,67
 148.884765625 100.21484375 148.884765625 100.21484375 153.03125 100.21484375 c 132,-1,68
 157.178710938 100.21484375 157.178710938 100.21484375 161.786132812 91.458984375 c 132,-1,69
 166.39453125 82.7041015625 166.39453125 82.7041015625 166.39453125 80.3994140625 c 132,-1,70
 166.39453125 78.095703125 166.39453125 78.095703125 164.55078125 77.1748046875 c 6,71,-1
 161.786132812 76.2529296875 l 5,72,-1
 159.943359375 71.64453125 l 5,73,-1
 161.786132812 61.5068359375 l 6,74,75
 163.62890625 53.212890625 163.62890625 53.212890625 164.55078125 45.83984375 c 6,76,-1
 166.39453125 25.564453125 l 5,77,78
 166.39453125 1.6025390625 166.39453125 1.6025390625 148.884765625 1.6025390625 c 4,79,80
 139.66796875 1.6025390625 139.66796875 1.6025390625 133.216796875 10.8193359375 c 5,81,82
 122.157226562 0.681640625 122.157226562 0.681640625 111.098632812 0.681640625 c 4,83,84
 97.2744140625 0.681640625 97.2744140625 0.681640625 90.8232421875 7.1328125 c 132,-1,85
 84.3720703125 13.583984375 84.3720703125 13.583984375 82.529296875 13.583984375 c 132,-1,86
 80.685546875 13.583984375 80.685546875 13.583984375 76.0771484375 11.279296875 c 132,-1,87
 71.4697265625 8.9765625 71.4697265625 8.9765625 63.17578125 7.1328125 c 4,88,89
 53.037109375 5.2900390625 53.037109375 5.2900390625 41.056640625 -3.9267578125 c 4,90,91
 29.0751953125 -14.0634765625 29.0751953125 -14.0634765625 21.703125 -13.142578125 c 4,92,93
 12.4873046875 -12.220703125 12.4873046875 -12.220703125 11.56640625 -1.162109375 c 5,94,-1
 15.251953125 17.2705078125 l 5,95,96
 17.095703125 18.19140625 17.095703125 18.19140625 16.173828125 32.9375 c 4,97,98
 15.251953125 43.99609375 15.251953125 43.99609375 24.4677734375 49.5263671875 c 5,99,-1
 24.4677734375 49.5263671875 l 5,100,-1
 11.56640625 63.3505859375 l 5,101,102
 11.56640625 69.80078125 11.56640625 69.80078125 16.173828125 69.3408203125 c 132,-1,103
 20.78125 68.8798828125 20.78125 68.8798828125 24.4677734375 65.193359375 c 4,104,105
 28.154296875 62.4287109375 28.154296875 62.4287109375 29.0751953125 59.6640625 c 5,106,-1
 30.9189453125 59.6640625 l 5,107,108
 34.60546875 64.271484375 34.60546875 64.271484375 41.056640625 70.72265625 c 5,109,-1
 44.7431640625 70.72265625 l 5,110,-1
 44.7431640625 67.9580078125 l 5,111,-1
 38.2919921875 52.291015625 l 5,112,-1
 38.2919921875 50.4482421875 l 5,113,114
 47.5078125 44.91796875 47.5078125 44.91796875 47.5078125 35.2412109375 c 132,-1,115
 47.5078125 25.564453125 47.5078125 25.564453125 39.2138671875 20.9560546875 c 5,116,117
 40.1357421875 20.9560546875 40.1357421875 20.9560546875 43.8212890625 20.9560546875 c 5,118,-1
 48.4296875 20.9560546875 l 5,119,120
 49.3505859375 20.03515625 49.3505859375 20.03515625 49.3505859375 17.2705078125 c 132,-1,121
 49.3505859375 14.505859375 49.3505859375 14.505859375 35.06640625 7.59375 c 132,-1,122
 20.78125 0.681640625 20.78125 0.681640625 15.251953125 0.681640625 c 5,123,124
 15.251953125 -7.61328125 15.251953125 -7.61328125 20.78125 -7.61328125 c 132,-1,125
 26.310546875 -7.61328125 26.310546875 -7.61328125 30.9189453125 -2.083984375 c 4,126,127
 44.7431640625 12.662109375 44.7431640625 12.662109375 61.33203125 16.3486328125 c 4,128,129
 75.1552734375 20.9560546875 75.1552734375 20.9560546875 79.7646484375 24.642578125 c 5,130,131
 79.7646484375 25.564453125 79.7646484375 25.564453125 79.7646484375 30.1728515625 c 132,-1,132
 79.7646484375 34.78125 79.7646484375 34.78125 83.4501953125 44.91796875 c 132,-1,133
 87.13671875 55.056640625 87.13671875 55.056640625 97.7353515625 55.056640625 c 132,-1,134
 108.333984375 55.056640625 108.333984375 55.056640625 108.333984375 43.0751953125 c 132,-1,135
 108.333984375 31.0947265625 108.333984375 31.0947265625 102.342773438 23.720703125 c 132,-1,136
 96.3525390625 16.3486328125 96.3525390625 16.3486328125 96.3525390625 13.583984375 c 132,-1,137
 96.3525390625 10.8193359375 96.3525390625 10.8193359375 105.569335938 10.8193359375 c 4,138,139
 119.392578125 10.8193359375 119.392578125 10.8193359375 127.2265625 17.2705078125 c 132,-1,140
 135.059570312 23.720703125 135.059570312 23.720703125 137.364257812 23.720703125 c 132,-1,141
 139.66796875 23.720703125 139.66796875 23.720703125 139.66796875 20.9560546875 c 6,142,-1
 142.432617188 14.505859375 l 5,143,144
 143.354492188 14.505859375 143.354492188 14.505859375 145.658203125 13.123046875 c 132,-1,145
 147.962890625 11.7412109375 147.962890625 11.7412109375 153.03125 11.7412109375 c 132,-1,146
 158.099609375 11.7412109375 158.099609375 11.7412109375 158.099609375 15.4267578125 c 6,147,-1
 158.099609375 19.11328125 l 5,148,-1
 148.884765625 90.998046875 l 6,65,66
141.510742188 -5.76953125 m 132,-1,150
 141.510742188 -12.220703125 141.510742188 -12.220703125 133.676757812 -12.220703125 c 132,-1,151
 125.844726562 -12.220703125 125.844726562 -12.220703125 125.844726562 -5.76953125 c 132,-1,152
 125.844726562 0.681640625 125.844726562 0.681640625 133.676757812 0.681640625 c 132,-1,149
 141.510742188 0.681640625 141.510742188 0.681640625 141.510742188 -5.76953125 c 132,-1,150
61.33203125 45.83984375 m 5,153,154
 60.41015625 41.2314453125 60.41015625 41.2314453125 59.4892578125 39.388671875 c 4,155,156
 59.4892578125 34.78125 59.4892578125 34.78125 62.25390625 34.78125 c 4,157,158
 66.861328125 34.78125 66.861328125 34.78125 66.861328125 28.330078125 c 4,159,160
 65.9404296875 23.720703125 65.9404296875 23.720703125 59.4892578125 23.720703125 c 4,161,162
 54.880859375 24.642578125 54.880859375 24.642578125 55.802734375 32.9375 c 4,163,164
 55.802734375 39.388671875 55.802734375 39.388671875 61.33203125 45.83984375 c 5,165,-1
 61.33203125 45.83984375 l 5,153,154
97.2744140625 34.78125 m 5,166,167
 95.4306640625 41.2314453125 95.4306640625 41.2314453125 91.2841796875 41.693359375 c 132,-1,168
 87.13671875 42.1533203125 87.13671875 42.1533203125 87.13671875 36.1630859375 c 132,-1,169
 87.13671875 30.1728515625 87.13671875 30.1728515625 90.8232421875 30.1728515625 c 4,170,171
 97.2744140625 30.1728515625 97.2744140625 30.1728515625 97.2744140625 34.78125 c 5,166,167
30.9189453125 28.330078125 m 6,172,173
 35.52734375 30.1728515625 35.52734375 30.1728515625 38.2919921875 33.859375 c 4,174,175
 40.1357421875 39.388671875 40.1357421875 39.388671875 30.9189453125 42.1533203125 c 4,176,177
 26.310546875 42.1533203125 26.310546875 42.1533203125 25.3896484375 34.78125 c 4,178,179
 25.3896484375 28.330078125 25.3896484375 28.330078125 26.310546875 25.564453125 c 5,180,-1
 30.9189453125 28.330078125 l 6,172,173
39.2138671875 20.03515625 m 5,181,182
 32.7626953125 18.19140625 32.7626953125 18.19140625 29.0751953125 16.3486328125 c 4,183,184
 18.0166015625 12.662109375 18.0166015625 12.662109375 16.173828125 6.2119140625 c 5,185,186
 18.0166015625 9.8974609375 18.0166015625 9.8974609375 27.693359375 14.505859375 c 132,-1,187
 37.37109375 19.11328125 37.37109375 19.11328125 39.2138671875 20.03515625 c 5,181,182
EndSplineSet
EndChar

StartChar: Icircumflex
Encoding: 206 206 30
Width: 350
VWidth: 133
Flags: W
LayerCount: 2
Fore
SplineSet
81.03515625 -1.7275390625 m 1,0,1
 79.1923828125 -0.8056640625 79.1923828125 -0.8056640625 78.732421875 2.419921875 c 128,-1,2
 78.2705078125 5.6455078125 78.2705078125 5.6455078125 82.87890625 5.6455078125 c 128,-1,3
 87.4873046875 5.6455078125 87.4873046875 5.6455078125 90.251953125 3.802734375 c 1,4,5
 90.251953125 -2.6494140625 l 0,6,7
 90.251953125 -8.1787109375 90.251953125 -8.1787109375 81.03515625 -13.2470703125 c 128,-1,8
 71.8203125 -18.3154296875 71.8203125 -18.3154296875 71.8203125 -16.47265625 c 1,9,-1
 82.87890625 -1.7275390625 l 1,10,11
 82.87890625 -1.7275390625 l 0,12,13
 81.95703125 -1.7275390625 81.95703125 -1.7275390625 81.03515625 -1.7275390625 c 1,0,1
68.1337890625 34.21484375 m 1,14,15
 68.1337890625 27.7646484375 68.1337890625 27.7646484375 61.2216796875 27.7646484375 c 128,-1,16
 54.3095703125 27.7646484375 54.3095703125 27.7646484375 54.3095703125 34.21484375 c 128,-1,17
 54.3095703125 40.666015625 54.3095703125 40.666015625 60.76171875 40.666015625 c 128,-1,18
 67.2119140625 40.666015625 67.2119140625 40.666015625 68.1337890625 34.21484375 c 1,14,15
92.095703125 29.607421875 m 1,19,-1
 81.03515625 54.490234375 l 1,20,21
 81.03515625 58.1767578125 81.03515625 58.1767578125 85.64453125 63.7060546875 c 1,22,23
 87.4873046875 63.7060546875 87.4873046875 63.7060546875 91.173828125 59.0986328125 c 0,24,25
 96.703125 52.6474609375 96.703125 52.6474609375 92.095703125 48.0390625 c 1,26,27
 98.5458984375 27.7646484375 98.5458984375 27.7646484375 92.095703125 19.4697265625 c 0,28,29
 74.5849609375 0.115234375 74.5849609375 0.115234375 47.8583984375 0.5771484375 c 128,-1,30
 21.1318359375 1.037109375 21.1318359375 1.037109375 21.1318359375 23.1552734375 c 0,31,32
 21.1318359375 27.7646484375 21.1318359375 27.7646484375 23.896484375 34.21484375 c 0,33,-1
 25.740234375 40.666015625 l 0,34,-1
 24.818359375 45.2744140625 l 0,35,36
 23.896484375 49.8828125 23.896484375 49.8828125 22.9755859375 54.490234375 c 128,-1,37
 22.0537109375 59.0986328125 22.0537109375 59.0986328125 26.201171875 70.6181640625 c 128,-1,38
 30.34765625 82.138671875 30.34765625 82.138671875 34.0341796875 82.138671875 c 1,39,40
 35.876953125 80.294921875 35.876953125 80.294921875 35.876953125 78.4521484375 c 2,41,-1
 30.34765625 60.94140625 l 1,42,43
 30.34765625 55.412109375 30.34765625 55.412109375 34.0341796875 52.6474609375 c 1,44,45
 35.876953125 54.490234375 35.876953125 54.490234375 38.642578125 55.8720703125 c 128,-1,46
 41.4072265625 57.2548828125 41.4072265625 57.2548828125 41.4072265625 56.333984375 c 0,47,48
 41.4072265625 49.8828125 41.4072265625 49.8828125 37.7216796875 46.1953125 c 128,-1,49
 34.0341796875 42.509765625 34.0341796875 42.509765625 30.34765625 38.8232421875 c 1,50,51
 26.6611328125 34.21484375 26.6611328125 34.21484375 26.6611328125 33.2939453125 c 0,52,53
 26.6611328125 19.4697265625 26.6611328125 19.4697265625 35.4169921875 14.861328125 c 128,-1,54
 44.171875 10.25390625 44.171875 10.25390625 48.7802734375 10.25390625 c 2,55,-1
 52.4658203125 10.25390625 l 2,56,57
 62.6044921875 10.25390625 62.6044921875 10.25390625 77.349609375 19.0087890625 c 128,-1,58
 92.095703125 27.7646484375 92.095703125 27.7646484375 92.095703125 29.607421875 c 1,19,-1
154.764648438 0.115234375 m 1,59,60
 153.842773438 1.037109375 153.842773438 1.037109375 153.381835938 3.802734375 c 128,-1,61
 152.920898438 6.5673828125 152.920898438 6.5673828125 158.911132812 6.5673828125 c 128,-1,62
 164.901367188 6.5673828125 164.901367188 6.5673828125 164.901367188 0.115234375 c 128,-1,63
 164.901367188 -6.3349609375 164.901367188 -6.3349609375 151.999023438 -15.55078125 c 1,64,-1
 148.3125 -15.55078125 l 2,65,-1
 148.3125 -13.7080078125 l 0,66,67
 148.3125 -12.7861328125 148.3125 -12.7861328125 151.999023438 -8.1787109375 c 2,68,-1
 157.529296875 -2.6494140625 l 1,69,-1
 157.529296875 0.115234375 l 1,70,71
 156.607421875 0.115234375 156.607421875 0.115234375 154.764648438 0.115234375 c 1,59,60
48.7802734375 75.6875 m 1,72,73
 91.173828125 105.178710938 91.173828125 105.178710938 99.4677734375 104.256835938 c 0,74,75
 105.918945312 104.256835938 105.918945312 104.256835938 108.684570312 103.334960938 c 1,76,-1
 108.684570312 100.5703125 l 1,77,-1
 52.4658203125 71.0791015625 l 1,78,-1
 48.7802734375 71.0791015625 l 1,79,-1
 48.7802734375 72.0009765625 l 1,80,-1
 48.7802734375 75.6875 l 1,72,73
104.075195312 89.5107421875 m 1,81,-1
 101.310546875 82.138671875 l 1,82,-1
 101.310546875 77.5302734375 l 1,83,-1
 103.154296875 76.609375 l 1,84,85
 104.997070312 77.5302734375 104.997070312 77.5302734375 106.840820312 77.5302734375 c 128,-1,86
 108.684570312 77.5302734375 108.684570312 77.5302734375 108.684570312 76.609375 c 0,87,88
 108.684570312 68.314453125 108.684570312 68.314453125 101.772460938 68.314453125 c 128,-1,89
 94.8603515625 68.314453125 94.8603515625 68.314453125 94.8603515625 77.5302734375 c 128,-1,90
 94.8603515625 86.74609375 94.8603515625 86.74609375 99.4677734375 89.05078125 c 128,-1,91
 104.075195312 91.3544921875 104.075195312 91.3544921875 104.075195312 89.5107421875 c 1,81,-1
119.743164062 95.962890625 m 1,92,93
 119.743164062 105.178710938 119.743164062 105.178710938 124.350585938 105.638671875 c 128,-1,94
 128.958984375 106.099609375 128.958984375 106.099609375 133.106445312 96.4228515625 c 128,-1,95
 137.25390625 86.74609375 137.25390625 86.74609375 137.25390625 84.9033203125 c 128,-1,96
 137.25390625 83.0595703125 137.25390625 83.0595703125 134.489257812 82.138671875 c 1,97,-1
 132.645507812 82.138671875 l 2,98,-1
 130.802734375 82.138671875 l 0,99,100
 130.802734375 83.0595703125 130.802734375 83.0595703125 130.802734375 82.138671875 c 2,101,-1
 133.567382812 36.05859375 l 1,102,103
 133.567382812 16.705078125 133.567382812 16.705078125 128.958984375 14.861328125 c 1,104,-1
 119.743164062 95.962890625 l 1,92,93
179.647460938 -20.1591796875 m 1,105,106
 178.725585938 -20.1591796875 178.725585938 -20.1591796875 178.725585938 -16.47265625 c 0,107,108
 179.647460938 -14.62890625 179.647460938 -14.62890625 216.510742188 4.724609375 c 1,109,-1
 217.432617188 4.724609375 l 1,110,111
 219.275390625 4.724609375 219.275390625 4.724609375 219.275390625 1.498046875 c 128,-1,112
 219.275390625 -1.7275390625 219.275390625 -1.7275390625 183.333984375 -20.1591796875 c 1,113,-1
 179.647460938 -20.1591796875 l 1,105,106
185.176757812 73.8447265625 m 1,114,115
 189.78515625 72.9228515625 189.78515625 72.9228515625 191.627929688 66.470703125 c 0,116,117
 191.627929688 61.86328125 191.627929688 61.86328125 184.254882812 64.6279296875 c 1,118,-1
 178.725585938 48.9609375 l 1,119,-1
 175.0390625 48.9609375 l 1,120,121
 171.352539062 57.2548828125 171.352539062 57.2548828125 167.666015625 60.94140625 c 1,122,123
 161.21484375 61.86328125 161.21484375 61.86328125 161.21484375 66.470703125 c 128,-1,124
 161.21484375 71.0791015625 161.21484375 71.0791015625 165.36328125 71.0791015625 c 128,-1,125
 169.509765625 71.0791015625 169.509765625 71.0791015625 175.9609375 62.78515625 c 1,126,-1
 185.176757812 73.8447265625 l 1,114,115
298.534179688 84.9033203125 m 1,127,-1
 296.690429688 85.82421875 l 1,128,129
 294.84765625 77.5302734375 294.84765625 77.5302734375 298.534179688 45.2744140625 c 2,130,-1
 301.298828125 24.9990234375 l 1,131,132
 301.298828125 4.724609375 301.298828125 4.724609375 276.415039062 -6.3349609375 c 0,133,134
 261.668945312 -12.7861328125 261.668945312 -12.7861328125 252.454101562 -12.7861328125 c 0,135,136
 225.727539062 -12.7861328125 225.727539062 -12.7861328125 225.727539062 10.25390625 c 0,137,138
 225.727539062 13.9404296875 225.727539062 13.9404296875 230.334960938 27.7646484375 c 1,139,-1
 200.844726562 21.3125 l 2,140,141
 199.000976562 23.1552734375 l 1,142,-1
 190.706054688 6.5673828125 l 1,143,144
 188.86328125 6.5673828125 188.86328125 6.5673828125 184.254882812 10.25390625 c 128,-1,145
 179.647460938 13.9404296875 179.647460938 13.9404296875 179.647460938 16.705078125 c 128,-1,146
 179.647460938 19.4697265625 179.647460938 19.4697265625 177.8046875 22.234375 c 128,-1,147
 175.9609375 24.9990234375 175.9609375 24.9990234375 170.430664062 24.9990234375 c 128,-1,148
 164.901367188 24.9990234375 164.901367188 24.9990234375 154.302734375 15.3232421875 c 128,-1,149
 143.705078125 5.6455078125 143.705078125 5.6455078125 134.489257812 -1.7275390625 c 0,150,151
 123.4296875 -12.7861328125 123.4296875 -12.7861328125 113.291992188 -12.7861328125 c 128,-1,152
 103.154296875 -12.7861328125 103.154296875 -12.7861328125 103.154296875 3.802734375 c 128,-1,153
 103.154296875 20.390625 103.154296875 20.390625 116.056640625 32.3720703125 c 1,154,-1
 119.743164062 32.3720703125 l 1,155,-1
 119.743164062 30.529296875 l 1,156,-1
 108.684570312 4.724609375 l 1,157,158
 108.684570312 -5.4140625 108.684570312 -5.4140625 115.595703125 -4.4921875 c 128,-1,159
 122.5078125 -3.5703125 122.5078125 -3.5703125 132.645507812 7.4892578125 c 0,160,161
 148.3125 26.8427734375 148.3125 26.8427734375 157.989257812 30.529296875 c 128,-1,162
 167.666015625 34.21484375 167.666015625 34.21484375 172.274414062 35.13671875 c 128,-1,163
 176.8828125 36.05859375 176.8828125 36.05859375 178.725585938 38.36328125 c 128,-1,164
 180.569335938 40.666015625 180.569335938 40.666015625 181.951171875 40.666015625 c 128,-1,165
 183.333984375 40.666015625 183.333984375 40.666015625 186.098632812 38.8232421875 c 0,166,167
 194.392578125 33.2939453125 194.392578125 33.2939453125 204.530273438 32.83203125 c 128,-1,168
 214.66796875 32.3720703125 214.66796875 32.3720703125 216.510742188 35.13671875 c 1,169,170
 210.981445312 43.4306640625 210.981445312 43.4306640625 210.059570312 48.0390625 c 0,171,172
 210.059570312 59.0986328125 210.059570312 59.0986328125 216.97265625 64.16796875 c 128,-1,173
 223.884765625 69.2353515625 223.884765625 69.2353515625 234.943359375 69.2353515625 c 128,-1,174
 246.002929688 69.2353515625 246.002929688 69.2353515625 247.845703125 61.86328125 c 1,175,-1
 247.845703125 59.0986328125 l 1,176,-1
 235.864257812 61.86328125 l 1,177,178
 218.354492188 61.86328125 218.354492188 61.86328125 219.275390625 54.490234375 c 0,179,180
 219.275390625 38.8232421875 219.275390625 38.8232421875 231.256835938 38.8232421875 c 1,181,-1
 264.43359375 48.9609375 l 1,182,183
 266.27734375 48.0390625 266.27734375 48.0390625 266.27734375 44.3525390625 c 0,184,185
 264.43359375 40.666015625 264.43359375 40.666015625 239.55078125 32.3720703125 c 1,186,187
 233.099609375 28.685546875 233.099609375 28.685546875 233.099609375 13.478515625 c 128,-1,188
 233.099609375 -1.7275390625 233.099609375 -1.7275390625 255.21875 -1.7275390625 c 0,189,190
 264.43359375 -1.7275390625 264.43359375 -1.7275390625 279.1796875 4.724609375 c 128,-1,191
 293.92578125 11.17578125 293.92578125 11.17578125 293.92578125 18.5478515625 c 1,192,-1
 284.708984375 96.884765625 l 1,193,194
 284.708984375 103.334960938 284.708984375 103.334960938 292.083007812 108.864257812 c 1,195,196
 301.298828125 102.4140625 301.298828125 102.4140625 300.836914062 93.658203125 c 128,-1,197
 300.376953125 84.9033203125 300.376953125 84.9033203125 298.534179688 84.9033203125 c 1,127,-1
162.13671875 91.3544921875 m 0,198,199
 162.13671875 102.4140625 162.13671875 102.4140625 174.1171875 103.334960938 c 0,200,201
 189.78515625 104.256835938 189.78515625 104.256835938 189.78515625 99.6494140625 c 128,-1,202
 189.78515625 95.041015625 189.78515625 95.041015625 184.254882812 89.5107421875 c 0,203,204
 177.8046875 84.9033203125 177.8046875 84.9033203125 174.1171875 84.9033203125 c 2,205,-1
 170.430664062 84.9033203125 l 1,206,207
 170.430664062 88.58984375 170.430664062 88.58984375 174.578125 91.3544921875 c 128,-1,208
 178.725585938 94.119140625 178.725585938 94.119140625 175.0390625 94.119140625 c 128,-1,209
 171.352539062 94.119140625 171.352539062 94.119140625 166.745117188 91.8154296875 c 128,-1,210
 162.13671875 89.5107421875 162.13671875 89.5107421875 162.13671875 91.3544921875 c 0,198,199
307.749023438 0.115234375 m 1,211,212
 308.670898438 -0.8056640625 308.670898438 -0.8056640625 308.670898438 -3.5703125 c 0,213,214
 307.749023438 -5.4140625 307.749023438 -5.4140625 284.708984375 -17.39453125 c 1,215,216
 282.866210938 -16.47265625 282.866210938 -16.47265625 282.866210938 -14.1689453125 c 128,-1,217
 282.866210938 -11.8642578125 282.866210938 -11.8642578125 304.984375 0.115234375 c 1,218,-1
 307.749023438 0.115234375 l 1,211,212
274.572265625 18.5478515625 m 2,219,220
 274.572265625 12.0966796875 274.572265625 12.0966796875 268.12109375 11.6357421875 c 128,-1,221
 261.668945312 11.17578125 261.668945312 11.17578125 261.668945312 19.4697265625 c 128,-1,222
 261.668945312 27.7646484375 261.668945312 27.7646484375 265.35546875 31.9111328125 c 128,-1,223
 269.04296875 36.05859375 269.04296875 36.05859375 269.96484375 35.59765625 c 128,-1,224
 270.885742188 35.13671875 270.885742188 35.13671875 270.424804688 33.75390625 c 128,-1,225
 269.96484375 32.3720703125 269.96484375 32.3720703125 268.12109375 25.9208984375 c 1,226,-1
 268.12109375 20.390625 l 1,227,-1
 269.04296875 20.390625 l 0,228,-1
 272.729492188 23.1552734375 l 1,229,-1
 274.572265625 23.1552734375 l 1,230,-1
 274.572265625 18.5478515625 l 2,219,220
221.119140625 90.4326171875 m 1,231,-1
 221.119140625 84.9033203125 l 0,232,233
 222.041015625 79.3740234375 222.041015625 79.3740234375 216.05078125 79.833984375 c 128,-1,234
 210.059570312 80.294921875 210.059570312 80.294921875 210.059570312 86.74609375 c 128,-1,235
 210.059570312 93.197265625 210.059570312 93.197265625 217.432617188 104.256835938 c 1,236,-1
 219.275390625 104.256835938 l 1,237,238
 215.58984375 91.3544921875 215.58984375 91.3544921875 216.510742188 91.3544921875 c 0,239,240
 215.58984375 86.74609375 215.58984375 86.74609375 219.275390625 90.4326171875 c 1,241,-1
 221.119140625 90.4326171875 l 1,231,-1
259.826171875 101.4921875 m 0,242,243
 261.668945312 106.099609375 261.668945312 106.099609375 266.27734375 106.099609375 c 128,-1,244
 270.885742188 106.099609375 270.885742188 106.099609375 270.885742188 100.5703125 c 128,-1,245
 270.885742188 95.041015625 270.885742188 95.041015625 268.12109375 95.041015625 c 128,-1,246
 265.35546875 95.041015625 265.35546875 95.041015625 263.512695312 96.884765625 c 1,247,-1
 255.21875 80.294921875 l 1,248,249
 253.375 80.294921875 253.375 80.294921875 251.532226562 84.9033203125 c 2,250,-1
 247.845703125 91.3544921875 l 1,251,252
 238.62890625 95.962890625 238.62890625 95.962890625 239.090820312 99.6494140625 c 128,-1,253
 239.55078125 103.334960938 239.55078125 103.334960938 244.159179688 103.334960938 c 0,254,255
 248.767578125 104.256835938 248.767578125 104.256835938 255.21875 95.041015625 c 1,256,257
 257.983398438 95.041015625 257.983398438 95.041015625 259.826171875 101.4921875 c 0,242,243
312.357421875 115.315429688 m 1,258,-1
 316.965820312 114.39453125 l 1,259,260
 322.495117188 114.39453125 322.495117188 114.39453125 327.103515625 117.159179688 c 1,261,-1
 329.868164062 117.159179688 l 2,262,-1
 329.868164062 115.315429688 l 1,263,-1
 317.887695312 107.943359375 l 1,264,-1
 328.946289062 85.82421875 l 1,265,266
 328.946289062 82.138671875 328.946289062 82.138671875 326.181640625 82.138671875 c 0,267,268
 322.495117188 82.138671875 322.495117188 82.138671875 322.495117188 83.0595703125 c 1,269,-1
 327.103515625 15.783203125 l 2,270,271
 328.024414062 2.880859375 328.024414062 2.880859375 322.495117188 -3.5703125 c 1,272,-1
 319.73046875 -3.5703125 l 1,273,-1
 319.73046875 20.390625 l 1,274,-1
 312.357421875 96.884765625 l 2,275,276
 312.357421875 97.8056640625 312.357421875 97.8056640625 316.043945312 107.943359375 c 1,277,278
 314.201171875 108.864257812 314.201171875 108.864257812 311.896484375 108.864257812 c 128,-1,279
 309.592773438 108.864257812 309.592773438 108.864257812 307.749023438 106.099609375 c 1,280,-1
 304.984375 106.099609375 l 1,281,-1
 304.984375 110.708007812 l 0,282,283
 305.90625 115.315429688 305.90625 115.315429688 312.357421875 115.315429688 c 1,258,-1
EndSplineSet
EndChar

StartChar: Idieresis
Encoding: 207 207 31
Width: 278
VWidth: 134
Flags: W
LayerCount: 2
Fore
SplineSet
28.486328125 -13.2802734375 m 1,0,1
 28.486328125 -10.515625 l 0,2,3
 28.486328125 -6.8291015625 28.486328125 -6.8291015625 58.8984375 6.9951171875 c 1,4,-1
 60.7431640625 6.9951171875 l 1,5,6
 60.7431640625 6.0732421875 60.7431640625 6.0732421875 60.7431640625 4.23046875 c 128,-1,7
 60.7431640625 2.38671875 60.7431640625 2.38671875 31.2509765625 -13.2802734375 c 1,8,-1
 28.486328125 -13.2802734375 l 1,0,1
36.78125 21.740234375 m 1,9,-1
 54.291015625 23.5830078125 l 1,10,-1
 56.1337890625 22.662109375 l 1,11,12
 55.212890625 18.0537109375 55.212890625 18.0537109375 46.45703125 15.2890625 c 128,-1,13
 37.703125 12.5244140625 37.703125 12.5244140625 33.09375 8.837890625 c 0,14,15
 22.03515625 0.54296875 22.03515625 0.54296875 22.03515625 2.84765625 c 128,-1,16
 22.03515625 5.15234375 22.03515625 5.15234375 26.6435546875 10.681640625 c 1,17,18
 20.1923828125 19.8974609375 20.1923828125 19.8974609375 20.1923828125 21.740234375 c 128,-1,19
 20.1923828125 23.5830078125 20.1923828125 23.5830078125 26.1826171875 30.95703125 c 128,-1,20
 32.1728515625 38.3291015625 32.1728515625 38.3291015625 37.2412109375 38.3291015625 c 128,-1,21
 42.310546875 38.3291015625 42.310546875 38.3291015625 42.310546875 32.3388671875 c 128,-1,22
 42.310546875 26.3486328125 42.310546875 26.3486328125 36.78125 26.3486328125 c 1,23,-1
 31.2509765625 29.11328125 l 1,24,25
 29.408203125 29.11328125 29.408203125 29.11328125 27.564453125 26.3486328125 c 1,26,27
 32.1728515625 21.740234375 32.1728515625 21.740234375 36.78125 21.740234375 c 1,9,-1
36.78125 67.8203125 m 2,28,-1
 33.09375 59.5263671875 l 1,29,30
 33.09375 58.6044921875 33.09375 58.6044921875 35.8583984375 55.83984375 c 1,31,32
 36.78125 55.83984375 36.78125 55.83984375 38.6240234375 55.83984375 c 0,33,-1
 40.4677734375 56.76171875 l 1,34,-1
 40.4677734375 53.0751953125 l 2,35,36
 40.4677734375 47.544921875 40.4677734375 47.544921875 34.4765625 47.544921875 c 128,-1,37
 28.486328125 47.544921875 28.486328125 47.544921875 28.486328125 52.1533203125 c 0,38,39
 28.486328125 63.2119140625 28.486328125 63.2119140625 32.6337890625 65.9775390625 c 128,-1,40
 36.78125 68.7421875 36.78125 68.7421875 36.78125 67.8203125 c 2,28,-1
115.1171875 -8.671875 m 2,41,42
 115.1171875 -4.064453125 115.1171875 -4.064453125 120.646484375 -4.064453125 c 128,-1,43
 126.17578125 -4.064453125 126.17578125 -4.064453125 126.17578125 -7.7509765625 c 0,44,45
 126.17578125 -19.7314453125 126.17578125 -19.7314453125 116.038085938 -21.5751953125 c 1,46,-1
 113.2734375 -19.7314453125 l 1,47,48
 115.1171875 -17.8876953125 115.1171875 -17.8876953125 116.959960938 -15.123046875 c 0,49,50
 117.881835938 -11.4365234375 117.881835938 -11.4365234375 115.1171875 -10.515625 c 1,51,-1
 115.1171875 -8.671875 l 2,41,42
42.310546875 99.1552734375 m 1,52,53
 46.91796875 99.1552734375 46.91796875 99.1552734375 47.83984375 94.0859375 c 128,-1,54
 48.76171875 89.0166015625 48.76171875 89.0166015625 45.0751953125 89.0166015625 c 1,55,-1
 42.310546875 89.9384765625 l 1,56,-1
 36.78125 75.193359375 l 1,57,58
 34.9375 75.193359375 34.9375 75.193359375 34.9375 74.2724609375 c 1,59,60
 30.3291015625 85.3310546875 30.3291015625 85.3310546875 25.26171875 87.634765625 c 128,-1,61
 20.1923828125 89.9384765625 20.1923828125 89.9384765625 20.1923828125 94.0859375 c 128,-1,62
 20.1923828125 98.2333984375 20.1923828125 98.2333984375 22.95703125 98.2333984375 c 0,63,64
 26.6435546875 99.1552734375 26.6435546875 99.1552734375 31.2509765625 94.546875 c 2,65,-1
 34.9375 88.095703125 l 1,66,-1
 42.310546875 99.1552734375 l 1,52,53
107.744140625 31.8779296875 m 1,67,-1
 110.508789062 38.3291015625 l 0,68,69
 112.352539062 44.7802734375 112.352539062 44.7802734375 118.342773438 45.7021484375 c 128,-1,70
 124.33203125 46.623046875 124.33203125 46.623046875 124.33203125 42.015625 c 0,71,72
 124.33203125 38.3291015625 124.33203125 38.3291015625 120.646484375 36.486328125 c 1,73,74
 118.802734375 37.4072265625 118.802734375 37.4072265625 116.959960938 38.3291015625 c 1,75,-1
 109.587890625 18.0537109375 l 1,76,77
 108.666015625 18.0537109375 108.666015625 18.0537109375 105.901367188 22.662109375 c 2,78,-1
 101.29296875 31.8779296875 l 1,79,80
 92.998046875 33.7216796875 92.998046875 33.7216796875 93.458984375 38.3291015625 c 128,-1,81
 93.919921875 42.9375 93.919921875 42.9375 96.6845703125 42.9375 c 128,-1,82
 99.44921875 42.9375 99.44921875 42.9375 107.744140625 31.8779296875 c 1,67,-1
100.37109375 75.193359375 m 1,83,84
 98.52734375 75.193359375 98.52734375 75.193359375 95.7626953125 81.64453125 c 128,-1,85
 92.998046875 88.095703125 92.998046875 88.095703125 88.390625 88.095703125 c 128,-1,86
 83.783203125 88.095703125 83.783203125 88.095703125 83.783203125 93.625 c 128,-1,87
 83.783203125 99.1552734375 83.783203125 99.1552734375 88.390625 99.1552734375 c 128,-1,88
 92.998046875 99.1552734375 92.998046875 99.1552734375 98.52734375 88.095703125 c 1,89,90
 99.44921875 88.095703125 99.44921875 88.095703125 102.213867188 95.0078125 c 128,-1,91
 104.978515625 101.919921875 104.978515625 101.919921875 106.823242188 101.919921875 c 0,92,93
 115.1171875 101.919921875 115.1171875 101.919921875 115.1171875 92.703125 c 1,94,-1
 113.2734375 89.0166015625 l 2,95,-1
 112.352539062 88.095703125 l 0,96,97
 110.508789062 87.173828125 110.508789062 87.173828125 105.901367188 92.703125 c 1,98,99
 104.057617188 86.251953125 104.057617188 86.251953125 100.37109375 75.193359375 c 1,83,84
189.766601562 -22.4970703125 m 1,100,101
 188.844726562 -22.4970703125 188.844726562 -22.4970703125 187.922851562 -20.1923828125 c 128,-1,102
 187.001953125 -17.8876953125 187.001953125 -17.8876953125 214.649414062 -5.9072265625 c 1,103,-1
 218.3359375 -5.9072265625 l 1,104,105
 219.256835938 -6.8291015625 219.256835938 -6.8291015625 219.256835938 -9.59375 c 128,-1,106
 219.256835938 -12.3583984375 219.256835938 -12.3583984375 207.27734375 -15.123046875 c 2,107,-1
 189.766601562 -22.4970703125 l 1,100,101
138.157226562 69.6630859375 m 0,108,109
 149.215820312 70.5849609375 149.215820312 70.5849609375 149.215820312 56.76171875 c 0,110,111
 149.215820312 33.7216796875 149.215820312 33.7216796875 143.686523438 30.95703125 c 1,112,-1
 141.842773438 31.8779296875 l 1,113,114
 142.764648438 36.486328125 142.764648438 36.486328125 143.686523438 43.8583984375 c 1,115,-1
 133.548828125 64.1337890625 l 1,116,117
 133.548828125 71.5068359375 133.548828125 71.5068359375 138.157226562 69.6630859375 c 0,108,109
230.31640625 83.4873046875 m 2,118,-1
 226.630859375 85.3310546875 l 1,119,-1
 226.630859375 81.64453125 l 2,120,-1
 234.002929688 22.662109375 l 1,121,122
 234.002929688 -4.986328125 234.002929688 -4.986328125 215.571289062 -4.064453125 c 0,123,124
 210.041992188 -4.064453125 210.041992188 -4.064453125 202.668945312 5.15234375 c 1,125,126
 196.216796875 -4.064453125 196.216796875 -4.064453125 187.922851562 -3.142578125 c 0,127,128
 181.47265625 -3.142578125 181.47265625 -3.142578125 176.864257812 3.30859375 c 1,129,130
 171.333984375 -5.9072265625 171.333984375 -5.9072265625 164.8828125 -4.986328125 c 0,131,132
 158.432617188 -4.986328125 158.432617188 -4.986328125 153.82421875 2.38671875 c 1,133,134
 147.372070312 -6.8291015625 147.372070312 -6.8291015625 139.078125 -5.9072265625 c 0,135,136
 132.627929688 -5.9072265625 132.627929688 -5.9072265625 128.94140625 4.23046875 c 1,137,-1
 127.09765625 4.23046875 l 1,138,-1
 92.0771484375 -5.9072265625 l 1,139,140
 72.72265625 -5.9072265625 72.72265625 -5.9072265625 69.037109375 3.76953125 c 128,-1,141
 65.3505859375 13.4462890625 65.3505859375 13.4462890625 64.4287109375 27.2705078125 c 0,142,143
 62.5859375 77.037109375 62.5859375 77.037109375 59.8212890625 86.251953125 c 128,-1,144
 57.0556640625 95.46875 57.0556640625 95.46875 57.0556640625 99.1552734375 c 0,145,146
 57.0556640625 103.762695312 57.0556640625 103.762695312 61.6640625 103.762695312 c 0,147,148
 67.193359375 103.762695312 67.193359375 103.762695312 68.5751953125 77.037109375 c 128,-1,149
 69.9580078125 50.310546875 69.9580078125 50.310546875 71.8017578125 26.3486328125 c 0,150,151
 71.8017578125 2.38671875 71.8017578125 2.38671875 93.919921875 2.38671875 c 0,152,153
 108.666015625 2.38671875 108.666015625 2.38671875 119.724609375 8.837890625 c 128,-1,154
 130.784179688 15.2890625 130.784179688 15.2890625 131.706054688 15.2890625 c 2,155,-1
 135.392578125 15.2890625 l 1,156,157
 135.392578125 2.38671875 135.392578125 2.38671875 140.921875 3.30859375 c 0,158,159
 146.451171875 2.38671875 146.451171875 2.38671875 158.432617188 13.4462890625 c 1,160,-1
 160.275390625 13.4462890625 l 1,161,-1
 160.275390625 8.837890625 l 1,162,163
 160.275390625 4.23046875 160.275390625 4.23046875 164.8828125 4.23046875 c 128,-1,164
 169.491210938 4.23046875 169.491210938 4.23046875 174.098632812 9.759765625 c 128,-1,165
 178.70703125 15.2890625 178.70703125 15.2890625 179.62890625 17.1328125 c 1,166,167
 181.47265625 17.1328125 181.47265625 17.1328125 182.393554688 13.4462890625 c 0,168,169
 183.315429688 6.9951171875 183.315429688 6.9951171875 190.6875 6.9951171875 c 128,-1,170
 198.061523438 6.9951171875 198.061523438 6.9951171875 198.061523438 14.3681640625 c 1,171,-1
 196.216796875 31.8779296875 l 1,172,173
 196.216796875 41.09375 196.216796875 41.09375 200.826171875 38.3291015625 c 1,174,175
 205.43359375 33.7216796875 205.43359375 33.7216796875 207.27734375 19.4365234375 c 128,-1,176
 209.120117188 5.15234375 209.120117188 5.15234375 218.796875 5.15234375 c 128,-1,177
 228.473632812 5.15234375 228.473632812 5.15234375 228.473632812 12.5244140625 c 1,178,-1
 218.3359375 97.3125 l 1,179,180
 217.4140625 102.841796875 217.4140625 102.841796875 221.1015625 104.684570312 c 1,181,182
 222.944335938 104.684570312 222.944335938 104.684570312 228.012695312 97.3125 c 128,-1,183
 233.08203125 89.9384765625 233.08203125 89.9384765625 233.08203125 88.095703125 c 2,184,-1
 233.08203125 84.4091796875 l 1,185,186
 231.23828125 83.4873046875 231.23828125 83.4873046875 230.31640625 83.4873046875 c 2,118,-1
187.922851562 100.077148438 m 2,187,188
 187.922851562 98.2333984375 187.922851562 98.2333984375 182.393554688 94.546875 c 2,189,-1
 141.842773438 79.8017578125 l 2,190,191
 104.057617188 64.1337890625 104.057617188 64.1337890625 96.224609375 58.1435546875 c 128,-1,192
 88.390625 52.1533203125 88.390625 52.1533203125 84.7041015625 52.1533203125 c 0,193,-1
 81.9384765625 52.1533203125 l 0,194,195
 81.9384765625 60.447265625 81.9384765625 60.447265625 132.166015625 82.1044921875 c 128,-1,196
 182.393554688 103.762695312 182.393554688 103.762695312 184.697265625 103.762695312 c 128,-1,197
 187.001953125 103.762695312 187.001953125 103.762695312 187.922851562 102.841796875 c 1,198,-1
 187.922851562 100.077148438 l 2,187,188
169.491210938 45.7021484375 m 0,199,-1
 172.255859375 46.623046875 l 0,200,201
 174.098632812 47.544921875 174.098632812 47.544921875 175.481445312 47.0849609375 c 128,-1,202
 176.864257812 46.623046875 176.864257812 46.623046875 176.864257812 42.015625 c 128,-1,203
 176.864257812 37.4072265625 176.864257812 37.4072265625 169.491210938 37.4072265625 c 0,204,205
 163.040039062 38.3291015625 163.040039062 38.3291015625 163.040039062 42.9375 c 0,206,207
 163.040039062 61.369140625 163.040039062 61.369140625 169.491210938 61.369140625 c 1,208,-1
 170.412109375 59.5263671875 l 1,209,210
 168.569335938 53.0751953125 168.569335938 53.0751953125 169.030273438 52.1533203125 c 128,-1,211
 169.491210938 51.232421875 169.491210938 51.232421875 169.491210938 45.7021484375 c 0,199,-1
186.080078125 59.5263671875 m 1,212,213
 186.080078125 68.7421875 186.080078125 68.7421875 192.0703125 68.28125 c 128,-1,214
 198.061523438 67.8203125 198.061523438 67.8203125 198.061523438 61.369140625 c 128,-1,215
 198.061523438 54.91796875 198.061523438 54.91796875 194.374023438 53.0751953125 c 1,216,217
 191.609375 54.91796875 191.609375 54.91796875 186.080078125 59.5263671875 c 1,212,213
198.061523438 84.4091796875 m 1,218,-1
 201.747070312 92.703125 l 1,219,-1
 204.51171875 92.703125 l 1,220,221
 205.43359375 90.8603515625 205.43359375 90.8603515625 205.43359375 88.095703125 c 0,222,223
 205.43359375 77.037109375 205.43359375 77.037109375 198.061523438 76.115234375 c 1,224,-1
 196.216796875 77.037109375 l 1,225,-1
 189.766601562 75.193359375 l 1,226,227
 185.158203125 75.193359375 185.158203125 75.193359375 184.697265625 80.72265625 c 128,-1,228
 184.237304688 86.251953125 184.237304688 86.251953125 187.001953125 88.095703125 c 1,229,-1
 189.766601562 81.64453125 l 1,230,-1
 192.53125 81.64453125 l 1,231,232
 192.53125 83.4873046875 192.53125 83.4873046875 192.53125 89.9384765625 c 1,233,-1
 196.216796875 90.8603515625 l 1,234,235
 196.216796875 84.4091796875 196.216796875 84.4091796875 198.061523438 84.4091796875 c 1,218,-1
245.0625 98.2333984375 m 1,236,237
 245.0625 104.684570312 245.0625 104.684570312 248.288085938 106.06640625 c 128,-1,238
 251.513671875 107.44921875 251.513671875 107.44921875 252.435546875 106.52734375 c 0,239,240
 256.12109375 100.077148438 256.12109375 100.077148438 257.50390625 91.7822265625 c 128,-1,241
 258.88671875 83.4873046875 258.88671875 83.4873046875 258.42578125 83.4873046875 c 128,-1,242
 257.96484375 83.4873046875 257.96484375 83.4873046875 254.278320312 85.3310546875 c 1,243,-1
 259.807617188 13.4462890625 l 2,244,245
 259.807617188 11.6025390625 259.807617188 11.6025390625 259.807617188 4.6904296875 c 128,-1,246
 259.807617188 -2.2216796875 259.807617188 -2.2216796875 257.04296875 -4.986328125 c 128,-1,247
 254.278320312 -7.7509765625 254.278320312 -7.7509765625 253.356445312 -5.9072265625 c 1,248,249
 253.356445312 -4.064453125 253.356445312 -4.064453125 253.356445312 -0.3779296875 c 128,-1,250
 253.356445312 3.30859375 253.356445312 3.30859375 246.90625 94.546875 c 1,251,-1
 245.0625 98.2333984375 l 1,236,237
EndSplineSet
EndChar

StartChar: Eth
Encoding: 208 208 32
Width: 319
VWidth: 135
Flags: W
LayerCount: 2
Fore
SplineSet
87.87890625 26.3134765625 m 0,0,1
 81.427734375 26.3134765625 81.427734375 26.3134765625 81.427734375 18.94140625 c 0,2,3
 82.349609375 11.5673828125 82.349609375 11.5673828125 85.1142578125 11.5673828125 c 0,4,5
 94.3310546875 11.5673828125 94.3310546875 11.5673828125 97.095703125 18.94140625 c 1,6,7
 93.4091796875 25.392578125 93.4091796875 25.392578125 87.87890625 26.3134765625 c 0,0,1
290.630859375 -11.47265625 m 2,8,-1
 289.708984375 -9.62890625 l 1,9,-1
 286.0234375 -7.7861328125 l 2,10,-1
 283.258789062 -7.7861328125 l 1,11,12
 286.944335938 -12.3935546875 286.944335938 -12.3935546875 288.788085938 -12.3935546875 c 128,-1,13
 290.630859375 -12.3935546875 290.630859375 -12.3935546875 290.630859375 -11.47265625 c 2,8,-1
159.764648438 20.7841796875 m 1,14,15
 168.05859375 20.7841796875 168.05859375 20.7841796875 167.13671875 3.734375 c 128,-1,16
 166.21484375 -13.3154296875 166.21484375 -13.3154296875 155.155273438 -13.3154296875 c 128,-1,17
 144.096679688 -13.3154296875 144.096679688 -13.3154296875 138.567382812 -0.412109375 c 1,18,19
 120.135742188 -25.2958984375 120.135742188 -25.2958984375 104.928710938 -25.2958984375 c 128,-1,20
 89.72265625 -25.2958984375 89.72265625 -25.2958984375 86.95703125 -7.7861328125 c 1,21,-1
 57.4658203125 -19.7666015625 l 1,22,-1
 52.8583984375 -19.7666015625 l 1,23,24
 52.8583984375 -17.9228515625 52.8583984375 -17.9228515625 68.986328125 -11.0107421875 c 128,-1,25
 85.1142578125 -4.0986328125 85.1142578125 -4.0986328125 86.95703125 -5.021484375 c 1,26,27
 93.4091796875 1.4306640625 93.4091796875 1.4306640625 86.95703125 1.4306640625 c 1,28,-1
 85.1142578125 1.4306640625 l 1,29,30
 78.6630859375 2.3525390625 78.6630859375 2.3525390625 76.8203125 11.5673828125 c 1,31,-1
 81.427734375 30 l 1,32,-1
 71.291015625 48.4326171875 l 1,33,34
 71.291015625 49.353515625 71.291015625 49.353515625 71.291015625 53.9619140625 c 1,35,-1
 73.1337890625 53.9619140625 l 2,36,37
 79.5849609375 53.0400390625 79.5849609375 53.0400390625 85.1142578125 45.66796875 c 1,38,-1
 82.349609375 43.82421875 l 1,39,40
 86.03515625 38.2939453125 86.03515625 38.2939453125 87.87890625 39.2158203125 c 1,41,42
 91.56640625 45.66796875 91.56640625 45.66796875 100.78125 59.4912109375 c 1,43,44
 102.625 57.6474609375 102.625 57.6474609375 103.545898438 56.7265625 c 1,45,-1
 94.3310546875 36.451171875 l 2,46,47
 94.3310546875 36.451171875 l 0,48,49
 94.3310546875 35.529296875 94.3310546875 35.529296875 98.9384765625 31.8427734375 c 128,-1,50
 103.545898438 28.1572265625 103.545898438 28.1572265625 103.545898438 23.548828125 c 1,51,-1
 91.56640625 -5.021484375 l 1,52,53
 91.56640625 -15.158203125 91.56640625 -15.158203125 98.9384765625 -15.158203125 c 128,-1,54
 106.310546875 -15.158203125 106.310546875 -15.158203125 120.595703125 -7.32421875 c 128,-1,55
 134.880859375 0.5087890625 134.880859375 0.5087890625 134.880859375 8.3427734375 c 128,-1,56
 134.880859375 16.17578125 134.880859375 16.17578125 130.272460938 31.8427734375 c 2,57,-1
 124.743164062 47.5107421875 l 1,58,59
 124.743164062 49.353515625 124.743164062 49.353515625 127.5078125 54.8828125 c 1,60,61
 132.115234375 54.8828125 132.115234375 54.8828125 137.645507812 30.921875 c 0,62,63
 146.861328125 -3.1767578125 146.861328125 -3.1767578125 153.3125 -3.1767578125 c 0,64,65
 161.607421875 -3.1767578125 161.607421875 -3.1767578125 161.607421875 1.4306640625 c 1,66,-1
 155.155273438 14.33203125 l 1,67,-1
 156.077148438 19.86328125 l 1,68,-1
 159.764648438 20.7841796875 l 1,14,15
120.135742188 14.33203125 m 2,69,-1
 121.056640625 15.25390625 l 1,70,71
 122.900390625 10.646484375 l 0,72,73
 123.821289062 6.0380859375 123.821289062 6.0380859375 117.831054688 6.0380859375 c 128,-1,74
 111.840820312 6.0380859375 111.840820312 6.0380859375 111.840820312 11.5673828125 c 0,75,76
 111.840820312 26.3134765625 111.840820312 26.3134765625 119.213867188 30.921875 c 1,77,-1
 120.135742188 29.078125 l 1,78,79
 118.291992188 22.6279296875 118.291992188 22.6279296875 118.291992188 18.48046875 c 128,-1,80
 118.291992188 14.33203125 118.291992188 14.33203125 120.135742188 14.33203125 c 2,69,-1
177.274414062 -15.158203125 m 2,81,82
 177.274414062 -17.001953125 177.274414062 -17.001953125 164.372070312 -23.4521484375 c 128,-1,83
 151.469726562 -29.904296875 151.469726562 -29.904296875 148.705078125 -29.904296875 c 2,84,-1
 145.940429688 -29.904296875 l 2,85,86
 145.018554688 -29.904296875 145.018554688 -29.904296875 145.478515625 -27.599609375 c 128,-1,87
 145.940429688 -25.2958984375 145.940429688 -25.2958984375 158.381835938 -19.3056640625 c 128,-1,88
 170.823242188 -13.3154296875 170.823242188 -13.3154296875 175.430664062 -13.3154296875 c 2,89,-1
 177.274414062 -13.3154296875 l 1,90,-1
 177.274414062 -15.158203125 l 2,81,82
86.95703125 80.6875 m 2,91,92
 87.87890625 81.609375 87.87890625 81.609375 93.4091796875 81.609375 c 128,-1,93
 98.9384765625 81.609375 98.9384765625 81.609375 98.9384765625 75.158203125 c 128,-1,94
 98.9384765625 68.70703125 98.9384765625 68.70703125 92.4873046875 68.70703125 c 1,95,-1
 85.1142578125 73.3154296875 l 1,96,-1
 80.505859375 68.70703125 l 1,97,98
 71.291015625 68.70703125 71.291015625 68.70703125 71.291015625 75.158203125 c 128,-1,99
 71.291015625 81.609375 71.291015625 81.609375 75.8984375 81.609375 c 1,100,-1
 83.2705078125 77.001953125 l 1,101,-1
 86.95703125 80.6875 l 2,91,92
155.155273438 31.8427734375 m 1,102,-1
 147.783203125 40.13671875 l 1,103,104
 147.783203125 41.9814453125 147.783203125 41.9814453125 152.390625 48.4326171875 c 0,105,106
 156.999023438 53.0400390625 156.999023438 53.0400390625 160.685546875 53.0400390625 c 128,-1,107
 164.372070312 53.0400390625 164.372070312 53.0400390625 164.372070312 48.892578125 c 128,-1,108
 164.372070312 44.74609375 164.372070312 44.74609375 162.067382812 44.74609375 c 128,-1,109
 159.764648438 44.74609375 159.764648438 44.74609375 156.999023438 45.66796875 c 1,110,-1
 155.155273438 44.74609375 l 1,111,112
 156.999023438 42.90234375 156.999023438 42.90234375 158.842773438 41.9814453125 c 128,-1,113
 160.685546875 41.05859375 160.685546875 41.05859375 165.75390625 42.44140625 c 128,-1,114
 170.823242188 43.82421875 170.823242188 43.82421875 171.745117188 41.05859375 c 1,115,-1
 171.745117188 40.13671875 l 1,116,-1
 156.999023438 31.8427734375 l 1,117,-1
 155.155273438 31.8427734375 l 1,102,-1
114.60546875 64.0986328125 m 1,118,-1
 152.390625 87.138671875 l 1,119,-1
 155.155273438 87.138671875 l 1,120,121
 155.155273438 86.216796875 155.155273438 86.216796875 155.155273438 83.9140625 c 128,-1,122
 155.155273438 81.609375 155.155273438 81.609375 144.096679688 76.541015625 c 128,-1,123
 133.037109375 71.47265625 133.037109375 71.47265625 123.821289062 66.8642578125 c 0,124,125
 114.60546875 62.255859375 l 1,126,-1
 114.60546875 64.0986328125 l 1,118,-1
227.041015625 28.1572265625 m 1,127,-1
 223.354492188 14.33203125 l 1,128,129
 223.354492188 9.724609375 223.354492188 9.724609375 225.197265625 5.1171875 c 1,130,131
 227.041015625 5.1171875 227.041015625 5.1171875 228.884765625 9.724609375 c 1,132,-1
 231.649414062 9.724609375 l 1,133,-1
 231.649414062 6.0380859375 l 2,134,135
 231.649414062 -3.1767578125 231.649414062 -3.1767578125 224.275390625 -3.638671875 c 128,-1,136
 216.903320312 -4.0986328125 216.903320312 -4.0986328125 216.903320312 9.724609375 c 128,-1,137
 216.903320312 23.548828125 216.903320312 23.548828125 221.97265625 26.7744140625 c 128,-1,138
 227.041015625 30 227.041015625 30 227.041015625 28.1572265625 c 1,127,-1
259.296875 -28.0615234375 m 1,139,-1
 263.904296875 -24.3740234375 l 1,140,141
 263.904296875 -23.4521484375 263.904296875 -23.4521484375 261.139648438 -20.6875 c 1,142,143
 262.061523438 -16.080078125 262.061523438 -16.080078125 266.668945312 -16.080078125 c 0,144,145
 270.35546875 -17.001953125 270.35546875 -17.001953125 270.35546875 -19.7666015625 c 0,146,147
 270.35546875 -30.826171875 270.35546875 -30.826171875 262.061523438 -30.826171875 c 2,148,-1
 260.21875 -30.826171875 l 2,149,150
 259.296875 -28.982421875 259.296875 -28.982421875 259.296875 -28.0615234375 c 1,139,-1
278.650390625 67.7861328125 m 2,151,-1
 274.96484375 68.70703125 l 1,152,-1
 274.96484375 53.0400390625 l 1,153,-1
 274.96484375 48.4326171875 l 2,154,155
 274.96484375 41.9814453125 274.96484375 41.9814453125 276.346679688 25.8525390625 c 128,-1,156
 277.729492188 9.724609375 277.729492188 9.724609375 279.572265625 2.3525390625 c 1,157,158
 298.00390625 3.2734375 298.00390625 3.2734375 298.00390625 -9.16796875 c 128,-1,159
 298.00390625 -21.609375 298.00390625 -21.609375 289.708984375 -21.609375 c 128,-1,160
 281.415039062 -21.609375 281.415039062 -21.609375 278.650390625 -17.001953125 c 2,161,-1
 273.12109375 -8.70703125 l 1,162,163
 242.708007812 -24.3740234375 242.708007812 -24.3740234375 225.197265625 -25.2958984375 c 0,164,165
 195.706054688 -24.3740234375 195.706054688 -24.3740234375 189.254882812 -15.158203125 c 0,166,167
 180.0390625 -4.0986328125 180.0390625 -4.0986328125 180.0390625 53.0400390625 c 1,168,-1
 175.430664062 80.6875 l 2,169,170
 175.430664062 84.3740234375 175.430664062 84.3740234375 180.0390625 88.0615234375 c 1,171,172
 186.490234375 87.138671875 186.490234375 87.138671875 186.490234375 49.353515625 c 2,173,-1
 186.490234375 21.7060546875 l 1,174,175
 186.490234375 22.6279296875 186.490234375 22.6279296875 187.872070312 11.5673828125 c 128,-1,176
 189.254882812 0.5087890625 189.254882812 0.5087890625 192.94140625 -7.7861328125 c 0,177,178
 195.706054688 -15.158203125 195.706054688 -15.158203125 214.138671875 -15.158203125 c 1,179,-1
 227.962890625 -13.3154296875 l 2,180,181
 232.5703125 -13.3154296875 232.5703125 -13.3154296875 251.002929688 -7.7861328125 c 128,-1,182
 269.43359375 -2.255859375 269.43359375 -2.255859375 271.27734375 0.5087890625 c 1,183,184
 270.35546875 6.9599609375 270.35546875 6.9599609375 270.35546875 11.5673828125 c 2,185,-1
 266.668945312 53.0400390625 l 1,186,-1
 266.668945312 68.70703125 l 2,187,188
 265.748046875 70.55078125 265.748046875 70.55078125 265.748046875 76.080078125 c 2,189,-1
 265.748046875 80.6875 l 2,190,191
 265.748046875 82.53125 265.748046875 82.53125 270.35546875 90.826171875 c 1,192,193
 281.415039062 81.609375 281.415039062 81.609375 280.494140625 71.47265625 c 2,194,-1
 280.494140625 68.70703125 l 1,195,196
 279.572265625 68.70703125 279.572265625 68.70703125 278.650390625 67.7861328125 c 2,151,-1
198.470703125 86.216796875 m 0,197,198
 211.374023438 86.216796875 211.374023438 86.216796875 211.833984375 72.8544921875 c 128,-1,199
 212.294921875 59.4912109375 212.294921875 59.4912109375 209.530273438 54.8828125 c 1,200,-1
 207.6875 54.8828125 l 1,201,202
 207.6875 68.70703125 207.6875 68.70703125 201.697265625 75.158203125 c 128,-1,203
 195.706054688 81.609375 195.706054688 81.609375 195.24609375 83.9140625 c 128,-1,204
 194.78515625 86.216796875 194.78515625 86.216796875 198.470703125 86.216796875 c 0,197,198
201.235351562 36.451171875 m 1,205,206
 201.235351562 28.1572265625 201.235351562 28.1572265625 198.010742188 29.078125 c 128,-1,207
 194.78515625 30 194.78515625 30 194.78515625 35.529296875 c 0,208,209
 194.78515625 41.9814453125 194.78515625 41.9814453125 205.844726562 48.4326171875 c 0,210,211
 223.354492188 57.6474609375 223.354492188 57.6474609375 240.864257812 64.0986328125 c 0,212,-1
 259.296875 71.47265625 l 1,213,-1
 259.296875 67.7861328125 l 2,214,215
 259.296875 66.8642578125 259.296875 66.8642578125 242.708007812 58.5693359375 c 2,216,-1
 214.138671875 44.74609375 l 2,217,218
 209.530273438 41.05859375 209.530273438 41.05859375 201.235351562 36.451171875 c 1,205,206
255.610351562 25.392578125 m 1,219,220
 251.924804688 16.17578125 251.924804688 16.17578125 247.315429688 16.17578125 c 128,-1,221
 242.708007812 16.17578125 242.708007812 16.17578125 242.708007812 27.2353515625 c 128,-1,222
 242.708007812 38.2939453125 242.708007812 38.2939453125 247.315429688 39.6767578125 c 128,-1,223
 251.924804688 41.05859375 251.924804688 41.05859375 251.924804688 40.5986328125 c 128,-1,224
 251.924804688 40.13671875 251.924804688 40.13671875 249.620117188 35.529296875 c 128,-1,225
 247.315429688 30.921875 247.315429688 30.921875 247.315429688 28.6171875 c 128,-1,226
 247.315429688 26.3134765625 247.315429688 26.3134765625 250.081054688 24.470703125 c 1,227,-1
 251.924804688 25.392578125 l 0,228,229
 254.689453125 26.3134765625 254.689453125 26.3134765625 255.610351562 25.392578125 c 1,219,220
233.4921875 84.3740234375 m 1,230,-1
 233.4921875 76.080078125 l 1,231,232
 235.334960938 76.080078125 l 0,233,234
 236.256835938 76.080078125 236.256835938 76.080078125 238.099609375 76.080078125 c 1,235,-1
 238.099609375 73.3154296875 l 2,236,237
 238.099609375 68.70703125 238.099609375 68.70703125 232.5703125 68.70703125 c 128,-1,238
 227.041015625 68.70703125 227.041015625 68.70703125 227.041015625 73.3154296875 c 0,239,240
 227.041015625 82.53125 227.041015625 82.53125 233.4921875 84.3740234375 c 1,230,-1
301.690429688 -11.47265625 m 2,241,-1
 297.083007812 53.9619140625 l 2,242,243
 298.00390625 57.6474609375 298.00390625 57.6474609375 295.23828125 71.47265625 c 2,244,-1
 293.395507812 84.3740234375 l 2,245,246
 298.00390625 90.826171875 l 1,247,248
 299.84765625 90.826171875 299.84765625 90.826171875 303.534179688 83.9140625 c 128,-1,249
 307.219726562 77.001953125 307.219726562 77.001953125 307.219726562 75.158203125 c 2,250,-1
 307.219726562 73.3154296875 l 1,251,252
 306.298828125 73.3154296875 l 0,253,254
 305.376953125 73.3154296875 305.376953125 73.3154296875 302.612304688 73.3154296875 c 1,255,256
 302.612304688 71.47265625 302.612304688 71.47265625 302.612304688 67.7861328125 c 2,257,-1
 308.141601562 1.4306640625 l 2,258,259
 308.141601562 -0.412109375 308.141601562 -0.412109375 307.681640625 -7.32421875 c 128,-1,260
 307.219726562 -14.2373046875 307.219726562 -14.2373046875 302.612304688 -20.6875 c 1,261,262
 301.690429688 -20.6875 301.690429688 -20.6875 301.690429688 -18.8447265625 c 128,-1,263
 301.690429688 -17.001953125 301.690429688 -17.001953125 301.690429688 -11.47265625 c 2,241,-1
EndSplineSet
EndChar

StartChar: Ntilde
Encoding: 209 209 33
Width: 357
VWidth: 132
Flags: W
LayerCount: 2
Fore
SplineSet
136.681640625 28.041015625 m 1,0,1
 140.3671875 23.43359375 140.3671875 23.43359375 142.211914062 23.43359375 c 0,2,3
 145.897460938 23.43359375 145.897460938 23.43359375 147.741210938 26.1982421875 c 1,4,5
 143.1328125 30.8056640625 143.1328125 30.8056640625 139.446289062 31.7275390625 c 2,6,-1
 136.681640625 31.7275390625 l 1,7,-1
 136.681640625 28.041015625 l 1,0,1
199.350585938 11.4521484375 m 1,8,9
 201.193359375 5.9228515625 201.193359375 5.9228515625 204.879882812 5.9228515625 c 128,-1,10
 208.56640625 5.9228515625 208.56640625 5.9228515625 212.252929688 10.53125 c 1,11,12
 211.33203125 11.4521484375 211.33203125 11.4521484375 208.56640625 11.4521484375 c 2,13,-1
 199.350585938 11.4521484375 l 1,8,9
222.390625 68.591796875 m 1,14,15
 218.704101562 72.2783203125 218.704101562 72.2783203125 216.861328125 72.2783203125 c 1,16,17
 215.939453125 70.435546875 215.939453125 70.435546875 215.939453125 69.052734375 c 128,-1,18
 215.939453125 67.6708984375 215.939453125 67.6708984375 218.243164062 67.6708984375 c 128,-1,19
 220.546875 67.6708984375 220.546875 67.6708984375 222.390625 68.591796875 c 1,14,15
162.486328125 6.8447265625 m 2,20,21
 162.486328125 5.0009765625 162.486328125 5.0009765625 147.279296875 -1.44921875 c 128,-1,22
 132.073242188 -7.900390625 132.073242188 -7.900390625 132.073242188 -5.5966796875 c 128,-1,23
 132.073242188 -3.29296875 132.073242188 -3.29296875 159.721679688 8.6875 c 1,24,-1
 162.486328125 8.6875 l 1,25,-1
 162.486328125 6.8447265625 l 2,20,21
199.350585938 -12.5087890625 m 0,26,27
 203.958007812 -12.5087890625 203.958007812 -12.5087890625 203.958007812 -16.1953125 c 0,28,29
 203.958007812 -25.4111328125 203.958007812 -25.4111328125 192.899414062 -32.783203125 c 1,30,-1
 190.134765625 -30.0185546875 l 1,31,32
 191.977539062 -28.17578125 191.977539062 -28.17578125 198.428710938 -21.724609375 c 1,33,-1
 198.428710938 -19.8818359375 l 1,34,-1
 193.821289062 -19.8818359375 l 1,35,-1
 193.821289062 -17.1171875 l 2,36,37
 192.899414062 -12.5087890625 192.899414062 -12.5087890625 199.350585938 -12.5087890625 c 0,26,27
248.1953125 16.0615234375 m 1,38,-1
 251.880859375 1.3154296875 l 1,39,40
 251.880859375 -21.724609375 251.880859375 -21.724609375 228.840820312 -20.8037109375 c 0,41,42
 224.233398438 -20.8037109375 224.233398438 -20.8037109375 214.096679688 -11.587890625 c 0,43,44
 204.879882812 -5.1357421875 204.879882812 -5.1357421875 203.958007812 -5.1357421875 c 1,45,46
 183.682617188 -14.3525390625 l 0,47,48
 163.407226562 -23.568359375 163.407226562 -23.568359375 145.897460938 -23.568359375 c 0,49,50
 118.25 -23.568359375 118.25 -23.568359375 113.641601562 -17.5771484375 c 128,-1,51
 109.033203125 -11.587890625 109.033203125 -11.587890625 106.268554688 -6.978515625 c 0,52,53
 106.268554688 -6.0576171875 106.268554688 -6.0576171875 105.34765625 -5.1357421875 c 1,54,55
 103.50390625 -6.978515625 103.50390625 -6.978515625 95.2099609375 -12.5087890625 c 0,56,57
 79.54296875 -22.646484375 79.54296875 -22.646484375 74.9345703125 -23.568359375 c 0,58,59
 61.1103515625 -23.568359375 61.1103515625 -23.568359375 62.0322265625 -6.978515625 c 0,60,61
 62.0322265625 -0.5283203125 62.0322265625 -0.5283203125 64.796875 5.9228515625 c 128,-1,62
 67.5615234375 12.375 67.5615234375 12.375 69.404296875 12.375 c 1,63,64
 67.5615234375 16.982421875 l 0,65,66
 65.7177734375 23.43359375 65.7177734375 23.43359375 66.1796875 35.875 c 128,-1,67
 66.6396484375 48.31640625 66.6396484375 48.31640625 81.3857421875 63.0625 c 1,68,-1
 84.150390625 63.0625 l 1,69,-1
 84.150390625 60.2978515625 l 1,70,-1
 79.54296875 54.767578125 l 0,71,72
 71.2470703125 40.0224609375 71.2470703125 40.0224609375 71.2470703125 35.4150390625 c 0,73,74
 71.2470703125 24.35546875 71.2470703125 24.35546875 75.8564453125 23.43359375 c 1,75,76
 79.54296875 25.2763671875 79.54296875 25.2763671875 84.150390625 31.7275390625 c 1,77,78
 85.072265625 29.884765625 85.072265625 29.884765625 84.611328125 28.5029296875 c 128,-1,79
 84.150390625 27.1201171875 84.150390625 27.1201171875 80.4638671875 21.12890625 c 128,-1,80
 76.77734375 15.1396484375 76.77734375 15.1396484375 71.708984375 8.2275390625 c 128,-1,81
 66.6396484375 1.3154296875 66.6396484375 1.3154296875 66.6396484375 -7.4404296875 c 128,-1,82
 66.6396484375 -16.1953125 66.6396484375 -16.1953125 70.326171875 -16.1953125 c 0,83,84
 76.77734375 -16.1953125 76.77734375 -16.1953125 90.140625 -4.67578125 c 128,-1,85
 103.50390625 6.8447265625 103.50390625 6.8447265625 103.50390625 7.7666015625 c 2,86,-1
 103.50390625 28.041015625 l 1,87,-1
 95.2099609375 88.8671875 l 2,88,89
 95.2099609375 89.7890625 95.2099609375 89.7890625 99.8173828125 97.1611328125 c 1,90,91
 106.268554688 98.0830078125 106.268554688 98.0830078125 108.112304688 55.689453125 c 2,92,-1
 109.955078125 15.1396484375 l 2,93,94
 109.955078125 13.296875 109.955078125 13.296875 110.876953125 12.375 c 1,95,-1
 132.995117188 21.5908203125 l 1,96,97
 132.995117188 23.43359375 132.995117188 23.43359375 132.53515625 32.6494140625 c 128,-1,98
 132.073242188 41.8662109375 132.073242188 41.8662109375 138.985351562 41.8662109375 c 128,-1,99
 145.897460938 41.8662109375 145.897460938 41.8662109375 151.426757812 36.3369140625 c 128,-1,100
 156.95703125 30.8056640625 156.95703125 30.8056640625 156.95703125 25.2763671875 c 0,101,102
 156.95703125 18.826171875 156.95703125 18.826171875 153.270507812 16.982421875 c 1,103,104
 144.0546875 15.1396484375 144.0546875 15.1396484375 142.211914062 8.6875 c 1,105,-1
 136.681640625 12.375 l 1,106,107
 134.837890625 12.375 134.837890625 12.375 122.857421875 7.7666015625 c 128,-1,108
 110.876953125 3.158203125 110.876953125 3.158203125 110.876953125 1.3154296875 c 0,109,110
 110.876953125 -14.3525390625 110.876953125 -14.3525390625 141.290039062 -14.3525390625 c 128,-1,111
 171.702148438 -14.3525390625 171.702148438 -14.3525390625 193.821289062 -1.44921875 c 1,112,113
 192.899414062 4.080078125 192.899414062 4.080078125 185.526367188 5.9228515625 c 2,114,-1
 179.075195312 5.9228515625 l 1,115,116
 178.153320312 6.8447265625 178.153320312 6.8447265625 178.153320312 7.7666015625 c 0,117,118
 178.153320312 20.6689453125 178.153320312 20.6689453125 203.498046875 20.6689453125 c 128,-1,119
 228.840820312 20.6689453125 228.840820312 20.6689453125 228.840820312 14.2177734375 c 128,-1,120
 228.840820312 7.7666015625 228.840820312 7.7666015625 222.390625 4.541015625 c 128,-1,121
 215.939453125 1.3154296875 215.939453125 1.3154296875 214.096679688 1.3154296875 c 0,122,123
 219.625976562 -9.7431640625 219.625976562 -9.7431640625 233.91015625 -9.7431640625 c 128,-1,124
 248.1953125 -9.7431640625 248.1953125 -9.7431640625 248.1953125 -2.37109375 c 1,125,-1
 238.057617188 23.43359375 l 1,126,-1
 238.057617188 30.8056640625 l 1,127,-1
 241.744140625 30.8056640625 l 1,128,129
 245.430664062 26.1982421875 245.430664062 26.1982421875 250.959960938 19.7470703125 c 1,130,-1
 248.1953125 16.0615234375 l 1,38,-1
190.134765625 64.90625 m 0,131,132
 196.5859375 64.90625 196.5859375 64.90625 197.506835938 60.7587890625 c 128,-1,133
 198.428710938 56.6103515625 198.428710938 56.6103515625 195.6640625 54.767578125 c 1,134,135
 194.7421875 55.689453125 194.7421875 55.689453125 190.134765625 58.455078125 c 1,136,-1
 183.682617188 37.2578125 l 1,137,-1
 174.466796875 51.0810546875 l 1,138,139
 166.172851562 51.0810546875 166.172851562 51.0810546875 166.172851562 56.150390625 c 128,-1,140
 166.172851562 61.2197265625 166.172851562 61.2197265625 171.702148438 61.2197265625 c 0,141,142
 178.153320312 62.1416015625 178.153320312 62.1416015625 183.682617188 51.0810546875 c 1,143,144
 185.526367188 51.0810546875 185.526367188 51.0810546875 184.604492188 53.845703125 c 2,145,-1
 184.604492188 58.455078125 l 1,146,147
 185.526367188 64.90625 185.526367188 64.90625 190.134765625 64.90625 c 0,131,132
136.681640625 70.435546875 m 2,148,-1
 211.33203125 97.1611328125 l 1,149,-1
 213.174804688 97.1611328125 l 1,150,151
 213.174804688 91.6318359375 213.174804688 91.6318359375 202.115234375 87.0244140625 c 0,152,153
 168.016601562 75.96484375 168.016601562 75.96484375 143.59375 65.3662109375 c 128,-1,154
 119.171875 54.767578125 119.171875 54.767578125 119.171875 57.9931640625 c 128,-1,155
 119.171875 61.2197265625 119.171875 61.2197265625 124.701171875 63.984375 c 0,156,157
 131.15234375 68.591796875 131.15234375 68.591796875 132.073242188 75.04296875 c 1,158,-1
 124.701171875 93.4755859375 l 1,159,160
 124.701171875 95.318359375 124.701171875 95.318359375 130.69140625 95.318359375 c 128,-1,161
 136.681640625 95.318359375 136.681640625 95.318359375 136.681640625 80.572265625 c 1,162,-1
 136.681640625 73.2001953125 l 1,163,-1
 136.681640625 70.435546875 l 2,164,-1
 136.681640625 70.435546875 l 2,148,-1
236.21484375 49.23828125 m 0,165,166
 236.21484375 42.787109375 236.21484375 42.787109375 230.223632812 42.326171875 c 128,-1,167
 224.233398438 41.8662109375 224.233398438 41.8662109375 224.233398438 47.8564453125 c 128,-1,168
 224.233398438 53.845703125 224.233398438 53.845703125 230.223632812 54.3076171875 c 128,-1,169
 236.21484375 54.767578125 236.21484375 54.767578125 236.21484375 49.23828125 c 0,165,166
269.391601562 25.2763671875 m 1,170,-1
 268.470703125 16.982421875 l 2,171,172
 268.470703125 15.1396484375 268.470703125 15.1396484375 269.391601562 12.375 c 1,173,-1
 272.15625 13.296875 l 0,174,175
 274 13.296875 274 13.296875 274 12.375 c 0,176,177
 274 5.9228515625 274 5.9228515625 268.931640625 5.9228515625 c 128,-1,178
 263.862304688 5.9228515625 263.862304688 5.9228515625 263.862304688 13.296875 c 128,-1,179
 263.862304688 20.6689453125 263.862304688 20.6689453125 269.391601562 25.2763671875 c 1,170,-1
211.33203125 64.90625 m 0,180,181
 211.33203125 78.7294921875 211.33203125 78.7294921875 222.390625 78.7294921875 c 0,182,183
 226.998046875 78.7294921875 226.998046875 78.7294921875 227.919921875 68.591796875 c 0,184,185
 229.762695312 58.455078125 229.762695312 58.455078125 215.939453125 58.455078125 c 0,186,187
 211.33203125 58.455078125 211.33203125 58.455078125 211.33203125 64.90625 c 0,180,181
317.315429688 -7.900390625 m 0,188,189
 317.315429688 -3.29296875 317.315429688 -3.29296875 321.462890625 -4.2138671875 c 128,-1,190
 325.610351562 -5.1357421875 325.610351562 -5.1357421875 325.610351562 -7.900390625 c 128,-1,191
 325.610351562 -10.6650390625 325.610351562 -10.6650390625 321.922851562 -15.2734375 c 0,192,193
 317.315429688 -19.8818359375 317.315429688 -19.8818359375 313.62890625 -19.8818359375 c 1,194,195
 314.55078125 -18.9599609375 314.55078125 -18.9599609375 321.000976562 -11.587890625 c 1,196,-1
 318.236328125 -9.7431640625 l 1,197,-1
 318.236328125 -9.7431640625 l 0,198,199
 317.315429688 -9.7431640625 317.315429688 -9.7431640625 317.315429688 -7.900390625 c 0,188,189
309.020507812 86.1025390625 m 1,200,201
 318.236328125 79.650390625 318.236328125 79.650390625 318.236328125 68.591796875 c 2,202,-1
 318.236328125 64.90625 l 2,203,-1
 317.315429688 64.90625 l 0,204,205
 315.471679688 64.90625 315.471679688 64.90625 312.70703125 65.8271484375 c 1,206,207
 312.70703125 63.984375 312.70703125 63.984375 312.70703125 61.2197265625 c 2,208,-1
 316.393554688 23.43359375 l 1,209,210
 315.471679688 -13.4306640625 315.471679688 -13.4306640625 283.215820312 -17.1171875 c 0,211,212
 281.373046875 -16.1953125 281.373046875 -16.1953125 275.842773438 -18.9599609375 c 0,213,214
 269.391601562 -20.8037109375 269.391601562 -20.8037109375 265.706054688 -18.9599609375 c 1,215,-1
 285.059570312 -10.6650390625 l 2,216,217
 300.725585938 -2.37109375 300.725585938 -2.37109375 301.1875 5.0009765625 c 128,-1,218
 301.647460938 12.375 301.647460938 12.375 292.431640625 25.2763671875 c 1,219,220
 249.116210938 71.3564453125 249.116210938 71.3564453125 249.116210938 77.8076171875 c 128,-1,221
 249.116210938 84.259765625 249.116210938 84.259765625 250.959960938 87.9462890625 c 1,222,-1
 251.880859375 87.9462890625 l 2,223,224
 253.724609375 87.0244140625 253.724609375 87.0244140625 267.548828125 76.8857421875 c 1,225,-1
 267.548828125 74.12109375 l 1,226,227
 265.706054688 74.12109375 265.706054688 74.12109375 262.94140625 73.2001953125 c 1,228,229
 267.548828125 64.90625 267.548828125 64.90625 279.530273438 52.0029296875 c 0,230,231
 301.647460938 28.041015625 301.647460938 28.041015625 304.413085938 15.1396484375 c 1,232,-1
 304.413085938 8.6875 l 2,233,234
 304.413085938 4.080078125 304.413085938 4.080078125 307.637695312 5.0009765625 c 128,-1,235
 310.864257812 5.9228515625 310.864257812 5.9228515625 310.864257812 16.982421875 c 2,236,-1
 306.255859375 77.8076171875 l 2,237,238
 305.334960938 82.416015625 305.334960938 82.416015625 309.020507812 86.1025390625 c 1,200,201
249.116210938 100.84765625 m 1,239,-1
 249.116210938 98.0830078125 l 1,240,241
 247.2734375 98.0830078125 247.2734375 98.0830078125 245.430664062 98.0830078125 c 1,242,-1
 242.666015625 97.1611328125 l 1,243,244
 242.666015625 96.240234375 242.666015625 96.240234375 253.724609375 96.240234375 c 1,245,-1
 254.645507812 95.318359375 l 1,246,-1
 254.645507812 92.5537109375 l 1,247,248
 253.724609375 91.6318359375 253.724609375 91.6318359375 249.116210938 89.328125 c 128,-1,249
 244.508789062 87.0244140625 244.508789062 87.0244140625 239.901367188 84.259765625 c 1,250,251
 239.901367188 86.1025390625 239.901367188 86.1025390625 238.057617188 88.8671875 c 128,-1,252
 236.21484375 91.6318359375 236.21484375 91.6318359375 236.21484375 93.9365234375 c 128,-1,253
 236.21484375 96.240234375 236.21484375 96.240234375 240.822265625 100.84765625 c 128,-1,254
 245.430664062 105.456054688 245.430664062 105.456054688 247.2734375 104.995117188 c 128,-1,255
 249.116210938 104.53515625 249.116210938 104.53515625 249.116210938 100.84765625 c 1,239,-1
244.508789062 111.907226562 m 2,256,-1
 245.430664062 108.220703125 l 1,257,258
 229.762695312 101.76953125 229.762695312 101.76953125 229.302734375 103.612304688 c 128,-1,259
 228.840820312 105.456054688 228.840820312 105.456054688 233.450195312 110.064453125 c 128,-1,260
 238.057617188 114.671875 238.057617188 114.671875 241.744140625 112.829101562 c 2,261,-1
 244.508789062 111.907226562 l 2,256,-1
332.982421875 69.513671875 m 1,262,-1
 332.982421875 76.8857421875 l 1,263,264
 332.982421875 81.4951171875 332.982421875 81.4951171875 337.58984375 86.1025390625 c 1,265,266
 341.276367188 80.572265625 341.276367188 80.572265625 344.962890625 67.6708984375 c 1,267,-1
 344.962890625 64.90625 l 1,268,-1
 344.041015625 64.90625 l 0,269,270
 342.198242188 64.90625 342.198242188 64.90625 340.35546875 64.90625 c 1,271,272
 338.51171875 64.90625 338.51171875 64.90625 340.35546875 60.2978515625 c 2,273,-1
 343.120117188 17.904296875 l 2,274,275
 344.041015625 -9.7431640625 344.041015625 -9.7431640625 335.747070312 -15.2734375 c 1,276,-1
 336.668945312 3.158203125 l 1,277,-1
 335.747070312 31.7275390625 l 1,278,-1
 332.982421875 43.708984375 l 1,279,-1
 332.982421875 69.513671875 l 1,262,-1
EndSplineSet
EndChar

